{
.appVersion = "3414";
.formatVersion = 3;
DisplayStrings = (
"ʒӡ"
);
axes = (
{
name = Weight;
tag = wght;
}
);
classes = (
{
automatic = 1;

glyphs = (
{
glyphname = A;
kernLeft = A;
kernRight = A;
layers = (
{
anchors = (
{
name = bottom;
pos = (284,0);
},
{
name = ogonek;
pos = (461,0);
},
{
name = top;
pos = (285,810);
}
);
layerId = "249F2D81-707B-4084-8FA6-2290A2E02600";
shapes = (
{
closed = 1;
nodes = (
(209,0,l),
(234,162,l),
(339,162,l),
(364,0,l),
(545,0,l),
(400,810,l),
(169,810,l),
(22,0,l)
);
},
{
closed = 1;
nodes = (
(286,578,l),
(322,276,l),
(250,276,l)
);
}
);
width = 568;
},
{
anchors = (
{
name = bottom;
pos = (246,0);
},
{
name = ogonek;
pos = (430,0);
},
{
name = top;
pos = (246,810);
}
);
layerId = "B4C1A060-68FB-4CB1-AF3F-8DCCE37557EC";
shapes = (
{
closed = 1;
nodes = (
(125,0,l),
(164,204,l),
(329,204,l),
(366,0,l),
(473,0,l),
(300,810,l),
(191,810,l),
(19,0,l)
);
},
{
closed = 1;
nodes = (
(246,650,l),
(314,285,l),
(179,285,l)
);
}
);
width = 492;
},
{
anchors = (
{
name = bottom;
pos = (234,0);
},
{
name = ogonek;
pos = (411,0);
},
{
name = top;
pos = (234,810);
}
);
layerId = "6AC43539-1FDC-4B97-8460-9A098675B85D";
shapes = (
{
closed = 1;
nodes = (
(86,0,l),
(129,224,l),
(339,224,l),
(381,0,l),
(436,0,l),
(265,810,l),
(202,810,l),
(32,0,l)
);
},
{
closed = 1;
nodes = (
(234,744,l),
(332,264,l),
(137,264,l)
);
}
);
width = 468;
}
);
unicode = 65;
},
{
glyphname = AE;
kernLeft = AE;
kernRight = AE;
lastChange = "2025-05-07 12:24:44 +0000";
layers = (
{
anchors = (
{
name = bottom;
pos = (365,0);
},
{
name = top;
pos = (470,810);
}
);
layerId = "249F2D81-707B-4084-8FA6-2290A2E02600";
shapes = (
{
closed = 1;
nodes = (
(198,0,l),
(262,159,l),
(387,159,l),
(387,0,l),
(713,0,l),
(713,132,l),
(553,132,l),
(553,349,l),
(666,349,l),
(666,487,l),
(553,487,l),
(553,661,l),
(713,661,l),
(713,794,l),
(354,794,l),
(-2,0,l)
);
},
{
closed = 1;
nodes = (
(387,513,l),
(387,280,l),
(300,280,l)
);
}
);
width = 729;
},
{
anchors = (
{
name = bottom;
pos = (318,0);
},
{
name = top;
pos = (346,810);
}
);
layerId = "B4C1A060-68FB-4CB1-AF3F-8DCCE37557EC";
shapes = (
{
closed = 1;
nodes = (
(57,0,l),
(143,205,l),
(292,205,l),
(292,0,l),
(605,0,l),
(605,82,l),
(400,82,l),
(400,379,l),
(547,379,l),
(547,460,l),
(400,460,l),
(400,728,l),
(605,728,l),
(605,810,l),
(290,810,l),
(-51,0,l)
);
},
{
closed = 1;
nodes = (
(292,605,l),
(292,286,l),
(173,286,l)
);
}
);
width = 635;
},
{
anchors = (
{
name = bottom;
pos = (315,0);
},
{
name = top;
pos = (343,810);
}
);
layerId = "6AC43539-1FDC-4B97-8460-9A098675B85D";
shapes = (
{
closed = 1;
nodes = (
(49,0,l),
(132,224,l),
(315,224,l),
(315,0,l),
(596,0,l),
(596,47,l),
(372,47,l),
(372,401,l),
(532,401,l),
(532,445,l),
(372,445,l),
(372,762,l),
(596,762,l),
(596,810,l),
(299,810,l),
(-15,0,l)
);
},
{
closed = 1;
nodes = (
(314,727,l),
(314,268,l),
(148,268,l)
);
}
);
width = 629;
}
);
unicode = 198;
},
{
glyphname = B;
kernLeft = H;
kernRight = B;
lastChange = "2025-05-07 12:24:44 +0000";
layers = (
{
anchors = (
{
name = bottom;
pos = (304,0);
},
{
name = top;
pos = (304,810);
}
);
layerId = "249F2D81-707B-4084-8FA6-2290A2E02600";
shapes = (
{
closed = 1;
nodes = (
(318,0,ls),
(477,0,o),
(576,67,o),
(573,243,cs),
(571,357,o),
(521,426,o),
(428,435,c),
(500,449,o),
(545,498,o),
(547,595,cs),
(552,787,o),
(414,810,o),
(278,810,cs),
(59,810,l),
(59,0,l)
);
},
{
closed = 1;
nodes = (
(257,363,l),
(285,363,ls),
(358,363,o),
(382,334,o),
(382,247,cs),
(382,176,o),
(357,138,o),
(284,138,cs),
(257,138,l)
);
},
{
closed = 1;
nodes = (
(257,679,l),
(290,679,ls),
(342,679,o),
(374,639,o),
(374,589,cs),
(374,529,o),
(360,490,o),
(283,490,cs),
(257,490,l)
);
}
);
width = 607;
},
{
anchors = (
{
name = bottom;
pos = (262,0);
},
{
name = top;
pos = (262,810);
}
);
layerId = "B4C1A060-68FB-4CB1-AF3F-8DCCE37557EC";
shapes = (
{
closed = 1;
nodes = (
(279,0,ls),
(424,0,o),
(487,91,o),
(487,231,cs),
(487,346,o),
(446,413,o),
(349,436,c),
(428,447,o),
(465,507,o),
(465,607,cs),
(465,746,o),
(395,810,o),
(249,810,cs),
(63,810,l),
(63,0,l)
);
},
{
closed = 1;
nodes = (
(176,386,l),
(243,386,ls),
(342,386,o),
(379,332,o),
(379,231,cs),
(379,126,o),
(353,81,o),
(252,81,cs),
(176,81,l)
);
},
{
closed = 1;
nodes = (
(176,726,l),
(203,726,ls),
(318,726,o),
(367,718,o),
(367,607,cs),
(367,511,o),
(338,472,o),
(243,472,cs),
(176,472,l)
);
}
);
width = 524;
},
{
anchors = (
{
name = bottom;
pos = (244,0);
},
{
name = top;
pos = (244,810);
}
);
layerId = "6AC43539-1FDC-4B97-8460-9A098675B85D";
shapes = (
{
closed = 1;
nodes = (
(266,0,ls),
(422,0,o),
(447,114,o),
(447,236,cs),
(447,308,o),
(428,409,o),
(334,437,c),
(413,456,o),
(429,543,o),
(429,608,cs),
(429,720,o),
(391,810,o),
(242,810,cs),
(74,810,l),
(74,0,l)
);
},
{
closed = 1;
nodes = (
(129,412,l),
(267,412,ls),
(364,412,o),
(394,332,o),
(394,235,cs),
(394,104,o),
(366,43,o),
(259,43,cs),
(129,43,l)
);
},
{
closed = 1;
nodes = (
(129,766,l),
(229,766,ls),
(356,766,o),
(378,698,o),
(378,608,cs),
(378,524,o),
(355,455,o),
(266,455,cs),
(129,455,l)
);
}
);
width = 488;
}
);
unicode = 66;
},
{
glyphname = C;
kernLeft = O;
kernRight = C;
lastChange = "2025-05-07 12:24:44 +0000";
layers = (
{
anchors = (
{
name = bottom;
pos = (289,0);
},
{
name = top;
pos = (299,810);
}
);
layerId = "249F2D81-707B-4084-8FA6-2290A2E02600";
shapes = (
{
closed = 1;
nodes = (
(487,-13,o),
(541,91,o),
(541,226,cs),
(541,298,l),
(346,298,l),
(346,206,ls),
(346,171,o),
(345,125,o),
(299,125,cs),
(254,125,o),
(250,170,o),
(250,206,cs),
(250,604,ls),
(250,639,o),
(253,685,o),
(299,685,cs),
(345,685,o),
(346,639,o),
(346,604,cs),
(346,516,l),
(541,516,l),
(541,588,ls),
(541,723,o),
(487,822,o),
(299,822,cs),
(111,822,o),
(49,720,o),
(49,551,cs),
(49,258,ls),
(49,90,o),
(111,-13,o),
(299,-13,cs)
);
}
);
width = 577;
},
{
anchors = (
{
name = bottom;
pos = (258,0);
},
{
name = top;
pos = (258,810);
}
);
layerId = "B4C1A060-68FB-4CB1-AF3F-8DCCE37557EC";
shapes = (
{
closed = 1;
nodes = (
(425,-9,o),
(470,92,o),
(470,241,cs),
(470,301,l),
(363,301,l),
(363,241,ls),
(363,145,o),
(358,80,o),
(267,80,cs),
(189,80,o),
(162,120,o),
(162,242,cs),
(162,563,ls),
(162,663,o),
(171,729,o),
(267,729,cs),
(361,729,o),
(363,667,o),
(363,577,cs),
(363,520,l),
(470,520,l),
(470,584,ls),
(470,730,o),
(417,817,o),
(266,817,cs),
(94,817,o),
(48,710,o),
(48,546,cs),
(48,260,ls),
(48,109,o),
(94,-9,o),
(266,-9,cs)
);
}
);
width = 515;
},
{
anchors = (
{
name = bottom;
pos = (245,0);
},
{
name = top;
pos = (245,810);
}
);
layerId = "6AC43539-1FDC-4B97-8460-9A098675B85D";
shapes = (
{
closed = 1;
nodes = (
(401,-11,o),
(440,88,o),
(440,227,cs),
(440,267,l),
(388,267,l),
(388,218,ls),
(388,107,o),
(363,34,o),
(255,34,cs),
(143,34,o),
(113,105,o),
(113,225,cs),
(113,583,ls),
(113,697,o),
(138,774,o),
(255,774,cs),
(361,774,o),
(388,706,o),
(388,591,cs),
(388,550,l),
(440,550,l),
(440,591,ls),
(440,729,o),
(396,819,o),
(255,819,cs),
(100,819,o),
(58,716,o),
(58,577,cs),
(58,233,ls),
(58,98,o),
(95,-11,o),
(255,-11,cs)
);
}
);
width = 489;
}
);
unicode = 67;
},
{
glyphname = D;
kernLeft = H;
kernRight = O;
lastChange = "2025-05-07 12:24:44 +0000";
layers = (
{
anchors = (
{
name = bottom;
pos = (302,0);
},
{
name = center;
pos = (302,405);
},
{
name = top;
pos = (302,810);
}
);
layerId = "249F2D81-707B-4084-8FA6-2290A2E02600";
shapes = (
{
closed = 1;
nodes = (
(272,0,ls),
(493,0,o),
(554,74,o),
(554,259,cs),
(554,551,ls),
(554,736,o),
(493,810,o),
(272,810,cs),
(59,810,l),
(59,0,l)
);
},
{
closed = 1;
nodes = (
(257,673,l),
(275,673,ls),
(343,673,o),
(350,651,o),
(350,596,cs),
(350,216,ls),
(350,160,o),
(343,137,o),
(275,137,cs),
(257,137,l)
);
}
);
width = 603;
},
{
anchors = (
{
name = bottom;
pos = (264,0);
},
{
name = center;
pos = (264,405);
},
{
name = top;
pos = (264,810);
}
);
layerId = "B4C1A060-68FB-4CB1-AF3F-8DCCE37557EC";
shapes = (
{
closed = 1;
nodes = (
(248,0,ls),
(418,0,o),
(479,93,o),
(479,265,cs),
(479,563,ls),
(479,727,o),
(419,810,o),
(239,810,cs),
(63,810,l),
(63,0,l)
);
},
{
closed = 1;
nodes = (
(176,726,l),
(237,726,ls),
(353,726,o),
(365,674,o),
(365,549,cs),
(365,286,ls),
(365,155,o),
(363,81,o),
(240,81,cs),
(176,81,l)
);
}
);
width = 527;
},
{
anchors = (
{
name = bottom;
pos = (259,0);
},
{
name = center;
pos = (259,405);
},
{
name = top;
pos = (259,810);
}
);
layerId = "6AC43539-1FDC-4B97-8460-9A098675B85D";
shapes = (
{
closed = 1;
nodes = (
(257,0,ls),
(414,0,o),
(459,102,o),
(459,241,cs),
(459,577,ls),
(459,707,o),
(413,810,o),
(252,810,cs),
(75,810,l),
(75,0,l)
);
},
{
closed = 1;
nodes = (
(129,766,l),
(252,766,ls),
(376,766,o),
(404,691,o),
(404,573,cs),
(404,247,ls),
(404,137,o),
(385,43,o),
(254,43,cs),
(129,43,l)
);
}
);
width = 517;
}
);
unicode = 68;
},
{
glyphname = Dcroat;
kernLeft = Eth;
kernRight = O;
lastChange = "2025-05-07 12:24:44 +0000";
layers = (
{
layerId = "249F2D81-707B-4084-8FA6-2290A2E02600";
shapes = (
{
closed = 1;
nodes = (
(278,0,ls),
(498,0,o),
(559,74,o),
(559,259,cs),
(559,551,ls),
(559,736,o),
(499,810,o),
(277,810,cs),
(64,810,l),
(64,457,l),
(12,457,l),
(12,370,l),
(64,370,l),
(64,0,l)
);
},
{
closed = 1;
nodes = (
(256,370,l),
(302,370,l),
(302,457,l),
(256,457,l),
(256,673,l),
(285,673,ls),
(353,673,o),
(360,651,o),
(360,596,cs),
(360,216,ls),
(360,160,o),
(354,137,o),
(285,137,cs),
(256,137,l)
);
}
);
width = 607;
},
{
layerId = "B4C1A060-68FB-4CB1-AF3F-8DCCE37557EC";
shapes = (
{
closed = 1;
nodes = (
(250,0,ls),
(420,0,o),
(480,93,o),
(480,265,cs),
(480,563,ls),
(480,727,o),
(422,810,o),
(242,810,cs),
(65,810,l),
(65,453,l),
(17,453,l),
(17,388,l),
(65,388,l),
(65,0,l)
);
},
{
closed = 1;
nodes = (
(179,388,l),
(239,388,l),
(239,453,l),
(179,453,l),
(179,726,l),
(239,726,ls),
(355,726,o),
(367,674,o),
(367,549,cs),
(367,286,ls),
(367,155,o),
(365,81,o),
(242,81,cs),
(179,81,l)
);
}
);
width = 529;
},
{
layerId = "6AC43539-1FDC-4B97-8460-9A098675B85D";
shapes = (
{
closed = 1;
nodes = (
(258,0,ls),
(414,0,o),
(460,102,o),
(460,241,cs),
(460,577,ls),
(460,707,o),
(414,810,o),
(253,810,cs),
(75,810,l),
(75,445,l),
(10,445,l),
(10,408,l),
(75,408,l),
(75,0,l)
);
},
{
closed = 1;
nodes = (
(130,408,l),
(224,408,l),
(224,445,l),
(130,445,l),
(130,766,l),
(252,766,ls),
(377,766,o),
(405,691,o),
(405,573,cs),
(405,247,ls),
(405,137,o),
(386,43,o),
(255,43,cs),
(130,43,l)
);
}
);
width = 518;
}
);
unicode = 272;
},
{
glyphname = Eth;
kernLeft = Eth;
kernRight = O;
lastChange = "2025-05-07 12:24:44 +0000";
layers = (
{
layerId = "249F2D81-707B-4084-8FA6-2290A2E02600";
shapes = (
{
closed = 1;
nodes = (
(262,0,ls),
(483,0,o),
(543,74,o),
(543,259,cs),
(543,551,ls),
(543,736,o),
(483,810,o),
(262,810,cs),
(48,810,l),
(48,461,l),
(5,461,l),
(5,365,l),
(48,365,l),
(48,0,l)
);
},
{
closed = 1;
nodes = (
(247,365,l),
(282,365,l),
(282,461,l),
(247,461,l),
(247,673,l),
(265,673,ls),
(333,673,o),
(340,651,o),
(340,596,cs),
(340,216,ls),
(340,160,o),
(333,137,o),
(265,137,cs),
(247,137,l)
);
}
);
width = 576;
},
{
layerId = "B4C1A060-68FB-4CB1-AF3F-8DCCE37557EC";
shapes = (
{
closed = 1;
nodes = (
(248,0,ls),
(418,0,o),
(479,93,o),
(479,265,cs),
(479,563,ls),
(479,727,o),
(419,810,o),
(239,810,cs),
(63,810,l),
(63,453,l),
(14,453,l),
(14,388,l),
(63,388,l),
(63,0,l)
);
},
{
closed = 1;
nodes = (
(176,388,l),
(237,388,l),
(237,453,l),
(176,453,l),
(176,726,l),
(237,726,ls),
(353,726,o),
(365,674,o),
(365,549,cs),
(365,286,ls),
(365,155,o),
(363,81,o),
(240,81,cs),
(176,81,l)
);
}
);
width = 518;
},
{
layerId = "6AC43539-1FDC-4B97-8460-9A098675B85D";
shapes = (
{
closed = 1;
nodes = (
(257,0,ls),
(414,0,o),
(459,102,o),
(459,241,cs),
(459,577,ls),
(459,707,o),
(413,810,o),
(252,810,cs),
(75,810,l),
(75,445,l),
(9,445,l),
(9,408,l),
(75,408,l),
(75,0,l)
);
},
{
closed = 1;
nodes = (
(129,408,l),
(223,408,l),
(223,445,l),
(129,445,l),
(129,766,l),
(252,766,ls),
(376,766,o),
(404,691,o),
(404,573,cs),
(404,247,ls),
(404,137,o),
(385,43,o),
(254,43,cs),
(129,43,l)
);
}
);
width = 561;
}
);
unicode = 208;
},
{
glyphname = E;
kernLeft = H;
kernRight = E;
lastChange = "2025-05-07 12:24:44 +0000";
layers = (
{
anchors = (
{
name = bottom;
pos = (230,0);
},
{
name = ogonek;
pos = (313,0);
},
{
name = top;
pos = (250,810);
},
{
name = topleft;
pos = (20,810);
}
);
layerId = "249F2D81-707B-4084-8FA6-2290A2E02600";
shapes = (
{
closed = 1;
nodes = (
(439,0,l),
(439,132,l),
(257,132,l),
(257,358,l),
(392,358,l),
(392,496,l),
(257,496,l),
(257,677,l),
(438,677,l),
(438,810,l),
(59,810,l),
(59,0,l)
);
}
);
width = 459;
},
{
anchors = (
{
name = bottom;
pos = (204,0);
},
{
name = ogonek;
pos = (316,0);
},
{
name = top;
pos = (224,810);
},
{
name = topleft;
pos = (20,810);
}
);
layerId = "B4C1A060-68FB-4CB1-AF3F-8DCCE37557EC";
shapes = (
{
closed = 1;
nodes = (
(379,0,l),
(379,81,l),
(176,81,l),
(176,378,l),
(339,378,l),
(339,458,l),
(176,458,l),
(176,726,l),
(377,726,l),
(377,810,l),
(63,810,l),
(63,0,l)
);
}
);
width = 407;
},
{
anchors = (
{
name = bottom;
pos = (216,0);
},
{
name = ogonek;
pos = (314,0);
},
{
name = top;
pos = (217,810);
},
{
name = topleft;
pos = (20,810);
}
);
layerId = "6AC43539-1FDC-4B97-8460-9A098675B85D";
shapes = (
{
closed = 1;
nodes = (
(357,0,l),
(357,43,l),
(129,43,l),
(129,399,l),
(314,399,l),
(314,441,l),
(129,441,l),
(129,766,l),
(354,766,l),
(354,810,l),
(74,810,l),
(74,0,l)
);
}
);
width = 393;
}
);
unicode = 69;
},
{
glyphname = Schwa;
kernLeft = O;
kernRight = O;
lastChange = "2025-05-07 12:24:44 +0000";
layers = (
{
layerId = "249F2D81-707B-4084-8FA6-2290A2E02600";
shapes = (
{
closed = 1;
nodes = (
(443,-13,o),
(546,79,o),
(546,241,cs),
(546,565,ls),
(546,728,o),
(443,822,o),
(298,822,cs),
(146,822,o),
(45,742,o),
(45,578,cs),
(45,484,l),
(248,484,l),
(248,613,ls),
(248,671,o),
(270,685,o),
(295,685,cs),
(321,685,o),
(343,671,o),
(343,613,cs),
(343,421,l),
(45,421,l),
(45,231,ls),
(45,69,o),
(143,-13,o),
(298,-13,cs)
);
},
{
closed = 1;
nodes = (
(269,124,o),
(248,140,o),
(248,194,cs),
(248,308,l),
(343,308,l),
(343,194,ls),
(343,140,o),
(323,124,o),
(296,124,cs)
);
}
);
width = 595;
},
{
layerId = "B4C1A060-68FB-4CB1-AF3F-8DCCE37557EC";
shapes = (
{
closed = 1;
nodes = (
(429,-9,o),
(487,94,o),
(487,253,cs),
(487,561,ls),
(487,720,o),
(429,817,o),
(266,817,cs),
(100,817,o),
(44,721,o),
(44,561,cs),
(44,514,l),
(158,514,l),
(158,584,ls),
(158,674,o),
(175,729,o),
(266,729,cs),
(357,729,o),
(373,674,o),
(373,584,cs),
(373,421,l),
(44,421,l),
(44,254,ls),
(44,93,o),
(101,-9,o),
(266,-9,cs)
);
},
{
closed = 1;
nodes = (
(175,80,o),
(158,139,o),
(158,229,cs),
(158,332,l),
(373,332,l),
(373,229,ls),
(373,139,o),
(356,80,o),
(266,80,cs)
);
}
);
width = 535;
},
{
layerId = "6AC43539-1FDC-4B97-8460-9A098675B85D";
shapes = (
{
closed = 1;
nodes = (
(412,-11,o),
(454,91,o),
(454,229,cs),
(454,584,ls),
(454,721,o),
(407,819,o),
(254,819,cs),
(100,819,o),
(54,722,o),
(54,584,cs),
(54,514,l),
(109,514,l),
(109,592,ls),
(109,702,o),
(137,774,o),
(254,774,cs),
(371,774,o),
(399,702,o),
(399,592,cs),
(399,421,l),
(54,421,l),
(54,230,ls),
(54,92,o),
(96,-11,o),
(254,-11,cs)
);
},
{
closed = 1;
nodes = (
(137,34,o),
(109,108,o),
(109,218,cs),
(109,376,l),
(399,376,l),
(399,218,l),
(399,108,o),
(370,34,o),
(254,34,cs)
);
}
);
width = 512;
}
);
metricLeft = "=O-4";
metricRight = O;
unicode = 399;
},
{
color = 4;
glyphname = Ezh;
kernLeft = Ezh;
kernRight = Ezh;
layers = (
{
anchors = (
{
name = bottom;
pos = (239,0);
},
{
name = top;
pos = (239,810);
}
);
guides = (
{
angle = 90;
pos = (422,356);
}
);
layerId = "6AC43539-1FDC-4B97-8460-9A098675B85D";
shapes = (
{
closed = 1;
nodes = (
(372,-11,o),
(418,83,o),
(418,242,cs),
(418,423,o),
(340,496,o),
(197,496,cs),
(126,496,l),
(144,460,l),
(378,776,l),
(378,810,l),
(79,810,l),
(79,767,l),
(314,767,l),
(114,497,l),
(114,454,l),
(194,454,ls),
(308,454,o),
(363,387,o),
(363,234,cs),
(363,133,o),
(350,32,o),
(231,32,cs),
(145,32,o),
(110,84,o),
(110,179,cs),
(110,181,o),
(110,192,o),
(110,195,c),
(60,195,l),
(60,180,l),
(60,63,o),
(108,-11,o),
(232,-11,cs)
);
}
);
width = 477;
},
{
anchors = (
{
name = bottom;
pos = (228,0);
},
{
name = top;
pos = (228,810);
}
);
layerId = "B4C1A060-68FB-4CB1-AF3F-8DCCE37557EC";
shapes = (
{
closed = 1;
nodes = (
(371,-9,o),
(428,85,o),
(428,229,cs),
(428,393,o),
(382,497,o),
(222,497,cs),
(157,497,l),
(176,460,l),
(392,761,l),
(392,810,l),
(47,810,l),
(47,729,l),
(256,729,l),
(85,499,l),
(85,433,l),
(170,433,ls),
(286,433,o),
(321,368,o),
(321,229,cs),
(321,140,o),
(305,80,o),
(228,80,cs),
(154,80,o),
(136,135,o),
(136,208,cs),
(136,214,o),
(136,220,o),
(136,226,c),
(30,226,l),
(30,199,ls),
(30,70,o),
(96,-9,o),
(228,-9,cs)
);
}
);
width = 456;
},
{
associatedMasterId = "6AC43539-1FDC-4B97-8460-9A098675B85D";
guides = (
{
angle = 90;
pos = (405,356);
}
);
layerId = "7A18B8B3-38EA-446C-BB7F-D9884F46335C";
name = "Oct 23 17, 15:12";
shapes = (
{
closed = 1;
nodes = (
(361,776,l),
(361,810,l),
(68,810,l),
(68,767,l),
(297,767,l),
(89,477,l),
(89,434,l),
(185,434,ls),
(311,434,o),
(346,357,o),
(346,215,cs),
(346,71,o),
(288,32,o),
(213,32,cs),
(128,32,o),
(93,85,o),
(93,179,cs),
(93,181,o),
(93,193,o),
(93,195,c),
(43,195,l),
(43,180,ls),
(43,65,o),
(91,-11,o),
(213,-11,cs),
(348,-11,o),
(401,83,o),
(401,216,cs),
(401,387,o),
(354,473,o),
(182,473,cs),
(148,473,l),
(148,477,l)
);
}
);
width = 440;
},
{
anchors = (
{
name = bottom;
pos = (252,0);
},
{
name = top;
pos = (252,810);
}
);
layerId = "249F2D81-707B-4084-8FA6-2290A2E02600";
shapes = (
{
closed = 1;
nodes = (
(408,-15,o),
(468,90,o),
(468,238,cs),
(468,386,o),
(429,493,o),
(266,493,cs),
(202,493,l),
(241,455,l),
(435,709,l),
(435,810,l),
(47,810,l),
(47,689,l),
(255,689,l),
(103,484,l),
(103,395,l),
(190,395,ls),
(285,395,o),
(303,351,o),
(303,234,cs),
(303,150,o),
(294,112,o),
(249,112,cs),
(204,112,o),
(190,147,o),
(190,239,cs),
(190,250,o),
(190,266,o),
(190,268,c),
(23,268,l),
(23,239,ls),
(23,88,o),
(77,-15,o),
(247,-15,cs)
);
}
);
width = 503;
}
);
unicode = 439;
},
{
glyphname = F;
kernLeft = H;
kernRight = F;
lastChange = "2025-05-07 12:24:44 +0000";
layers = (
{
anchors = (
{
name = bottom;
pos = (224,0);
},
{
name = top;
pos = (224,810);
}
);
layerId = "249F2D81-707B-4084-8FA6-2290A2E02600";
shapes = (
{
closed = 1;
nodes = (
(257,0,l),
(257,354,l),
(404,354,l),
(404,492,l),
(257,492,l),
(257,677,l),
(420,677,l),
(420,810,l),
(59,810,l),
(59,0,l)
);
}
);
width = 447;
},
{
anchors = (
{
name = bottom;
pos = (196,0);
},
{
name = top;
pos = (196,810);
}
);
layerId = "B4C1A060-68FB-4CB1-AF3F-8DCCE37557EC";
shapes = (
{
closed = 1;
nodes = (
(176,0,l),
(176,379,l),
(331,379,l),
(331,459,l),
(176,459,l),
(176,729,l),
(376,729,l),
(376,810,l),
(63,810,l),
(63,0,l)
);
}
);
width = 391;
},
{
anchors = (
{
name = bottom;
pos = (192,0);
},
{
name = top;
pos = (192,810);
}
);
layerId = "6AC43539-1FDC-4B97-8460-9A098675B85D";
shapes = (
{
closed = 1;
nodes = (
(129,0,l),
(129,399,l),
(323,399,l),
(323,441,l),
(129,441,l),
(129,767,l),
(354,767,l),
(354,810,l),
(75,810,l),
(75,0,l)
);
}
);
width = 383;
}
);
unicode = 70;
},
{
glyphname = G;
kernLeft = O;
kernRight = G;
lastChange = "2025-05-07 12:24:44 +0000";
layers = (
{
anchors = (
{
name = bottom;
pos = (298,0);
},
{
name = top;
pos = (298,810);
}
);
layerId = "249F2D81-707B-4084-8FA6-2290A2E02600";
shapes = (
{
closed = 1;
nodes = (
(344,-13,o),
(381,18,o),
(402,59,c),
(412,0,l),
(544,0,l),
(544,426,l),
(301,426,l),
(301,313,l),
(366,313,l),
(366,207,ls),
(366,171,o),
(353,125,o),
(308,125,cs),
(262,125,o),
(252,171,o),
(252,207,cs),
(252,604,ls),
(252,639,o),
(256,685,o),
(302,685,cs),
(348,685,o),
(349,640,o),
(349,604,cs),
(349,527,l),
(544,527,l),
(544,585,ls),
(544,720,o),
(487,822,o),
(300,822,cs),
(111,822,o),
(49,711,o),
(49,541,cs),
(49,269,ls),
(49,104,o),
(103,-13,o),
(275,-13,cs)
);
}
);
width = 595;
},
{
anchors = (
{
name = bottom;
pos = (268,0);
},
{
name = top;
pos = (268,810);
}
);
layerId = "B4C1A060-68FB-4CB1-AF3F-8DCCE37557EC";
shapes = (
{
closed = 1;
nodes = (
(336,-10,o),
(378,33,o),
(400,93,c),
(411,0,l),
(482,0,l),
(482,401,l),
(277,401,l),
(277,321,l),
(380,321,l),
(380,265,ls),
(380,143,o),
(358,80,o),
(270,80,cs),
(181,80,o),
(161,137,o),
(161,254,cs),
(161,554,ls),
(161,654,o),
(167,729,o),
(267,729,cs),
(358,729,o),
(370,681,o),
(370,576,cs),
(370,551,l),
(476,551,l),
(476,581,ls),
(476,741,o),
(417,817,o),
(265,817,cs),
(94,817,o),
(48,714,o),
(48,537,cs),
(48,266,ls),
(48,91,o),
(104,-10,o),
(256,-10,cs)
);
}
);
width = 535;
},
{
anchors = (
{
name = bottom;
pos = (255,0);
},
{
name = top;
pos = (255,810);
}
);
layerId = "6AC43539-1FDC-4B97-8460-9A098675B85D";
shapes = (
{
closed = 1;
nodes = (
(337,-11,o),
(380,28,o),
(400,91,c),
(408,0,l),
(443,0,l),
(443,386,l),
(263,386,l),
(263,344,l),
(392,344,l),
(392,225,ls),
(392,106,o),
(363,34,o),
(256,34,cs),
(141,34,o),
(113,110,o),
(113,228,cs),
(113,581,ls),
(113,694,o),
(136,774,o),
(255,774,cs),
(360,774,o),
(390,710,o),
(390,591,cs),
(390,560,l),
(442,560,l),
(442,588,ls),
(442,730,o),
(396,819,o),
(255,819,cs),
(99,819,o),
(58,721,o),
(58,579,cs),
(58,235,ls),
(58,92,o),
(98,-11,o),
(252,-11,cs)
);
}
);
width = 510;
}
);
unicode = 71;
},
{
glyphname = H;
kernLeft = H;
kernRight = H;
layers = (
{
anchors = (
{
name = bottom;
pos = (312,0);
},
{
name = center;
pos = (312,405);
},
{
name = top;
pos = (312,810);
},
{
name = topleft;
pos = (20,810);
}
);
layerId = "249F2D81-707B-4084-8FA6-2290A2E02600";
shapes = (
{
closed = 1;
nodes = (
(261,0,l),
(261,347,l),
(362,347,l),
(362,0,l),
(561,0,l),
(561,810,l),
(362,810,l),
(362,489,l),
(261,489,l),
(261,810,l),
(63,810,l),
(63,0,l)
);
}
);
width = 624;
},
{
anchors = (
{
name = bottom;
pos = (281,0);
},
{
name = center;
pos = (281,405);
},
{
name = top;
pos = (281,810);
},
{
name = topleft;
pos = (20,810);
}
);
layerId = "B4C1A060-68FB-4CB1-AF3F-8DCCE37557EC";
shapes = (
{
closed = 1;
nodes = (
(176,0,l),
(176,379,l),
(384,379,l),
(384,0,l),
(497,0,l),
(497,810,l),
(384,810,l),
(384,460,l),
(176,460,l),
(176,810,l),
(63,810,l),
(63,0,l)
);
}
);
width = 561;
},
{
anchors = (
{
name = bottom;
pos = (271,0);
},
{
name = center;
pos = (271,405);
},
{
name = top;
pos = (271,810);
},
{
name = topleft;
pos = (20,810);
}
);
layerId = "6AC43539-1FDC-4B97-8460-9A098675B85D";
shapes = (
{
closed = 1;
nodes = (
(129,0,l),
(129,403,l),
(413,403,l),
(413,0,l),
(467,0,l),
(467,810,l),
(413,810,l),
(413,445,l),
(129,445,l),
(129,810,l),
(74,810,l),
(74,0,l)
);
}
);
width = 542;
}
);
unicode = 72;
},
{
glyphname = Hbar;
kernLeft = H;
kernRight = H;
lastChange = "2025-05-07 12:24:44 +0000";
layers = (
{
layerId = "249F2D81-707B-4084-8FA6-2290A2E02600";
shapes = (
{
closed = 1;
nodes = (
(229,0,l),
(229,347,l),
(320,347,l),
(320,0,l),
(519,0,l),
(519,614,l),
(555,614,l),
(555,669,l),
(519,669,l),
(519,810,l),
(320,810,l),
(320,669,l),
(229,669,l),
(229,810,l),
(31,810,l),
(31,669,l),
(-21,669,l),
(-21,614,l),
(31,614,l),
(31,0,l)
);
},
{
closed = 1;
nodes = (
(229,614,l),
(320,614,l),
(320,489,l),
(229,489,l)
);
}
);
width = 534;
},
{
layerId = "B4C1A060-68FB-4CB1-AF3F-8DCCE37557EC";
shapes = (
{
closed = 1;
nodes = (
(176,0,l),
(176,379,l),
(384,379,l),
(384,0,l),
(497,0,l),
(497,619,l),
(544,619,l),
(544,677,l),
(497,677,l),
(497,810,l),
(384,810,l),
(384,677,l),
(176,677,l),
(176,810,l),
(63,810,l),
(63,677,l),
(16,677,l),
(16,619,l),
(63,619,l),
(63,0,l)
);
},
{
closed = 1;
nodes = (
(176,619,l),
(384,619,l),
(384,460,l),
(176,460,l)
);
}
);
width = 561;
},
{
layerId = "6AC43539-1FDC-4B97-8460-9A098675B85D";
shapes = (
{
closed = 1;
nodes = (
(129,0,l),
(129,403,l),
(413,403,l),
(413,0,l),
(467,0,l),
(467,640,l),
(505,640,l),
(505,672,l),
(467,672,l),
(467,810,l),
(413,810,l),
(413,672,l),
(129,672,l),
(129,810,l),
(74,810,l),
(74,672,l),
(37,672,l),
(37,640,l),
(74,640,l),
(74,0,l)
);
},
{
closed = 1;
nodes = (
(129,640,l),
(413,640,l),
(413,445,l),
(129,445,l)
);
}
);
width = 542;
}
);
unicode = 294;
},
{
glyphname = I;
kernLeft = H;
kernRight = H;
lastChange = "2025-05-07 12:24:44 +0000";
layers = (
{
anchors = (
{
name = bottom;
pos = (158,0);
},
{
name = ogonek;
pos = (158,0);
},
{
name = top;
pos = (158,810);
},
{
name = topleft;
pos = (20,810);
}
);
layerId = "249F2D81-707B-4084-8FA6-2290A2E02600";
shapes = (
{
closed = 1;
nodes = (
(257,0,l),
(257,810,l),
(59,810,l),
(59,0,l)
);
}
);
width = 316;
},
{
anchors = (
{
name = bottom;
pos = (124,0);
},
{
name = ogonek;
pos = (125,0);
},
{
name = top;
pos = (124,810);
},
{
name = topleft;
pos = (20,810);
}
);
layerId = "B4C1A060-68FB-4CB1-AF3F-8DCCE37557EC";
shapes = (
{
closed = 1;
nodes = (
(180,0,l),
(180,810,l),
(69,810,l),
(69,0,l)
);
}
);
width = 248;
},
{
anchors = (
{
name = bottom;
pos = (103,0);
},
{
name = ogonek;
pos = (103,0);
},
{
name = top;
pos = (103,810);
},
{
name = topleft;
pos = (20,810);
}
);
layerId = "6AC43539-1FDC-4B97-8460-9A098675B85D";
shapes = (
{
closed = 1;
nodes = (
(130,0,l),
(130,810,l),
(76,810,l),
(76,0,l)
);
}
);
width = 206;
}
);
unicode = 73;
},
{
glyphname = J;
kernLeft = J;
kernRight = J;
layers = (
{
anchors = (
{
name = bottom;
pos = (182,0);
},
{
name = top;
pos = (205,810);
}
);
layerId = "249F2D81-707B-4084-8FA6-2290A2E02600";
shapes = (
{
closed = 1;
nodes = (
(111,-21,ls),
(260,-21,o),
(301,47,o),
(304,177,c),
(304,810,l),
(106,810,l),
(106,186,ls),
(106,126,o),
(81,115,o),
(15,116,c),
(15,-21,l)
);
}
);
width = 363;
},
{
anchors = (
{
name = bottom;
pos = (151,0);
},
{
name = top;
pos = (181,810);
}
);
layerId = "B4C1A060-68FB-4CB1-AF3F-8DCCE37557EC";
shapes = (
{
closed = 1;
nodes = (
(61,-19,ls),
(201,-19,o),
(237,44,o),
(237,183,c),
(237,810,l),
(125,810,l),
(125,185,ls),
(125,83,o),
(105,62,o),
(7,62,c),
(7,-19,l)
);
}
);
width = 301;
},
{
anchors = (
{
name = bottom;
pos = (133,0);
},
{
name = top;
pos = (163,810);
}
);
layerId = "6AC43539-1FDC-4B97-8460-9A098675B85D";
shapes = (
{
closed = 1;
nodes = (
(36,-45,ls),
(172,-45,o),
(190,14,o),
(190,144,c),
(190,810,l),
(136,810,l),
(136,150,ls),
(136,21,o),
(127,-2,o),
(8,-2,c),
(8,-45,l)
);
}
);
width = 265;
}
);
unicode = 74;
},
{
glyphname = K;
kernLeft = H;
kernRight = K;
lastChange = "2025-05-07 12:24:44 +0000";
layers = (
{
anchors = (
{
name = bottom;
pos = (294,0);
},
{
name = top;
pos = (294,810);
}
);
layerId = "249F2D81-707B-4084-8FA6-2290A2E02600";
shapes = (
{
closed = 1;
nodes = (
(257,0,l),
(257,338,l),
(267,351,l),
(373,0,l),
(576,0,l),
(427,442,l),
(574,810,l),
(379,810,l),
(257,494,l),
(257,810,l),
(59,810,l),
(59,0,l)
);
}
);
width = 588;
},
{
associatedMasterId = "B4C1A060-68FB-4CB1-AF3F-8DCCE37557EC";
layerId = "0C4FD3E6-3AD5-46FC-A784-B14B96B40998";
name = "Regular Aug 24 16, 01:23";
shapes = (
{
closed = 1;
nodes = (
(176,0,l),
(176,319,l),
(220,401,l),
(383,0,l),
(493,0,l),
(307,453,l),
(467,810,l),
(362,810,l),
(176,428,l),
(176,810,l),
(63,810,l),
(63,0,l)
);
}
);
width = 495;
},
{
anchors = (
{
name = bottom;
pos = (248,0);
},
{
name = top;
pos = (248,810);
}
);
layerId = "B4C1A060-68FB-4CB1-AF3F-8DCCE37557EC";
shapes = (
{
closed = 1;
nodes = (
(176,0,l),
(176,286,l),
(228,380,l),
(383,0,l),
(493,0,l),
(307,453,l),
(467,810,l),
(362,810,l),
(176,428,l),
(176,810,l),
(63,810,l),
(63,0,l)
);
}
);
width = 495;
},
{
associatedMasterId = "6AC43539-1FDC-4B97-8460-9A098675B85D";
layerId = "F51D7ADC-C4EB-4E56-B70F-CDAE833E9024";
name = "Light Aug 24 16, 01:22";
shapes = (
{
closed = 1;
nodes = (
(129,0,l),
(129,290,l),
(208,434,l),
(405,0,l),
(459,0,l),
(247,467,l),
(418,810,l),
(364,810,l),
(129,355,l),
(129,810,l),
(74,810,l),
(74,0,l)
);
}
);
width = 460;
},
{
anchors = (
{
name = bottom;
pos = (230,0);
},
{
name = top;
pos = (230,810);
}
);
layerId = "6AC43539-1FDC-4B97-8460-9A098675B85D";
shapes = (
{
closed = 1;
nodes = (
(129,0,l),
(129,265,l),
(214,420,l),
(405,0,l),
(459,0,l),
(247,467,l),
(418,810,l),
(364,810,l),
(129,355,l),
(129,810,l),
(74,810,l),
(74,0,l)
);
}
);
width = 460;
}
);
unicode = 75;
},
{
glyphname = L;
kernLeft = H;
kernRight = L;
lastChange = "2025-05-07 12:24:44 +0000";
layers = (
{
anchors = (
{
name = bottom;
pos = (248,0);
},
{
name = center;
pos = (383,435);
},
{
name = top;
pos = (158,810);
},
{
name = topright;
pos = (307,810);
}
);
layerId = "249F2D81-707B-4084-8FA6-2290A2E02600";
shapes = (
{
closed = 1;
nodes = (
(437,0,l),
(437,132,l),
(257,132,l),
(257,810,l),
(59,810,l),
(59,0,l)
);
}
);
width = 456;
},
{
anchors = (
{
name = bottom;
pos = (223,0);
},
{
name = center;
pos = (199,405);
},
{
name = top;
pos = (120,810);
},
{
name = topright;
pos = (274,810);
}
);
layerId = "B4C1A060-68FB-4CB1-AF3F-8DCCE37557EC";
shapes = (
{
closed = 1;
nodes = (
(383,0,l),
(383,81,l),
(176,81,l),
(176,810,l),
(63,810,l),
(63,0,l)
);
}
);
width = 397;
},
{
anchors = (
{
name = bottom;
pos = (225,0);
},
{
name = center;
pos = (187,405);
},
{
name = top;
pos = (102,810);
},
{
name = topright;
pos = (309,810);
}
);
layerId = "6AC43539-1FDC-4B97-8460-9A098675B85D";
shapes = (
{
closed = 1;
nodes = (
(374,0,l),
(374,43,l),
(129,43,l),
(129,810,l),
(75,810,l),
(75,0,l)
);
}
);
width = 373;
}
);
unicode = 76;
},
{
glyphname = Lslash;
kernLeft = H;
kernRight = L;
lastChange = "2025-05-07 12:24:44 +0000";
layers = (
{
layerId = "249F2D81-707B-4084-8FA6-2290A2E02600";
shapes = (
{
closed = 1;
nodes = (
(447,0,l),
(447,132,l),
(267,132,l),
(267,443,l),
(364,487,l),
(364,588,l),
(267,544,l),
(267,810,l),
(69,810,l),
(69,454,l),
(12,428,l),
(12,327,l),
(69,353,l),
(69,0,l)
);
}
);
width = 466;
},
{
layerId = "B4C1A060-68FB-4CB1-AF3F-8DCCE37557EC";
shapes = (
{
closed = 1;
nodes = (
(383,0,l),
(383,81,l),
(176,81,l),
(176,440,l),
(281,498,l),
(281,584,l),
(176,527,l),
(176,810,l),
(63,810,l),
(63,464,l),
(-6,426,l),
(-6,339,l),
(63,377,l),
(63,0,l)
);
}
);
width = 397;
},
{
layerId = "6AC43539-1FDC-4B97-8460-9A098675B85D";
shapes = (
{
closed = 1;
nodes = (
(374,0,l),
(374,43,l),
(129,43,l),
(129,437,l),
(251,500,l),
(251,544,l),
(129,481,l),
(129,810,l),
(75,810,l),
(75,452,l),
(3,415,l),
(3,371,l),
(75,408,l),
(75,0,l)
);
}
);
width = 373;
}
);
unicode = 321;
},
{
glyphname = M;
kernLeft = M;
kernRight = M;
layers = (
{
anchors = (
{
name = bottom;
pos = (359,0);
},
{
name = top;
pos = (359,810);
}
);
layerId = "249F2D81-707B-4084-8FA6-2290A2E02600";
shapes = (
{
closed = 1;
nodes = (
(196,0,l),
(209,530,l),
(298,0,l),
(425,0,l),
(507,525,l),
(523,0,l),
(661,0,l),
(647,810,l),
(440,810,l),
(358,393,l),
(285,810,l),
(69,810,l),
(56,0,l)
);
}
);
width = 717;
},
{
anchors = (
{
name = bottom;
pos = (330,0);
},
{
name = top;
pos = (330,810);
}
);
layerId = "B4C1A060-68FB-4CB1-AF3F-8DCCE37557EC";
shapes = (
{
closed = 1;
nodes = (
(153,0,l),
(162,588,l),
(298,0,l),
(362,0,l),
(499,588,l),
(508,0,l),
(599,0,l),
(584,810,l),
(474,810,l),
(330,153,l),
(187,810,l),
(76,810,l),
(61,0,l)
);
}
);
width = 660;
},
{
anchors = (
{
name = bottom;
pos = (316,0);
},
{
name = top;
pos = (316,810);
}
);
layerId = "6AC43539-1FDC-4B97-8460-9A098675B85D";
shapes = (
{
closed = 1;
nodes = (
(112,0,l),
(132,678,l),
(295,0,l),
(335,0,l),
(500,679,l),
(520,0,l),
(567,0,l),
(544,810,l),
(488,810,l),
(314,79,l),
(143,810,l),
(89,810,l),
(65,0,l)
);
}
);
width = 632;
}
);
unicode = 77;
},
{
glyphname = N;
kernLeft = H;
kernRight = H;
lastChange = "2025-05-07 12:24:44 +0000";
layers = (
{
anchors = (
{
name = bottom;
pos = (285,0);
},
{
name = top;
pos = (285,810);
}
);
layerId = "249F2D81-707B-4084-8FA6-2290A2E02600";
shapes = (
{
closed = 1;
nodes = (
(229,0,l),
(229,381,l),
(375,0,l),
(511,0,l),
(511,810,l),
(347,810,l),
(347,463,l),
(199,810,l),
(59,810,l),
(59,0,l)
);
}
);
width = 570;
},
{
anchors = (
{
name = bottom;
pos = (264,0);
},
{
name = top;
pos = (264,810);
}
);
layerId = "B4C1A060-68FB-4CB1-AF3F-8DCCE37557EC";
shapes = (
{
closed = 1;
nodes = (
(159,0,l),
(159,553,l),
(392,0,l),
(464,0,l),
(464,810,l),
(370,810,l),
(370,272,l),
(140,810,l),
(63,810,l),
(63,0,l)
);
}
);
width = 528;
},
{
anchors = (
{
name = bottom;
pos = (258,0);
},
{
name = top;
pos = (258,810);
}
);
layerId = "6AC43539-1FDC-4B97-8460-9A098675B85D";
shapes = (
{
closed = 1;
nodes = (
(123,0,l),
(123,685,l),
(398,0,l),
(441,0,l),
(441,810,l),
(393,810,l),
(393,126,l),
(118,810,l),
(75,810,l),
(75,0,l)
);
}
);
width = 515;
}
);
unicode = 78;
},
{
glyphname = Eng;
kernLeft = H;
kernRight = J;
lastChange = "2025-05-07 12:24:44 +0000";
layers = (
{
layerId = "249F2D81-707B-4084-8FA6-2290A2E02600";
shapes = (
{
closed = 1;
nodes = (
(323,-216,ls),
(479,-216,o),
(516,-142,o),
(516,0,cs),
(516,810,l),
(352,810,l),
(352,463,l),
(204,810,l),
(63,810,l),
(63,0,l),
(233,0,l),
(233,381,l),
(362,86,l),
(362,-22,ls),
(362,-82,o),
(325,-103,o),
(239,-101,c),
(239,-216,l)
);
}
);
width = 579;
},
{
layerId = "B4C1A060-68FB-4CB1-AF3F-8DCCE37557EC";
shapes = (
{
closed = 1;
nodes = (
(305,-183,ls),
(434,-183,o),
(464,-120,o),
(464,0,cs),
(464,810,l),
(376,810,l),
(376,272,l),
(140,810,l),
(63,810,l),
(63,0,l),
(153,0,l),
(153,553,l),
(375,42,l),
(375,9,ls),
(375,-78,o),
(368,-106,o),
(267,-106,c),
(267,-183,l)
);
}
);
width = 531;
},
{
layerId = "6AC43539-1FDC-4B97-8460-9A098675B85D";
shapes = (
{
closed = 1;
nodes = (
(316,-141,ls),
(417,-141,o),
(441,-92,o),
(441,0,cs),
(441,810,l),
(395,810,l),
(395,126,l),
(118,810,l),
(75,810,l),
(75,0,l),
(121,0,l),
(121,685,l),
(393,12,l),
(393,-14,ls),
(393,-81,o),
(375,-104,o),
(286,-103,c),
(286,-141,l)
);
}
);
width = 538;
}
);
unicode = 330;
},
{
glyphname = O;
kernLeft = O;
kernRight = O;
layers = (
{
anchors = (
{
name = bottom;
pos = (300,0);
},
{
name = center;
pos = (300,405);
},
{
name = ogonek;
pos = (320,0);
},
{
name = top;
pos = (300,810);
},
{
name = topleft;
pos = (20,810);
},
{
name = topright;
pos = (373,810);
}
);
guides = (
{
angle = 90;
pos = (550,0);
}
);
layerId = "249F2D81-707B-4084-8FA6-2290A2E02600";
shapes = (
{
closed = 1;
nodes = (
(487,-13,o),
(550,86,o),
(550,255,cs),
(550,554,ls),
(550,724,o),
(487,822,o),
(299,822,cs),
(111,822,o),
(49,724,o),
(49,554,cs),
(49,255,ls),
(49,86,o),
(111,-13,o),
(299,-13,cs)
);
},
{
closed = 1;
nodes = (
(253,125,o),
(252,171,o),
(252,205,cs),
(252,605,ls),
(252,640,o),
(256,685,o),
(299,685,cs),
(344,685,o),
(347,640,o),
(347,605,cs),
(347,205,ls),
(347,171,o),
(344,125,o),
(299,125,cs)
);
}
);
width = 599;
},
{
anchors = (
{
name = bottom;
pos = (270,0);
},
{
name = center;
pos = (270,405);
},
{
name = ogonek;
pos = (310,0);
},
{
name = top;
pos = (270,810);
},
{
name = topleft;
pos = (20,810);
},
{
name = topright;
pos = (334,810);
}
);
guides = (
{
angle = 90;
pos = (491,0);
}
);
layerId = "B4C1A060-68FB-4CB1-AF3F-8DCCE37557EC";
shapes = (
{
closed = 1;
nodes = (
(433,-9,o),
(491,94,o),
(491,253,cs),
(491,561,ls),
(491,720,o),
(433,817,o),
(270,817,cs),
(106,817,o),
(48,721,o),
(48,561,cs),
(48,254,ls),
(48,93,o),
(105,-9,o),
(270,-9,cs)
);
},
{
closed = 1;
nodes = (
(179,80,o),
(162,139,o),
(162,229,cs),
(162,584,ls),
(162,674,o),
(179,729,o),
(270,729,cs),
(360,729,o),
(377,674,o),
(377,584,cs),
(377,229,ls),
(377,139,o),
(360,80,o),
(270,80,cs)
);
}
);
width = 539;
},
{
anchors = (
{
name = bottom;
pos = (258,0);
},
{
name = center;
pos = (258,405);
},
{
name = ogonek;
pos = (302,0);
},
{
name = top;
pos = (258,810);
},
{
name = topleft;
pos = (20,810);
},
{
name = topright;
pos = (333,810);
}
);
guides = (
{
angle = 90;
pos = (458,0);
}
);
layerId = "6AC43539-1FDC-4B97-8460-9A098675B85D";
shapes = (
{
closed = 1;
nodes = (
(416,-11,o),
(458,91,o),
(458,229,cs),
(458,584,ls),
(458,721,o),
(411,819,o),
(258,819,cs),
(104,819,o),
(58,722,o),
(58,584,cs),
(58,230,ls),
(58,92,o),
(100,-11,o),
(258,-11,cs)
);
},
{
closed = 1;
nodes = (
(141,34,o),
(113,108,o),
(113,218,cs),
(113,592,ls),
(113,702,o),
(141,774,o),
(258,774,cs),
(375,774,o),
(403,702,o),
(403,592,cs),
(403,218,ls),
(403,108,o),
(374,34,o),
(258,34,cs)
);
}
);
width = 516;
}
);
unicode = 79;
},
{
glyphname = Oslash;
kernLeft = O;
kernRight = O;
lastChange = "2025-05-07 12:24:44 +0000";
layers = (
{
anchors = (
{
name = bottom;
pos = (291,0);
},
{
name = top;
pos = (291,810);
}
);
layerId = "249F2D81-707B-4084-8FA6-2290A2E02600";
shapes = (
{
closed = 1;
nodes = (
(499,869,l),
(459,885,l),
(69,-78,l),
(108,-95,l)
);
},
{
alignment = -1;
ref = O;
}
);
width = 581;
},
{
anchors = (
{
name = bottom;
pos = (270,0);
},
{
name = top;
pos = (270,810);
}
);
layerId = "B4C1A060-68FB-4CB1-AF3F-8DCCE37557EC";
shapes = (
{
closed = 1;
nodes = (
(413,870,l),
(373,880,l),
(121,-62,l),
(160,-74,l)
);
},
{
alignment = -1;
ref = O;
}
);
width = 540;
},
{
anchors = (
{
name = bottom;
pos = (262,0);
},
{
name = top;
pos = (262,810);
}
);
layerId = "6AC43539-1FDC-4B97-8460-9A098675B85D";
shapes = (
{
closed = 1;
nodes = (
(413,889,l),
(388,896,l),
(104,-87,l),
(129,-95,l)
);
},
{
alignment = -1;
ref = O;
}
);
width = 523;
}
);
unicode = 216;
},
{
glyphname = OE;
kernLeft = O;
kernRight = E;
lastChange = "2025-05-07 12:24:44 +0000";
layers = (
{
anchors = (
{
name = bottom;
pos = (364,0);
},
{
name = top;
pos = (444,810);
}
);
layerId = "249F2D81-707B-4084-8FA6-2290A2E02600";
shapes = (
{
closed = 1;
nodes = (
(702,0,l),
(702,132,l),
(542,132,l),
(542,349,l),
(656,349,l),
(656,487,l),
(542,487,l),
(542,673,l),
(702,673,l),
(702,806,l),
(297,806,l),
(108,805,o),
(49,674,o),
(49,512,cs),
(49,287,ls),
(49,117,o),
(112,0,o),
(297,0,cs)
);
},
{
closed = 1;
nodes = (
(297,135,l),
(250,134,o),
(247,199,o),
(247,239,cs),
(247,560,ls),
(247,599,o),
(250,666,o),
(297,666,cs),
(345,666,l),
(345,135,l)
);
}
);
width = 728;
},
{
anchors = (
{
name = bottom;
pos = (342,0);
},
{
name = top;
pos = (401,810);
}
);
layerId = "B4C1A060-68FB-4CB1-AF3F-8DCCE37557EC";
shapes = (
{
closed = 1;
nodes = (
(656,0,l),
(656,81,l),
(457,81,l),
(457,378,l),
(617,378,l),
(617,459,l),
(457,459,l),
(457,726,l),
(654,726,l),
(654,810,l),
(280,810,l),
(110,810,o),
(48,718,o),
(48,546,cs),
(48,247,ls),
(48,82,o),
(107,0,o),
(288,0,cs)
);
},
{
closed = 1;
nodes = (
(290,84,l),
(174,84,o),
(162,136,o),
(162,259,cs),
(162,525,ls),
(162,657,o),
(165,729,o),
(288,729,cs),
(344,729,l),
(344,84,l)
);
}
);
width = 683;
},
{
anchors = (
{
name = bottom;
pos = (310,0);
},
{
name = top;
pos = (366,810);
}
);
layerId = "6AC43539-1FDC-4B97-8460-9A098675B85D";
shapes = (
{
closed = 1;
nodes = (
(590,0,l),
(590,45,l),
(393,45,l),
(393,402,l),
(557,402,l),
(557,445,l),
(393,445,l),
(393,765,l),
(589,765,l),
(589,810,l),
(264,810,l),
(109,810,o),
(58,714,o),
(58,577,cs),
(58,229,ls),
(58,98,o),
(104,0,o),
(267,0,cs)
);
},
{
closed = 1;
nodes = (
(267,46,l),
(144,46,o),
(112,117,o),
(112,229,cs),
(112,574,ls),
(112,690,o),
(141,765,o),
(267,765,cs),
(338,765,l),
(338,46,l)
);
}
);
width = 620;
}
);
unicode = 338;
},
{
glyphname = P;
kernLeft = H;
kernRight = P;
lastChange = "2025-05-07 12:24:44 +0000";
layers = (
{
anchors = (
{
name = bottom;
pos = (299,0);
},
{
name = top;
pos = (299,810);
}
);
layerId = "249F2D81-707B-4084-8FA6-2290A2E02600";
shapes = (
{
closed = 1;
nodes = (
(257,0,l),
(257,334,l),
(324,334,ls),
(455,334,o),
(569,368,o),
(569,572,cs),
(569,725,o),
(497,810,o),
(352,810,cs),
(59,810,l),
(59,0,l)
);
},
{
closed = 1;
nodes = (
(257,671,l),
(318,671,ls),
(378,671,o),
(383,621,o),
(383,576,cs),
(383,510,o),
(377,472,o),
(320,472,cs),
(257,472,l)
);
}
);
width = 597;
},
{
anchors = (
{
name = bottom;
pos = (240,0);
},
{
name = top;
pos = (240,810);
}
);
layerId = "B4C1A060-68FB-4CB1-AF3F-8DCCE37557EC";
shapes = (
{
closed = 1;
nodes = (
(176,0,l),
(176,377,l),
(265,377,ls),
(397,377,o),
(464,457,o),
(464,586,cs),
(464,727,o),
(409,810,o),
(264,810,cs),
(63,810,l),
(63,0,l)
);
},
{
closed = 1;
nodes = (
(176,729,l),
(229,729,ls),
(342,729,o),
(357,700,o),
(357,585,cs),
(357,485,o),
(325,458,o),
(228,458,cs),
(176,458,l)
);
}
);
width = 480;
},
{
anchors = (
{
name = bottom;
pos = (243,0);
},
{
name = top;
pos = (243,810);
}
);
layerId = "6AC43539-1FDC-4B97-8460-9A098675B85D";
shapes = (
{
closed = 1;
nodes = (
(129,0,l),
(129,387,l),
(266,387,ls),
(410,387,o),
(453,493,o),
(453,601,cs),
(453,721,o),
(411,810,o),
(265,810,cs),
(75,810,l),
(75,0,l)
);
},
{
closed = 1;
nodes = (
(129,768,l),
(255,768,ls),
(358,768,o),
(397,731,o),
(397,601,cs),
(397,475,o),
(352,429,o),
(254,429,cs),
(129,429,l)
);
}
);
width = 485;
}
);
unicode = 80;
},
{
glyphname = Thorn;
kernLeft = H;
lastChange = "2025-05-07 12:24:44 +0000";
layers = (
{
layerId = "249F2D81-707B-4084-8FA6-2290A2E02600";
shapes = (
{
closed = 1;
nodes = (
(247,0,l),
(247,234,l),
(307,234,l),
(482,236,o),
(565,276,o),
(565,479,cs),
(565,646,o),
(481,701,o),
(313,701,cs),
(247,701,l),
(247,810,l),
(48,810,l),
(48,0,l)
);
},
{
closed = 1;
nodes = (
(247,562,l),
(302,562,ls),
(364,562,o),
(386,531,o),
(386,468,cs),
(386,400,o),
(364,372,o),
(300,372,cs),
(247,372,l)
);
}
);
width = 579;
},
{
layerId = "B4C1A060-68FB-4CB1-AF3F-8DCCE37557EC";
shapes = (
{
closed = 1;
nodes = (
(176,0,l),
(176,233,l),
(274,233,ls),
(419,233,o),
(486,317,o),
(486,469,cs),
(486,611,o),
(428,704,o),
(293,704,cs),
(176,704,l),
(176,810,l),
(63,810,l),
(63,0,l)
);
},
{
closed = 1;
nodes = (
(176,610,l),
(259,610,ls),
(343,610,o),
(376,573,o),
(376,469,cs),
(376,356,o),
(335,324,o),
(246,324,cs),
(176,324,l)
);
}
);
width = 503;
},
{
layerId = "6AC43539-1FDC-4B97-8460-9A098675B85D";
shapes = (
{
closed = 1;
nodes = (
(129,0,l),
(129,250,l),
(276,250,ls),
(435,250,o),
(472,379,o),
(472,485,cs),
(472,602,o),
(424,706,o),
(281,706,cs),
(129,706,l),
(129,810,l),
(75,810,l),
(75,0,l)
);
},
{
closed = 1;
nodes = (
(129,659,l),
(272,659,ls),
(360,659,o),
(416,610,o),
(416,483,cs),
(416,353,o),
(368,298,o),
(268,298,cs),
(129,298,l)
);
}
);
width = 505;
}
);
unicode = 222;
},
{
glyphname = Q;
kernLeft = O;
kernRight = O;
lastChange = "2025-05-07 12:24:44 +0000";
layers = (
{
anchors = (
{
name = bottom;
pos = (300,0);
},
{
name = top;
pos = (300,810);
}
);
layerId = "249F2D81-707B-4084-8FA6-2290A2E02600";
shapes = (
{
closed = 1;
nodes = (
(530,-47,l),
(502,-33,o),
(473,-7,o),
(447,20,c),
(522,61,o),
(550,143,o),
(550,255,cs),
(550,554,ls),
(550,724,o),
(487,822,o),
(299,822,cs),
(111,822,o),
(49,724,o),
(49,554,cs),
(49,255,ls),
(49,86,o),
(111,-13,o),
(299,-13,cs),
(304,-13,o),
(310,-12,o),
(315,-12,c),
(358,-79,o),
(445,-141,o),
(487,-158,c)
);
},
{
closed = 1;
nodes = (
(253,125,o),
(252,171,o),
(252,205,cs),
(252,605,ls),
(252,640,o),
(253,685,o),
(299,685,cs),
(344,685,o),
(347,640,o),
(347,605,cs),
(347,205,ls),
(347,171,o),
(344,125,o),
(299,125,cs)
);
}
);
width = 599;
},
{
anchors = (
{
name = bottom;
pos = (271,0);
},
{
name = top;
pos = (271,810);
}
);
layerId = "B4C1A060-68FB-4CB1-AF3F-8DCCE37557EC";
shapes = (
{
closed = 1;
nodes = (
(453,-75,l),
(428,-58,o),
(397,-21,o),
(373,10,c),
(459,46,o),
(492,134,o),
(492,253,cs),
(492,561,ls),
(492,720,o),
(433,817,o),
(270,817,cs),
(106,817,o),
(48,721,o),
(48,561,cs),
(48,254,ls),
(48,93,o),
(105,-9,o),
(270,-9,cs),
(277,-9,o),
(283,-8,o),
(289,-8,c),
(327,-64,o),
(381,-137,o),
(435,-164,c)
);
},
{
closed = 1;
nodes = (
(179,80,o),
(162,139,o),
(162,229,cs),
(162,584,ls),
(162,674,o),
(179,729,o),
(270,729,cs),
(361,729,o),
(378,674,o),
(378,584,cs),
(378,229,ls),
(378,139,o),
(361,80,o),
(270,80,cs)
);
}
);
width = 541;
},
{
anchors = (
{
name = bottom;
pos = (262,0);
},
{
name = top;
pos = (262,810);
}
);
layerId = "6AC43539-1FDC-4B97-8460-9A098675B85D";
shapes = (
{
closed = 1;
nodes = (
(434,-107,l),
(408,-90,o),
(359,-35,o),
(333,-1,c),
(434,25,o),
(465,115,o),
(465,229,cs),
(465,584,ls),
(465,721,o),
(415,819,o),
(261,819,cs),
(108,819,o),
(58,722,o),
(58,584,cs),
(58,230,ls),
(58,92,o),
(103,-11,o),
(261,-11,cs),
(271,-11,o),
(281,-10,o),
(291,-9,c),
(339,-77,o),
(391,-137,o),
(429,-156,c)
);
},
{
closed = 1;
nodes = (
(145,34,o),
(113,108,o),
(113,218,cs),
(113,592,ls),
(113,702,o),
(145,774,o),
(261,774,cs),
(378,774,o),
(410,702,o),
(410,592,cs),
(410,218,ls),
(410,108,o),
(377,34,o),
(261,34,cs)
);
}
);
width = 523;
}
);
unicode = 81;
},
{
glyphname = R;
kernLeft = H;
kernRight = R;
lastChange = "2025-05-07 12:24:44 +0000";
layers = (
{
anchors = (
{
name = bottom;
pos = (312,0);
},
{
name = top;
pos = (312,810);
}
);
layerId = "249F2D81-707B-4084-8FA6-2290A2E02600";
shapes = (
{
closed = 1;
nodes = (
(257,0,l),
(257,358,l),
(298,358,l),
(382,0,l),
(589,0,l),
(479,388,l),
(561,430,o),
(578,495,o),
(578,596,cs),
(578,771,o),
(463,810,o),
(300,810,cs),
(59,810,l),
(59,0,l)
);
},
{
closed = 1;
nodes = (
(257,679,l),
(318,679,ls),
(376,679,o),
(395,637,o),
(395,575,cs),
(395,513,o),
(378,467,o),
(309,467,cs),
(257,467,l)
);
}
);
width = 624;
},
{
anchors = (
{
name = bottom;
pos = (260,0);
},
{
name = top;
pos = (260,810);
}
);
layerId = "B4C1A060-68FB-4CB1-AF3F-8DCCE37557EC";
shapes = (
{
closed = 1;
nodes = (
(176,0,l),
(176,380,l),
(264,380,l),
(370,0,l),
(479,0,l),
(364,406,l),
(436,430,o),
(464,500,o),
(464,595,cs),
(464,749,o),
(388,810,o),
(226,810,cs),
(63,810,l),
(63,0,l)
);
},
{
closed = 1;
nodes = (
(176,729,l),
(226,729,ls),
(329,729,o),
(355,690,o),
(355,595,cs),
(355,491,o),
(314,461,o),
(219,461,cs),
(176,461,l)
);
}
);
width = 519;
},
{
anchors = (
{
name = bottom;
pos = (254,0);
},
{
name = top;
pos = (254,810);
}
);
layerId = "6AC43539-1FDC-4B97-8460-9A098675B85D";
shapes = (
{
closed = 1;
nodes = (
(129,0,l),
(129,408,l),
(280,408,l),
(406,0,l),
(460,0,l),
(330,418,l),
(428,434,o),
(449,519,o),
(449,610,cs),
(449,722,o),
(415,810,o),
(271,810,cs),
(75,810,l),
(75,0,l)
);
},
{
closed = 1;
nodes = (
(129,767,l),
(268,767,ls),
(370,767,o),
(396,713,o),
(396,610,cs),
(396,511,o),
(372,450,o),
(269,450,cs),
(129,450,l)
);
}
);
width = 508;
}
);
unicode = 82;
},
{
glyphname = S;
kernLeft = S;
kernRight = S;
layers = (
{
anchors = (
{
name = bottom;
pos = (263,0);
},
{
name = top;
pos = (263,810);
}
);
layerId = "249F2D81-707B-4084-8FA6-2290A2E02600";
shapes = (
{
closed = 1;
nodes = (
(415,-13,o),
(498,81,o),
(498,194,cs),
(498,309,o),
(441,378,o),
(370,442,cs),
(323,483,ls),
(283,519,o),
(237,554,o),
(237,623,cs),
(237,642,o),
(247,679,o),
(274,679,cs),
(309,679,o),
(310,639,o),
(310,569,c),
(482,586,l),
(481,667,o),
(467,822,o),
(281,822,cs),
(135,822,o),
(43,745,o),
(43,603,cs),
(43,492,o),
(98,437,o),
(161,382,cs),
(212,339,ls),
(269,291,o),
(302,251,o),
(302,185,cs),
(302,167,o),
(300,137,o),
(269,137,cs),
(237,137,o),
(212,162,o),
(211,272,c),
(43,250,l),
(48,58,o),
(124,-13,o),
(281,-13,cs)
);
}
);
width = 526;
},
{
anchors = (
{
name = bottom;
pos = (237,0);
},
{
name = top;
pos = (237,810);
}
);
layerId = "B4C1A060-68FB-4CB1-AF3F-8DCCE37557EC";
shapes = (
{
closed = 1;
nodes = (
(367,-9,o),
(448,64,o),
(448,184,cs),
(448,285,o),
(392,356,o),
(332,411,cs),
(195,531,ls),
(158,565,o),
(142,592,o),
(142,641,cs),
(142,700,o),
(175,726,o),
(231,730,cs),
(315,735,o),
(333,662,o),
(339,582,c),
(435,608,l),
(422,750,o),
(362,819,o),
(231,817,cs),
(114,816,o),
(41,749,o),
(41,630,cs),
(41,549,o),
(66,499,o),
(119,451,cs),
(255,331,ls),
(305,285,o),
(343,248,o),
(343,175,cs),
(343,113,o),
(312,80,o),
(254,80,cs),
(167,80,o),
(145,167,o),
(139,254,c),
(39,227,l),
(47,87,o),
(113,-9,o),
(254,-9,cs)
);
}
);
width = 473;
},
{
anchors = (
{
name = bottom;
pos = (226,0);
},
{
name = top;
pos = (226,810);
}
);
layerId = "6AC43539-1FDC-4B97-8460-9A098675B85D";
shapes = (
{
closed = 1;
nodes = (
(343,-10,o),
(418,46,o),
(418,168,cs),
(418,254,o),
(363,326,o),
(298,390,cs),
(152,534,ls),
(108,579,o),
(93,616,o),
(93,657,cs),
(93,739,o),
(148,774,o),
(222,775,cs),
(319,777,o),
(354,719,o),
(363,605,c),
(409,616,l),
(399,769,o),
(332,819,o),
(221,819,c),
(115,818,o),
(43,760,o),
(43,653,cs),
(43,600,o),
(64,549,o),
(114,499,cs),
(262,352,ls),
(328,286,o),
(367,236,o),
(367,165,cs),
(367,72,o),
(318,35,o),
(238,35,cs),
(132,35,o),
(103,108,o),
(89,215,c),
(42,200,l),
(52,72,o),
(109,-10,o),
(237,-10,cs)
);
}
);
width = 452;
}
);
unicode = 83;
},
{
glyphname = Germandbls;
layers = (
{
associatedMasterId = "249F2D81-707B-4084-8FA6-2290A2E02600";
layerId = "191038F9-5A4E-4DAE-A645-B8C814840394";
name = "Bold Aug 22 16, 15:33";
shapes = (
{
closed = 1;
nodes = (
(263,-17,l),
(428,-17,o),
(535,46,o),
(535,225,cs),
(535,319,o),
(470,399,o),
(362,431,c),
(453,465,o),
(486,529,o),
(486,602,cs),
(486,740,o),
(419,823,o),
(260,823,cs),
(95,823,o),
(42,703,o),
(42,594,cs),
(42,0,l),
(221,0,l),
(221,594,l),
(219,658,o),
(233,703,o),
(275,703,cs),
(307,703,o),
(338,672,o),
(338,598,cs),
(338,515,o),
(312,480,o),
(272,480,c),
(273,345,l),
(313,345,o),
(352,305,o),
(356,250,cs),
(365,147,o),
(321,117,o),
(263,117,c)
);
}
);
width = 600;
},
{
layerId = "249F2D81-707B-4084-8FA6-2290A2E02600";
shapes = (
{
closed = 1;
nodes = (
(338,-13,ls),
(514,-13,o),
(612,61,o),
(612,237,cs),
(612,379,o),
(534,457,o),
(373,457,c),
(446,397,l),
(572,636,l),
(572,763,l),
(506,799,o),
(434,822,o),
(338,822,cs),
(141,822,o),
(54,714,o),
(54,557,cs),
(54,0,l),
(253,0,l),
(253,562,ls),
(253,642,o),
(286,685,o),
(359,685,cs),
(386,685,o),
(409,679,o),
(427,670,c),
(324,472,l),
(325,345,l),
(329,345,ls),
(394,345,o),
(421,305,o),
(421,233,cs),
(421,158,o),
(386,121,o),
(329,121,cs),
(315,121,l),
(315,-13,l)
);
}
);
width = 646;
},
{
layerId = "B4C1A060-68FB-4CB1-AF3F-8DCCE37557EC";
shapes = (
{
closed = 1;
nodes = (
(308,-9,ls),
(437,-9,o),
(509,62,o),
(509,230,cs),
(509,375,o),
(445,453,o),
(313,453,c),
(328,407,l),
(480,687,l),
(480,776,l),
(431,801,o),
(376,817,o),
(304,817,cs),
(132,817,o),
(56,711,o),
(56,557,cs),
(56,0,l),
(169,0,l),
(169,562,ls),
(169,671,o),
(213,729,o),
(309,729,cs),
(344,729,o),
(374,724,o),
(397,716,c),
(264,472,l),
(265,386,l),
(288,386,ls),
(364,386,o),
(401,341,o),
(401,227,cs),
(401,115,o),
(364,72,o),
(288,72,cs),
(254,72,l),
(254,-9,l)
);
}
);
width = 539;
},
{
layerId = "6AC43539-1FDC-4B97-8460-9A098675B85D";
shapes = (
{
closed = 1;
nodes = (
(274,-9,ls),
(395,-9,o),
(462,72,o),
(462,230,cs),
(462,385,o),
(395,469,o),
(258,469,c),
(264,439,l),
(446,733,l),
(446,778,l),
(397,803,o),
(342,819,o),
(270,819,cs),
(135,819,o),
(62,733,o),
(62,607,cs),
(62,0,l),
(117,0,l),
(117,612,ls),
(117,718,o),
(177,774,o),
(275,774,cs),
(325,774,o),
(367,763,o),
(400,746,c),
(230,472,l),
(231,427,l),
(254,427,ls),
(357,427,o),
(407,370,o),
(407,227,cs),
(407,89,o),
(357,36,o),
(254,36,cs),
(220,36,l),
(220,-9,l)
);
}
);
width = 498;
}
);
unicode = 7838;
},
{
glyphname = T;
kernLeft = T;
kernRight = T;
layers = (
{
anchors = (
{
name = bottom;
pos = (230,0);
},
{
name = center;
pos = (230,405);
},
{
name = top;
pos = (230,810);
}
);
layerId = "249F2D81-707B-4084-8FA6-2290A2E02600";
shapes = (
{
closed = 1;
nodes = (
(330,0,l),
(330,663,l),
(447,663,l),
(447,810,l),
(13,810,l),
(13,663,l),
(131,663,l),
(131,0,l)
);
}
);
width = 460;
},
{
anchors = (
{
name = bottom;
pos = (200,0);
},
{
name = center;
pos = (200,405);
},
{
name = top;
pos = (200,810);
}
);
layerId = "B4C1A060-68FB-4CB1-AF3F-8DCCE37557EC";
shapes = (
{
closed = 1;
nodes = (
(259,0,l),
(259,726,l),
(402,726,l),
(402,810,l),
(-1,810,l),
(-1,726,l),
(146,726,l),
(146,0,l)
);
}
);
width = 400;
},
{
anchors = (
{
name = bottom;
pos = (190,0);
},
{
name = center;
pos = (190,405);
},
{
name = top;
pos = (190,810);
}
);
layerId = "6AC43539-1FDC-4B97-8460-9A098675B85D";
shapes = (
{
closed = 1;
nodes = (
(219,0,l),
(219,766,l),
(387,766,l),
(387,810,l),
(-7,810,l),
(-7,766,l),
(165,766,l),
(165,0,l)
);
}
);
width = 380;
}
);
unicode = 84;
},
{
glyphname = Tbar;
kernLeft = T;
kernRight = T;
lastChange = "2025-05-07 12:24:44 +0000";
layers = (
{
layerId = "249F2D81-707B-4084-8FA6-2290A2E02600";
shapes = (
{
closed = 1;
nodes = (
(419,363,l),
(419,456,l),
(47,456,l),
(47,363,l)
);
},
{
alignment = -1;
ref = T;
}
);
width = 460;
},
{
layerId = "B4C1A060-68FB-4CB1-AF3F-8DCCE37557EC";
shapes = (
{
closed = 1;
nodes = (
(359,391,l),
(359,455,l),
(41,455,l),
(41,391,l)
);
},
{
alignment = -1;
ref = T;
}
);
width = 400;
},
{
layerId = "6AC43539-1FDC-4B97-8460-9A098675B85D";
shapes = (
{
closed = 1;
nodes = (
(335,417,l),
(335,454,l),
(42,454,l),
(42,417,l)
);
},
{
alignment = -1;
ref = T;
}
);
width = 380;
}
);
unicode = 358;
},
{
glyphname = U;
kernLeft = U;
kernRight = U;
layers = (
{
anchors = (
{
name = bottom;
pos = (301,0);
},
{
name = ogonek;
pos = (321,0);
},
{
name = top;
pos = (301,810);
},
{
name = topright;
pos = (439,810);
}
);
layerId = "249F2D81-707B-4084-8FA6-2290A2E02600";
shapes = (
{
closed = 1;
nodes = (
(489,-13,o),
(547,75,o),
(547,245,cs),
(547,810,l),
(349,810,l),
(349,211,ls),
(349,176,o),
(346,128,o),
(300,128,cs),
(254,128,o),
(251,176,o),
(251,211,cs),
(251,810,l),
(54,810,l),
(54,245,ls),
(54,75,o),
(111,-13,o),
(300,-13,cs)
);
}
);
width = 601;
},
{
anchors = (
{
name = bottom;
pos = (272,0);
},
{
name = ogonek;
pos = (312,0);
},
{
name = top;
pos = (272,810);
},
{
name = topright;
pos = (422,810);
}
);
layerId = "B4C1A060-68FB-4CB1-AF3F-8DCCE37557EC";
shapes = (
{
closed = 1;
nodes = (
(448,-9,o),
(487,103,o),
(487,273,cs),
(487,810,l),
(380,810,l),
(380,268,ls),
(380,163,o),
(367,80,o),
(272,80,cs),
(177,80,o),
(164,163,o),
(164,268,cs),
(164,810,l),
(56,810,l),
(56,273,ls),
(56,103,o),
(95,-9,o),
(272,-9,cs)
);
}
);
width = 543;
},
{
anchors = (
{
name = bottom;
pos = (267,0);
},
{
name = ogonek;
pos = (317,0);
},
{
name = top;
pos = (267,810);
},
{
name = topright;
pos = (437,810);
}
);
layerId = "6AC43539-1FDC-4B97-8460-9A098675B85D";
shapes = (
{
closed = 1;
nodes = (
(418,-11,o),
(468,76,o),
(468,190,cs),
(468,810,l),
(415,810,l),
(415,189,ls),
(415,101,o),
(377,34,o),
(267,34,cs),
(150,34,o),
(119,100,o),
(119,189,cs),
(119,810,l),
(65,810,l),
(65,190,ls),
(65,76,o),
(108,-11,o),
(267,-11,cs)
);
}
);
width = 533;
}
);
unicode = 85;
},
{
glyphname = V;
layers = (
{
anchors = (
{
name = bottom;
pos = (266,0);
},
{
name = top;
pos = (266,810);
}
);
layerId = "249F2D81-707B-4084-8FA6-2290A2E02600";
shapes = (
{
closed = 1;
nodes = (
(373,0,l),
(512,810,l),
(333,810,l),
(264,274,l),
(188,810,l),
(22,810,l),
(158,0,l)
);
}
);
width = 532;
},
{
anchors = (
{
name = bottom;
pos = (253,0);
},
{
name = top;
pos = (253,810);
}
);
layerId = "B4C1A060-68FB-4CB1-AF3F-8DCCE37557EC";
shapes = (
{
closed = 1;
nodes = (
(303,0,l),
(482,810,l),
(379,810,l),
(257,213,l),
(129,810,l),
(23,810,l),
(204,0,l)
);
}
);
width = 505;
},
{
anchors = (
{
name = bottom;
pos = (240,0);
},
{
name = top;
pos = (240,810);
}
);
layerId = "6AC43539-1FDC-4B97-8460-9A098675B85D";
shapes = (
{
closed = 1;
nodes = (
(271,0,l),
(456,810,l),
(403,810,l),
(246,95,l),
(78,810,l),
(24,810,l),
(220,0,l)
);
}
);
width = 480;
}
);
unicode = 86;
},
{
glyphname = W;
kernLeft = W;
kernRight = W;
layers = (
{
anchors = (
{
name = bottom;
pos = (344,0);
},
{
name = top;
pos = (344,810);
}
);
layerId = "249F2D81-707B-4084-8FA6-2290A2E02600";
shapes = (
{
closed = 1;
nodes = (
(291,0,l),
(342,457,l),
(398,0,l),
(576,0,l),
(663,810,l),
(497,810,l),
(458,375,l),
(407,810,l),
(277,810,l),
(230,370,l),
(193,810,l),
(25,810,l),
(112,0,l)
);
}
);
width = 688;
},
{
anchors = (
{
name = bottom;
pos = (365,0);
},
{
name = top;
pos = (365,810);
}
);
layerId = "B4C1A060-68FB-4CB1-AF3F-8DCCE37557EC";
shapes = (
{
closed = 1;
nodes = (
(254,0,l),
(368,600,l),
(481,0,l),
(563,0,l),
(693,810,l),
(601,810,l),
(516,225,l),
(406,807,l),
(326,807,l),
(217,228,l),
(130,810,l),
(36,810,l),
(168,0,l)
);
}
);
width = 729;
},
{
anchors = (
{
name = bottom;
pos = (353,0);
},
{
name = top;
pos = (353,810);
}
);
layerId = "6AC43539-1FDC-4B97-8460-9A098675B85D";
shapes = (
{
closed = 1;
nodes = (
(222,0,l),
(357,709,l),
(495,0,l),
(541,0,l),
(672,810,l),
(625,810,l),
(517,107,l),
(383,792,l),
(331,792,l),
(201,107,l),
(82,810,l),
(34,809,l),
(175,0,l)
);
}
);
width = 706;
}
);
unicode = 87;
},
{
glyphname = X;
layers = (
{
anchors = (
{
name = bottom;
pos = (262,0);
},
{
name = top;
pos = (262,810);
}
);
layerId = "249F2D81-707B-4084-8FA6-2290A2E02600";
shapes = (
{
closed = 1;
nodes = (
(166,0,l),
(245,224,l),
(334,0,l),
(520,0,l),
(369,382,l),
(502,810,l),
(340,810,l),
(280,610,l),
(201,810,l),
(13,810,l),
(159,440,l),
(5,0,l)
);
}
);
width = 524;
},
{
anchors = (
{
name = bottom;
pos = (241,0);
},
{
name = top;
pos = (241,810);
}
);
layerId = "B4C1A060-68FB-4CB1-AF3F-8DCCE37557EC";
shapes = (
{
closed = 1;
nodes = (
(118,0,l),
(232,305,l),
(364,0,l),
(469,0,l),
(291,415,l),
(461,810,l),
(356,810,l),
(244,524,l),
(121,810,l),
(16,810,l),
(182,424,l),
(13,0,l)
);
}
);
width = 482;
},
{
anchors = (
{
name = bottom;
pos = (226,0);
},
{
name = top;
pos = (226,810);
}
);
layerId = "6AC43539-1FDC-4B97-8460-9A098675B85D";
shapes = (
{
closed = 1;
nodes = (
(69,0,l),
(218,364,l),
(385,0,l),
(438,0,l),
(249,412,l),
(434,810,l),
(380,810,l),
(225,464,l),
(66,810,l),
(16,810,l),
(193,420,l),
(15,0,l)
);
}
);
width = 452;
}
);
unicode = 88;
},
{
glyphname = Y;
kernLeft = Y;
kernRight = Y;
layers = (
{
anchors = (
{
name = bottom;
pos = (249,0);
},
{
name = top;
pos = (249,810);
},
{
name = topleft;
pos = (20,810);
}
);
layerId = "249F2D81-707B-4084-8FA6-2290A2E02600";
shapes = (
{
closed = 1;
nodes = (
(345,0,l),
(345,344,l),
(490,810,l),
(311,810,l),
(258,593,l),
(194,810,l),
(7,810,l),
(155,344,l),
(155,0,l)
);
}
);
width = 497;
},
{
anchors = (
{
name = bottom;
pos = (241,0);
},
{
name = top;
pos = (241,810);
},
{
name = topleft;
pos = (20,810);
}
);
layerId = "B4C1A060-68FB-4CB1-AF3F-8DCCE37557EC";
shapes = (
{
closed = 1;
nodes = (
(295,0,l),
(295,286,l),
(469,810,l),
(363,810,l),
(241,419,l),
(117,810,l),
(12,810,l),
(187,286,l),
(187,0,l)
);
}
);
width = 481;
},
{
anchors = (
{
name = bottom;
pos = (231,0);
},
{
name = top;
pos = (231,810);
},
{
name = topleft;
pos = (20,810);
}
);
layerId = "6AC43539-1FDC-4B97-8460-9A098675B85D";
shapes = (
{
closed = 1;
nodes = (
(261,0,l),
(261,259,l),
(442,810,l),
(386,810,l),
(235,324,l),
(76,810,l),
(20,810,l),
(207,259,l),
(207,0,l)
);
}
);
width = 462;
}
);
unicode = 89;
},
{
glyphname = Z;
kernLeft = Z;
kernRight = Z;
layers = (
{
anchors = (
{
name = bottom;
pos = (219,0);
},
{
name = top;
pos = (219,810);
}
);
layerId = "249F2D81-707B-4084-8FA6-2290A2E02600";
shapes = (
{
closed = 1;
nodes = (
(408,0,l),
(408,132,l),
(218,132,l),
(405,694,l),
(405,810,l),
(34,810,l),
(34,677,l),
(213,677,l),
(27,116,l),
(27,0,l)
);
}
);
width = 437;
},
{
anchors = (
{
name = bottom;
pos = (209,0);
},
{
name = top;
pos = (209,810);
}
);
layerId = "B4C1A060-68FB-4CB1-AF3F-8DCCE37557EC";
shapes = (
{
closed = 1;
nodes = (
(396,0,l),
(396,81,l),
(145,81,l),
(396,761,l),
(396,810,l),
(53,810,l),
(53,729,l),
(276,729,l),
(38,81,l),
(38,0,l)
);
}
);
width = 417;
},
{
anchors = (
{
name = bottom;
pos = (201,0);
},
{
name = top;
pos = (201,810);
}
);
layerId = "6AC43539-1FDC-4B97-8460-9A098675B85D";
shapes = (
{
closed = 1;
nodes = (
(382,0,l),
(382,43,l),
(87,43,l),
(381,776,l),
(381,810,l),
(57,810,l),
(57,767,l),
(322,767,l),
(31,43,l),
(31,0,l)
);
}
);
width = 401;
}
);
unicode = 90;
},
{
glyphname = a;
kernLeft = a;
kernRight = a;
layers = (
{
anchors = (
{
name = bottom;
pos = (246,0);
},
{
name = ogonek;
pos = (382,0);
},
{
name = top;
pos = (264,578);
}
);
layerId = "249F2D81-707B-4084-8FA6-2290A2E02600";
shapes = (
{
closed = 1;
nodes = (
(233,-11,o),
(269,32,o),
(283,81,c),
(284,80,o),
(291,34,o),
(296,0,c),
(455,0,l),
(452,26,o),
(445,68,o),
(445,146,cs),
(445,417,ls),
(445,514,o),
(383,589,o),
(265,589,cs),
(133,589,o),
(61,530,o),
(50,399,c),
(50,398,o),
(49,388,o),
(49,381,c),
(214,374,l),
(219,420,l),
(221,439,o),
(225,456,o),
(248,456,cs),
(269,456,o),
(275,438,o),
(275,420,cs),
(275,357,l),
(193,324,o),
(34,289,o),
(34,132,cs),
(34,65,o),
(80,-9,o),
(174,-11,c)
);
},
{
closed = 1;
nodes = (
(213,105,o),
(193,127,o),
(193,164,cs),
(193,199,o),
(221,260,o),
(275,285,c),
(275,128,l),
(264,113,o),
(250,105,o),
(236,105,cs)
);
}
);
width = 491;
},
{
anchors = (
{
name = bottom;
pos = (213,0);
},
{
name = ogonek;
pos = (343,0);
},
{
name = top;
pos = (219,578);
}
);
layerId = "B4C1A060-68FB-4CB1-AF3F-8DCCE37557EC";
shapes = (
{
closed = 1;
nodes = (
(224,-8,o),
(261,40,o),
(275,85,c),
(278,58,o),
(285,21,o),
(289,0,c),
(387,0,l),
(382,37,o),
(377,85,o),
(377,139,cs),
(377,403,ls),
(377,522,o),
(333,586,o),
(219,586,cs),
(114,586,o),
(46,540,o),
(46,420,cs),
(46,412,o),
(46,406,o),
(46,399,c),
(151,395,l),
(151,424,l),
(151,474,o),
(168,506,o),
(212,506,cs),
(262,506,o),
(270,472,o),
(270,402,cs),
(270,361,l),
(146,311,o),
(42,270,o),
(42,126,cs),
(42,58,o),
(90,-8,o),
(158,-8,c)
);
},
{
closed = 1;
nodes = (
(167,84,o),
(149,112,o),
(149,159,cs),
(149,231,o),
(211,262,o),
(270,296,c),
(270,132,l),
(261,117,o),
(231,84,o),
(200,84,cs)
);
}
);
width = 426;
},
{
anchors = (
{
name = bottom;
pos = (190,0);
},
{
name = ogonek;
pos = (308,0);
},
{
name = top;
pos = (195,578);
}
);
layerId = "6AC43539-1FDC-4B97-8460-9A098675B85D";
shapes = (
{
closed = 1;
nodes = (
(212,-9,o),
(258,29,o),
(275,77,c),
(276,68,o),
(281,28,o),
(284,0,c),
(330,0,l),
(328,11,o),
(327,85,o),
(327,101,cs),
(327,392,ls),
(327,529,o),
(293,587,o),
(196,587,cs),
(104,587,o),
(53,546,o),
(50,438,c),
(50,437,o),
(50,425,o),
(50,423,c),
(102,422,l),
(102,438,l),
(102,530,o),
(148,547,o),
(194,547,cs),
(253,547,o),
(274,512,o),
(274,386,cs),
(274,345,l),
(77,252,o),
(38,216,o),
(38,117,cs),
(38,42,o),
(84,-9,o),
(154,-9,c)
);
},
{
closed = 1;
nodes = (
(130,35,o),
(91,56,o),
(91,125,cs),
(91,214,o),
(132,232,o),
(274,306,c),
(274,116,l),
(253,73,o),
(216,35,o),
(167,35,cs)
);
}
);
width = 379;
}
);
unicode = 97;
},
{
glyphname = ae;
kernLeft = a;
kernRight = e;
lastChange = "2025-05-07 12:24:44 +0000";
layers = (
{
associatedMasterId = "249F2D81-707B-4084-8FA6-2290A2E02600";
layerId = "B3E13CAA-59EC-4387-B070-E8EABBC7F753";
name = "Bold Aug 22 16, 15:18";
shapes = (
{
closed = 1;
nodes = (
(241,-13,o),
(308,13,o),
(333,68,c),
(347,12,o),
(419,-13,o),
(467,-13,cs),
(574,-13,o),
(634,45,o),
(634,149,cs),
(634,202,l),
(471,202,l),
(471,169,ls),
(471,135,o),
(474,112,o),
(451,112,cs),
(429,112,o),
(427,132,o),
(427,172,cs),
(427,294,l),
(443,297,o),
(461,300,o),
(478,304,cs),
(562,325,o),
(642,364,o),
(642,461,cs),
(642,526,o),
(586,607,o),
(468,607,cs),
(406,607,o),
(352,573,o),
(336,529,c),
(325,573,o),
(278,607,o),
(214,607,cs),
(83,607,o),
(24,526,o),
(27,385,c),
(200,385,l),
(200,446,o),
(215,454,o),
(230,454,cs),
(246,454,o),
(259,447,o),
(259,412,cs),
(259,341,l),
(237,337,o),
(209,333,o),
(184,326,c),
(105,307,o),
(25,266,o),
(25,138,cs),
(25,36,o),
(100,-13,o),
(185,-13,cs)
);
},
{
closed = 1;
nodes = (
(187,105,o),
(179,140,o),
(179,155,cs),
(179,173,o),
(187,225,o),
(232,254,cs),
(240,259,o),
(249,263,o),
(259,267,c),
(260,157,ls),
(260,113,o),
(242,105,o),
(218,105,cs)
);
},
{
closed = 1;
nodes = (
(426,439,ls),
(426,474,o),
(446,496,o),
(466,496,cs),
(482,496,o),
(496,481,o),
(496,448,cs),
(496,421,o),
(488,404,o),
(475,392,cs),
(464,381,o),
(446,375,o),
(426,372,c)
);
}
);
width = 671;
},
{
associatedMasterId = "249F2D81-707B-4084-8FA6-2290A2E02600";
layerId = "2240A660-B166-44A8-A817-CA0AAC7A1197";
name = "Bold Aug 22 16, 15:17";
shapes = (
{
closed = 1;
nodes = (
(395,500,l),
(366,554,o),
(316,589,o),
(232,589,cs),
(120,589,o),
(50,530,o),
(50,399,cs),
(50,398,o),
(49,381,o),
(49,381,c),
(214,374,l),
(219,420,l),
(221,439,o),
(225,456,o),
(248,456,cs),
(269,456,o),
(275,438,o),
(275,420,cs),
(275,357,l),
(193,324,o),
(34,289,o),
(34,132,cs),
(34,65,o),
(80,-9,o),
(174,-11,c),
(244,-11,o),
(288,40,o),
(304,98,c),
(287,98,l),
(312,28,o),
(383,-11,o),
(477,-11,cs),
(598,-11,o),
(678,46,o),
(678,163,cs),
(678,230,l),
(514,230,l),
(514,161,ls),
(514,123,o),
(494,116,o),
(477,116,cs),
(460,116,o),
(445,129,o),
(445,167,cs),
(445,277,l),
(678,277,l),
(678,413,ls),
(678,530,o),
(608,589,o),
(498,589,cs),
(423,589,o),
(361,558,o),
(323,500,c)
);
},
{
closed = 1;
nodes = (
(213,105,o),
(193,127,o),
(193,164,cs),
(193,199,o),
(221,260,o),
(275,285,c),
(275,128,l),
(264,113,o),
(250,105,o),
(236,105,cs)
);
},
{
closed = 1;
nodes = (
(445,412,ls),
(445,451,o),
(461,462,o),
(477,462,cs),
(494,462,o),
(514,456,o),
(514,417,cs),
(514,358,l),
(445,358,l)
);
}
);
width = 714;
},
{
anchors = (
{
name = bottom;
pos = (336,0);
},
{
name = top;
pos = (336,578);
}
);
layerId = "249F2D81-707B-4084-8FA6-2290A2E02600";
shapes = (
{
closed = 1;
nodes = (
(241,-13,o),
(308,13,o),
(333,68,c),
(347,12,o),
(419,-13,o),
(467,-13,cs),
(574,-13,o),
(634,45,o),
(634,149,cs),
(634,202,l),
(471,202,l),
(471,169,ls),
(471,135,o),
(474,112,o),
(451,112,cs),
(429,112,o),
(427,132,o),
(427,172,cs),
(427,294,l),
(492,309,ls),
(573,326,o),
(642,362,o),
(642,448,cs),
(642,528,o),
(590,589,o),
(479,589,cs),
(399,589,o),
(336,552,o),
(331,508,c),
(348,508,l),
(343,552,o),
(296,589,o),
(212,589,cs),
(82,589,o),
(24,516,o),
(27,381,c),
(200,374,l),
(200,444,o),
(213,456,o),
(232,456,cs),
(247,456,o),
(259,449,o),
(259,412,cs),
(259,341,l),
(204,331,ls),
(111,315,o),
(25,271,o),
(25,143,cs),
(25,44,o),
(91,-13,o),
(185,-13,cs)
);
},
{
closed = 1;
nodes = (
(192,105,o),
(179,129,o),
(179,161,cs),
(179,195,o),
(187,227,o),
(232,254,cs),
(240,259,o),
(249,263,o),
(259,267,c),
(260,157,ls),
(260,118,o),
(244,105,o),
(222,105,cs)
);
},
{
closed = 1;
nodes = (
(426,419,ls),
(426,449,o),
(438,462,o),
(463,462,cs),
(484,462,o),
(496,448,o),
(496,429,cs),
(496,399,o),
(475,382,o),
(431,373,cs),
(426,372,l)
);
}
);
width = 671;
},
{
anchors = (
{
name = bottom;
pos = (327,0);
},
{
name = top;
pos = (327,578);
}
);
layerId = "B4C1A060-68FB-4CB1-AF3F-8DCCE37557EC";
shapes = (
{
closed = 1;
nodes = (
(236,-14,o),
(286,39,o),
(315,109,c),
(325,39,o),
(374,-8,o),
(444,-8,cs),
(559,-8,o),
(609,62,o),
(609,177,cs),
(609,201,l),
(502,201,l),
(502,176,ls),
(502,120,o),
(491,77,o),
(445,77,cs),
(379,77,o),
(382,178,o),
(382,255,cs),
(382,282,l),
(453,297,l),
(526,315,o),
(604,338,o),
(604,443,cs),
(604,530,o),
(558,586,o),
(463,586,cs),
(386,586,o),
(329,542,o),
(319,486,c),
(334,486,l),
(324,542,o),
(283,586,o),
(214,586,cs),
(107,586,o),
(46,517,o),
(45,409,c),
(151,409,l),
(151,465,o),
(167,504,o),
(214,504,cs),
(264,504,o),
(275,463,o),
(275,402,cs),
(275,327,l),
(197,306,ls),
(104,280,o),
(43,231,o),
(43,126,cs),
(43,58,o),
(91,-3,o),
(159,-8,cs)
);
},
{
closed = 1;
nodes = (
(174,75,o),
(150,103,o),
(150,149,cs),
(150,201,o),
(180,229,o),
(229,250,c),
(241,254,o),
(262,262,o),
(275,265,c),
(275,211,ls),
(275,120,o),
(240,75,o),
(202,75,cs)
);
},
{
closed = 1;
nodes = (
(382,397,ls),
(382,458,o),
(397,499,o),
(447,499,cs),
(491,499,o),
(506,470,o),
(506,436,cs),
(506,384,o),
(484,367,o),
(437,353,c),
(382,340,l)
);
}
);
width = 653;
},
{
anchors = (
{
name = bottom;
pos = (300,0);
},
{
name = top;
pos = (300,578);
}
);
layerId = "6AC43539-1FDC-4B97-8460-9A098675B85D";
shapes = (
{
closed = 1;
nodes = (
(207,-11,o),
(274,16,o),
(296,107,c),
(308,19,o),
(364,-9,o),
(423,-9,cs),
(531,-9,o),
(563,58,o),
(563,157,cs),
(563,195,l),
(511,195,l),
(511,155,ls),
(511,44,o),
(464,33,o),
(423,33,cs),
(356,33,o),
(330,84,o),
(330,223,cs),
(330,300,l),
(441,338,ls),
(517,364,o),
(559,396,o),
(559,471,cs),
(559,537,o),
(518,587,o),
(433,587,cs),
(369,587,o),
(301,556,o),
(301,454,c),
(308,454,l),
(308,542,o),
(261,587,o),
(184,587,cs),
(100,587,o),
(50,538,o),
(50,435,c),
(101,433,l),
(101,523,o),
(143,546,o),
(186,546,cs),
(249,546,o),
(276,516,o),
(276,409,cs),
(276,323,l),
(189,293,ls),
(56,245,o),
(40,187,o),
(40,117,cs),
(40,42,o),
(86,-8,o),
(156,-9,cs)
);
},
{
closed = 1;
nodes = (
(134,32,o),
(93,53,o),
(92,122,cs),
(91,180,o),
(99,216,o),
(203,259,c),
(207,260,o),
(272,287,o),
(276,288,c),
(276,217,ls),
(276,73,o),
(220,32,o),
(168,32,cs)
);
},
{
closed = 1;
nodes = (
(330,384,ls),
(330,510,o),
(367,545,o),
(429,545,cs),
(489,545,o),
(510,506,o),
(510,467,cs),
(510,415,o),
(494,394,o),
(432,371,cs),
(330,335,l)
);
}
);
width = 599;
}
);
unicode = 230;
},
{
glyphname = b;
kernLeft = h;
kernRight = o;
lastChange = "2025-05-07 12:24:44 +0000";
layers = (
{
anchors = (
{
name = bottom;
pos = (262,0);
},
{
name = top;
pos = (140,810);
}
);
layerId = "249F2D81-707B-4084-8FA6-2290A2E02600";
shapes = (
{
closed = 1;
nodes = (
(433,-11,o),
(481,48,o),
(481,151,cs),
(481,432,ls),
(481,533,o),
(438,585,o),
(360,589,cs),
(321,591,o),
(273,574,o),
(229,537,c),
(229,810,l),
(50,810,l),
(50,0,l),
(229,0,l),
(229,44,l),
(271,9,o),
(317,-11,o),
(360,-11,cs)
);
},
{
closed = 1;
nodes = (
(254,101,o),
(241,105,o),
(229,113,c),
(229,470,l),
(242,479,o),
(256,485,o),
(265,487,c),
(288,490,o),
(302,470,o),
(302,448,cs),
(302,140,ls),
(302,118,o),
(289,100,o),
(265,101,c)
);
}
);
width = 523;
},
{
anchors = (
{
name = bottom;
pos = (224,0);
},
{
name = top;
pos = (110,810);
}
);
layerId = "B4C1A060-68FB-4CB1-AF3F-8DCCE37557EC";
shapes = (
{
closed = 1;
nodes = (
(375,-8,o),
(404,106,o),
(404,229,cs),
(404,369,ls),
(404,438,o),
(393,586,o),
(272,586,cs),
(223,586,o),
(188,561,o),
(163,532,c),
(163,810,l),
(56,810,l),
(56,0,l),
(163,0,l),
(163,42,l),
(187,16,o),
(220,-8,o),
(261,-8,cs)
);
},
{
closed = 1;
nodes = (
(208,76,o),
(182,87,o),
(163,102,c),
(163,473,l),
(182,488,o),
(207,502,o),
(235,502,cs),
(290,502,o),
(297,441,o),
(297,369,cs),
(297,229,ls),
(297,144,o),
(294,76,o),
(239,76,cs)
);
}
);
width = 447;
},
{
anchors = (
{
name = bottom;
pos = (199,0);
},
{
name = top;
pos = (84,810);
}
);
layerId = "6AC43539-1FDC-4B97-8460-9A098675B85D";
shapes = (
{
closed = 1;
nodes = (
(320,-9,o),
(352,76,o),
(352,238,cs),
(352,349,ls),
(352,494,o),
(328,587,o),
(221,587,cs),
(168,587,o),
(131,557,o),
(110,529,c),
(110,810,l),
(57,810,l),
(57,0,l),
(110,0,l),
(110,48,l),
(131,22,o),
(166,-9,o),
(216,-9,cs)
);
},
{
closed = 1;
nodes = (
(167,32,o),
(133,57,o),
(110,84,c),
(110,492,l),
(131,515,o),
(167,546,o),
(210,546,cs),
(285,546,o),
(298,487,o),
(298,349,cs),
(298,236,ls),
(298,95,o),
(282,32,o),
(209,32,cs)
);
}
);
width = 397;
}
);
unicode = 98;
},
{
glyphname = c;
kernLeft = o;
kernRight = c;
lastChange = "2025-05-07 12:24:44 +0000";
layers = (
{
anchors = (
{
name = bottom;
pos = (243,0);
},
{
name = top;
pos = (243,578);
}
);
layerId = "249F2D81-707B-4084-8FA6-2290A2E02600";
shapes = (
{
closed = 1;
nodes = (
(368,-11,o),
(453,46,o),
(453,162,cs),
(453,241,l),
(278,241,l),
(278,156,ls),
(278,118,o),
(264,111,o),
(247,111,cs),
(231,111,o),
(218,123,o),
(218,161,cs),
(218,418,ls),
(218,456,o),
(231,468,o),
(247,468,cs),
(264,468,o),
(278,461,o),
(278,423,cs),
(278,348,l),
(453,348,l),
(453,417,ls),
(453,533,o),
(369,589,o),
(247,589,cs),
(125,589,o),
(38,523,o),
(38,407,cs),
(38,172,ls),
(38,56,o),
(125,-11,o),
(247,-11,cs)
);
}
);
width = 485;
},
{
anchors = (
{
name = bottom;
pos = (206,0);
},
{
name = top;
pos = (206,578);
}
);
layerId = "B4C1A060-68FB-4CB1-AF3F-8DCCE37557EC";
shapes = (
{
closed = 1;
nodes = (
(336,-8,o),
(370,61,o),
(370,178,cs),
(370,218,l),
(273,218,l),
(273,171,ls),
(273,112,o),
(267,71,o),
(214,71,cs),
(166,71,o),
(150,96,o),
(150,195,cs),
(150,377,ls),
(150,475,o),
(160,507,o),
(213,507,cs),
(260,507,o),
(273,480,o),
(273,405,cs),
(273,370,l),
(370,370,l),
(370,404,ls),
(370,523,o),
(338,586,o),
(212,586,cs),
(72,586,o),
(43,500,o),
(43,355,cs),
(43,222,ls),
(43,83,o),
(70,-8,o),
(212,-8,cs)
);
}
);
width = 411;
},
{
anchors = (
{
name = bottom;
pos = (188,0);
},
{
name = top;
pos = (188,578);
}
);
layerId = "6AC43539-1FDC-4B97-8460-9A098675B85D";
shapes = (
{
closed = 1;
nodes = (
(318,-9,o),
(333,79,o),
(333,195,cs),
(333,216,l),
(283,216,l),
(283,194,ls),
(283,79,o),
(271,31,o),
(193,31,cs),
(117,31,o),
(99,83,o),
(99,209,cs),
(99,359,ls),
(99,496,o),
(114,547,o),
(192,547,cs),
(256,547,o),
(283,517,o),
(283,400,cs),
(283,377,l),
(333,377,l),
(333,400,ls),
(333,506,o),
(312,587,o),
(192,587,cs),
(79,587,o),
(46,523,o),
(46,353,cs),
(46,217,ls),
(46,91,o),
(62,-9,o),
(192,-9,cs)
);
}
);
width = 375;
}
);
unicode = 99;
},
{
glyphname = d;
kernLeft = o;
kernRight = d;
lastChange = "2025-05-07 12:24:44 +0000";
layers = (
{
anchors = (
{
name = bottom;
pos = (261,0);
},
{
name = center;
pos = (261,289);
},
{
name = top;
pos = (382,810);
},
{
name = topright;
pos = (522,810);
}
);
layerId = "249F2D81-707B-4084-8FA6-2290A2E02600";
shapes = (
{
closed = 1;
nodes = (
(212,-11,o),
(254,10,o),
(292,47,c),
(292,0,l),
(472,0,l),
(472,810,l),
(292,810,l),
(292,542,l),
(258,571,o),
(217,589,o),
(174,589,cs),
(93,589,o),
(42,526,o),
(42,427,cs),
(42,151,ls),
(42,48,o),
(90,-11,o),
(172,-11,cs)
);
},
{
closed = 1;
nodes = (
(234,99,o),
(222,118,o),
(222,140,cs),
(222,436,ls),
(222,463,o),
(234,482,o),
(258,482,cs),
(268,482,o),
(281,479,o),
(292,473,c),
(292,112,l),
(279,104,o),
(265,99,o),
(256,99,cs)
);
}
);
width = 521;
},
{
anchors = (
{
name = bottom;
pos = (221,0);
},
{
name = center;
pos = (221,289);
},
{
name = top;
pos = (335,810);
},
{
name = topright;
pos = (436,810);
}
);
layerId = "B4C1A060-68FB-4CB1-AF3F-8DCCE37557EC";
shapes = (
{
closed = 1;
nodes = (
(226,-8,o),
(256,10,o),
(281,37,c),
(281,0,l),
(388,0,l),
(388,810,l),
(281,810,l),
(281,541,l),
(256,566,o),
(224,586,o),
(185,586,cs),
(67,586,o),
(43,471,o),
(43,339,cs),
(43,227,ls),
(43,56,o),
(90,-9,o),
(188,-8,cs)
);
},
{
closed = 1;
nodes = (
(158,76,o),
(150,137,o),
(150,218,cs),
(150,381,ls),
(150,447,o),
(163,502,o),
(213,502,cs),
(239,502,o),
(262,490,o),
(281,477,c),
(281,98,l),
(258,83,o),
(235,76,o),
(215,76,cs)
);
}
);
width = 442;
},
{
anchors = (
{
name = bottom;
pos = (198,0);
},
{
name = center;
pos = (198,289);
},
{
name = top;
pos = (311,810);
},
{
name = topright;
pos = (392,810);
}
);
layerId = "6AC43539-1FDC-4B97-8460-9A098675B85D";
shapes = (
{
closed = 1;
nodes = (
(229,-9,o),
(263,19,o),
(284,44,c),
(284,0,l),
(337,0,l),
(337,810,l),
(284,810,l),
(284,534,l),
(263,560,o),
(228,587,o),
(179,587,cs),
(73,587,o),
(46,503,o),
(46,340,cs),
(46,237,ls),
(46,62,o),
(82,-9,o),
(182,-9,cs)
);
},
{
closed = 1;
nodes = (
(117,32,o),
(99,93,o),
(99,233,cs),
(99,353,ls),
(99,488,o),
(114,546,o),
(188,546,cs),
(229,546,o),
(263,517,o),
(284,496,c),
(284,81,l),
(261,55,o),
(227,32,o),
(189,32,cs)
);
}
);
width = 395;
}
);
unicode = 100;
},
{
glyphname = dcroat;
kernLeft = o;
kernRight = d;
lastChange = "2025-05-07 12:24:44 +0000";
layers = (
{
layerId = "249F2D81-707B-4084-8FA6-2290A2E02600";
shapes = (
{
closed = 1;
nodes = (
(209,-11,o),
(249,10,o),
(286,47,c),
(286,0,l),
(465,0,l),
(465,681,l),
(511,681,l),
(511,749,l),
(465,749,l),
(465,810,l),
(286,810,l),
(286,749,l),
(146,749,l),
(146,681,l),
(286,681,l),
(286,542,l),
(252,571,o),
(213,589,o),
(170,589,cs),
(89,589,o),
(38,526,o),
(38,427,cs),
(38,151,ls),
(38,48,o),
(86,-11,o),
(169,-11,cs)
);
},
{
closed = 1;
nodes = (
(230,99,o),
(218,118,o),
(218,140,cs),
(218,436,ls),
(218,463,o),
(230,482,o),
(254,482,cs),
(264,482,o),
(275,479,o),
(286,473,c),
(286,112,l),
(273,104,o),
(261,99,o),
(252,99,cs)
);
}
);
width = 513;
},
{
layerId = "B4C1A060-68FB-4CB1-AF3F-8DCCE37557EC";
shapes = (
{
closed = 1;
nodes = (
(226,-8,o),
(256,10,o),
(281,37,c),
(281,0,l),
(388,0,l),
(388,679,l),
(447,679,l),
(447,738,l),
(388,738,l),
(388,810,l),
(281,810,l),
(281,738,l),
(169,738,l),
(169,679,l),
(281,679,l),
(281,541,l),
(256,566,o),
(224,586,o),
(185,586,cs),
(67,586,o),
(43,471,o),
(43,339,cs),
(43,227,ls),
(43,56,o),
(90,-9,o),
(188,-8,cs)
);
},
{
closed = 1;
nodes = (
(158,76,o),
(150,137,o),
(150,218,cs),
(150,381,ls),
(150,447,o),
(163,502,o),
(213,502,cs),
(239,502,o),
(262,490,o),
(281,477,c),
(281,98,l),
(258,83,o),
(235,76,o),
(215,76,cs)
);
}
);
width = 454;
},
{
layerId = "6AC43539-1FDC-4B97-8460-9A098675B85D";
shapes = (
{
closed = 1;
nodes = (
(229,-9,o),
(263,19,o),
(284,44,c),
(284,0,l),
(337,0,l),
(337,690,l),
(394,690,l),
(394,725,l),
(337,725,l),
(337,810,l),
(284,810,l),
(284,725,l),
(200,725,l),
(200,690,l),
(284,690,l),
(284,534,l),
(263,560,o),
(228,587,o),
(179,587,cs),
(73,587,o),
(46,503,o),
(46,340,cs),
(46,237,ls),
(46,62,o),
(82,-9,o),
(182,-9,cs)
);
},
{
closed = 1;
nodes = (
(117,32,o),
(99,93,o),
(99,233,cs),
(99,353,ls),
(99,488,o),
(114,546,o),
(188,546,cs),
(229,546,o),
(263,517,o),
(284,496,c),
(284,81,l),
(261,55,o),
(227,32,o),
(189,32,cs)
);
}
);
width = 410;
}
);
unicode = 273;
},
{
glyphname = eth;
kernLeft = o;
lastChange = "2025-05-07 12:24:44 +0000";
layers = (
{
layerId = "249F2D81-707B-4084-8FA6-2290A2E02600";
shapes = (
{
closed = 1;
nodes = (
(378,-16,o),
(485,20,o),
(485,209,cs),
(485,462,ls),
(485,639,o),
(440,723,o),
(416,758,c),
(487,804,l),
(464,842,l),
(386,791,l),
(346,829,o),
(270,851,o),
(161,851,c),
(153,740,l),
(209,740,o),
(250,729,o),
(260,714,c),
(184,667,l),
(208,630,l),
(285,678,l),
(295,666,o),
(306,628,o),
(306,576,c),
(287,584,o),
(263,589,o),
(236,589,cs),
(150,589,o),
(54,524,o),
(54,406,cs),
(54,207,ls),
(54,42,o),
(158,-16,o),
(269,-16,cs)
);
},
{
closed = 1;
nodes = (
(228,99,o),
(229,143,o),
(229,290,cs),
(229,441,o),
(236,479,o),
(279,479,cs),
(288,479,o),
(296,477,o),
(306,474,c),
(306,369,o),
(306,265,o),
(306,160,cs),
(306,121,o),
(296,99,o),
(268,99,cs)
);
}
);
width = 534;
},
{
layerId = "B4C1A060-68FB-4CB1-AF3F-8DCCE37557EC";
shapes = (
{
closed = 1;
nodes = (
(366,-9,o),
(416,88,o),
(416,237,cs),
(416,377,ls),
(416,501,o),
(395,588,o),
(353,681,c),
(442,705,l),
(442,759,l),
(326,725,l),
(282,789,o),
(211,818,o),
(82,819,c),
(77,749,l),
(172,748,o),
(214,730,o),
(242,698,c),
(152,672,l),
(152,618,l),
(271,655,l),
(290,626,o),
(301,573,o),
(306,521,c),
(287,538,o),
(255,557,o),
(209,557,cs),
(77,557,o),
(52,438,o),
(52,292,cs),
(52,225,ls),
(52,80,o),
(79,-9,o),
(227,-9,cs)
);
},
{
closed = 1;
nodes = (
(144,76,o),
(159,181,o),
(159,284,cs),
(159,410,o),
(176,469,o),
(236,469,cs),
(278,469,o),
(299,444,o),
(308,436,c),
(311,371,o),
(309,280,o),
(309,219,cs),
(309,133,o),
(301,76,o),
(230,76,cs)
);
}
);
width = 471;
},
{
layerId = "6AC43539-1FDC-4B97-8460-9A098675B85D";
shapes = (
{
closed = 1;
nodes = (
(337,-11,o),
(370,79,o),
(370,248,cs),
(370,332,ls),
(370,503,o),
(331,638,o),
(313,679,c),
(380,697,l),
(380,730,l),
(299,709,l),
(258,793,o),
(183,822,o),
(84,828,c),
(81,791,l),
(170,783,o),
(228,754,o),
(256,695,c),
(168,671,l),
(168,638,l),
(271,666,l),
(287,635,o),
(299,575,o),
(306,529,c),
(276,545,o),
(243,556,o),
(208,556,cs),
(110,556,o),
(56,477,o),
(55,302,c),
(55,223,ls),
(55,79,o),
(97,-11,o),
(215,-11,cs)
);
},
{
closed = 1;
nodes = (
(141,32,o),
(107,103,o),
(107,257,cs),
(107,448,o),
(146,514,o),
(220,514,cs),
(251,514,o),
(280,500,o),
(308,489,c),
(310,480,o),
(318,335,o),
(318,283,cs),
(318,101,o),
(305,32,o),
(217,32,cs)
);
}
);
width = 430;
}
);
unicode = 240;
},
{
glyphname = e;
kernLeft = o;
kernRight = e;
lastChange = "2025-05-07 12:24:44 +0000";
layers = (
{
anchors = (
{
name = bottom;
pos = (242,0);
},
{
name = ogonek;
pos = (276,10);
},
{
name = top;
pos = (246,578);
}
);
layerId = "249F2D81-707B-4084-8FA6-2290A2E02600";
shapes = (
{
closed = 1;
nodes = (
(368,-11,o),
(448,46,o),
(448,163,cs),
(448,230,l),
(284,230,l),
(284,161,ls),
(284,123,o),
(264,116,o),
(247,116,cs),
(230,116,o),
(215,129,o),
(215,167,cs),
(215,277,l),
(448,277,l),
(448,413,ls),
(448,530,o),
(370,589,o),
(247,589,cs),
(125,589,o),
(38,522,o),
(38,406,cs),
(38,172,ls),
(38,56,o),
(125,-11,o),
(247,-11,cs)
);
},
{
closed = 1;
nodes = (
(215,412,ls),
(215,451,o),
(231,462,o),
(247,462,cs),
(264,462,o),
(284,456,o),
(284,417,cs),
(284,358,l),
(215,358,l)
);
}
);
width = 484;
},
{
anchors = (
{
name = bottom;
pos = (211,0);
},
{
name = ogonek;
pos = (249,10);
},
{
name = top;
pos = (211,578);
}
);
layerId = "B4C1A060-68FB-4CB1-AF3F-8DCCE37557EC";
shapes = (
{
closed = 1;
nodes = (
(332,-8,o),
(377,63,o),
(377,179,cs),
(377,201,l),
(273,201,l),
(273,166,ls),
(273,108,o),
(263,71,o),
(213,71,cs),
(148,71,o),
(150,133,o),
(150,210,cs),
(150,287,l),
(378,287,l),
(378,334,ls),
(378,492,o),
(359,586,o),
(214,586,cs),
(81,586,o),
(43,508,o),
(43,355,cs),
(43,223,ls),
(43,72,o),
(78,-8,o),
(214,-8,cs)
);
},
{
closed = 1;
nodes = (
(150,376,ls),
(150,476,o),
(161,507,o),
(213,507,cs),
(266,507,o),
(273,468,o),
(273,397,cs),
(273,345,l),
(150,345,l)
);
}
);
width = 421;
},
{
anchors = (
{
name = bottom;
pos = (190,0);
},
{
name = ogonek;
pos = (231,10);
},
{
name = top;
pos = (190,578);
}
);
layerId = "6AC43539-1FDC-4B97-8460-9A098675B85D";
shapes = (
{
closed = 1;
nodes = (
(302,-9,o),
(336,58,o),
(336,157,cs),
(336,195,l),
(284,195,l),
(284,152,ls),
(284,41,o),
(235,31,o),
(193,31,cs),
(126,31,o),
(99,71,o),
(99,210,cs),
(99,302,l),
(335,302,l),
(336,357,ls),
(336,523,o),
(302,587,o),
(194,587,cs),
(103,587,o),
(46,549,o),
(46,368,cs),
(46,214,ls),
(46,35,o),
(101,-9,o),
(193,-9,cs)
);
},
{
closed = 1;
nodes = (
(99,378,ls),
(99,515,o),
(129,547,o),
(194,547,cs),
(275,547,o),
(284,482,o),
(284,379,cs),
(284,334,l),
(99,334,l)
);
}
);
width = 379;
}
);
unicode = 101;
},
{
glyphname = schwa;
kernRight = o;
lastChange = "2025-05-07 12:24:44 +0000";
layers = (
{
layerId = "249F2D81-707B-4084-8FA6-2290A2E02600";
shapes = (
{
closed = 1;
nodes = (
(359,-13,o),
(446,54,o),
(446,170,cs),
(446,406,ls),
(446,522,o),
(359,589,o),
(237,589,cs),
(116,589,o),
(36,532,o),
(36,415,cs),
(36,348,l),
(200,348,l),
(200,417,ls),
(200,455,o),
(220,462,o),
(237,462,cs),
(254,462,o),
(269,449,o),
(269,411,cs),
(269,299,l),
(36,299,l),
(36,163,ls),
(36,46,o),
(114,-13,o),
(237,-13,cs)
);
},
{
closed = 1;
nodes = (
(220,114,o),
(200,120,o),
(200,159,cs),
(200,218,l),
(269,218,l),
(269,164,ls),
(269,125,o),
(253,114,o),
(237,114,cs)
);
}
);
width = 484;
},
{
layerId = "B4C1A060-68FB-4CB1-AF3F-8DCCE37557EC";
shapes = (
{
closed = 1;
nodes = (
(340,-9,o),
(378,69,o),
(378,222,cs),
(378,356,ls),
(378,506,o),
(343,586,o),
(207,586,cs),
(89,586,o),
(44,515,o),
(44,400,cs),
(44,378,l),
(148,378,l),
(148,413,ls),
(148,470,o),
(158,507,o),
(208,507,cs),
(273,507,o),
(271,445,o),
(271,369,cs),
(271,290,l),
(43,290,l),
(43,243,ls),
(43,85,o),
(62,-9,o),
(207,-9,cs)
);
},
{
closed = 1;
nodes = (
(155,70,o),
(148,109,o),
(148,180,cs),
(148,232,l),
(271,232,l),
(271,201,ls),
(271,101,o),
(260,70,o),
(208,70,cs)
);
}
);
width = 421;
},
{
layerId = "6AC43539-1FDC-4B97-8460-9A098675B85D";
shapes = (
{
closed = 1;
nodes = (
(277,-11,o),
(334,27,o),
(334,208,cs),
(334,364,ls),
(334,543,o),
(279,587,o),
(187,587,cs),
(78,587,o),
(44,520,o),
(44,421,cs),
(44,383,l),
(96,383,l),
(96,426,ls),
(96,537,o),
(145,547,o),
(187,547,cs),
(254,547,o),
(281,507,o),
(281,368,cs),
(281,274,l),
(45,274,l),
(44,219,ls),
(41,53,o),
(78,-11,o),
(186,-11,cs)
);
},
{
closed = 1;
nodes = (
(105,29,o),
(96,94,o),
(96,197,cs),
(96,242,l),
(281,242,l),
(281,198,ls),
(281,61,o),
(251,29,o),
(186,29,cs)
);
}
);
width = 380;
}
);
metricLeft = "|e";
metricRight = "|e";
unicode = 601;
},
{
color = 4;
glyphname = ezh;
kernLeft = ezh;
kernRight = ezh;
layers = (
{
anchors = (
{
name = bottom;
pos = (200,0);
},
{
name = top;
pos = (200,578);
}
);
layerId = "6AC43539-1FDC-4B97-8460-9A098675B85D";
shapes = (
{
closed = 1;
nodes = (
(319,-196,o),
(373,-102,o),
(373,31,cs),
(373,189,o),
(318,280,o),
(175,280,cs),
(129,280,l),
(135,262,l),
(338,543,l),
(338,578,l),
(49,578,l),
(49,537,l),
(329,537,l),
(305,573,l),
(88,274,l),
(88,233,l),
(188,233,ls),
(284,233,o),
(318,156,o),
(318,30,cs),
(318,-114,o),
(260,-153,o),
(185,-153,cs),
(100,-153,o),
(65,-100,o),
(65,-6,cs),
(65,-4,o),
(65,8,o),
(65,10,c),
(15,10,l),
(15,-5,ls),
(15,-120,o),
(63,-196,o),
(185,-196,cs)
);
}
);
width = 400;
},
{
anchors = (
{
name = bottom;
pos = (229,0);
},
{
name = top;
pos = (229,578);
}
);
layerId = "B4C1A060-68FB-4CB1-AF3F-8DCCE37557EC";
shapes = (
{
closed = 1;
nodes = (
(370,-196,o),
(428,-102,o),
(428,42,cs),
(428,184,o),
(379,291,o),
(228,291,cs),
(167,291,l),
(199,264,l),
(385,520,l),
(385,578,l),
(62,578,l),
(62,498,l),
(322,498,l),
(282,533,l),
(97,288,l),
(97,219,l),
(198,219,ls),
(297,219,o),
(321,155,o),
(321,42,cs),
(321,-47,o),
(305,-107,o),
(228,-107,cs),
(154,-107,o),
(136,-52,o),
(136,21,cs),
(136,27,o),
(136,34,o),
(136,39,c),
(30,39,l),
(30,12,ls),
(30,-117,o),
(96,-196,o),
(228,-196,cs)
);
}
);
width = 458;
},
{
anchors = (
{
name = bottom;
pos = (243,0);
},
{
name = top;
pos = (243,578);
}
);
layerId = "249F2D81-707B-4084-8FA6-2290A2E02600";
shapes = (
{
closed = 1;
nodes = (
(400,-205,o),
(458,-100,o),
(458,49,cs),
(458,207,o),
(411,297,o),
(238,297,cs),
(189,297,l),
(238,261,l),
(413,479,l),
(413,578,l),
(57,578,l),
(57,459,l),
(290,459,l),
(270,493,l),
(121,306,l),
(121,211,l),
(185,211,ls),
(277,211,o),
(295,167,o),
(295,44,cs),
(295,-49,o),
(286,-91,o),
(240,-91,cs),
(195,-91,o),
(182,-53,o),
(182,50,cs),
(182,61,o),
(182,77,o),
(182,79,c),
(22,79,l),
(22,50,ls),
(22,-101,o),
(76,-205,o),
(238,-205,cs)
);
}
);
width = 485;
}
);
unicode = 658;
},
{
glyphname = f;
kernLeft = f;
kernRight = f;
layers = (
{
anchors = (
{
name = bottom;
pos = (165,0);
},
{
name = top;
pos = (196,788);
}
);
layerId = "249F2D81-707B-4084-8FA6-2290A2E02600";
shapes = (
{
closed = 1;
nodes = (
(246,0,l),
(246,459,l),
(315,459,l),
(315,578,l),
(246,578,l),
(246,624,ls),
(246,652,o),
(263,660,o),
(282,660,cs),
(294,660,o),
(307,657,o),
(315,655,c),
(315,788,l),
(285,792,o),
(259,793,o),
(235,793,cs),
(86,793,o),
(67,725,o),
(67,625,cs),
(67,578,l),
(16,578,l),
(16,459,l),
(67,459,l),
(67,0,l)
);
}
);
width = 330;
},
{
anchors = (
{
name = bottom;
pos = (144,0);
},
{
name = top;
pos = (196,776);
}
);
layerId = "B4C1A060-68FB-4CB1-AF3F-8DCCE37557EC";
shapes = (
{
closed = 1;
nodes = (
(195,0,l),
(195,499,l),
(283,499,l),
(283,578,l),
(195,578,l),
(195,626,ls),
(195,671,o),
(201,701,o),
(243,701,cs),
(255,701,o),
(271,697,o),
(283,696,c),
(283,776,l),
(255,779,o),
(240,781,o),
(213,781,cs),
(104,781,o),
(88,715,o),
(88,608,cs),
(88,578,l),
(19,578,l),
(19,499,l),
(88,499,l),
(88,0,l)
);
}
);
width = 287;
},
{
anchors = (
{
name = bottom;
pos = (128,0);
},
{
name = top;
pos = (170,780);
}
);
layerId = "6AC43539-1FDC-4B97-8460-9A098675B85D";
shapes = (
{
closed = 1;
nodes = (
(148,0,l),
(148,541,l),
(245,541,l),
(245,578,l),
(148,578,l),
(148,657,ls),
(148,720,o),
(155,746,o),
(200,746,cs),
(212,746,o),
(229,742,o),
(242,740,c),
(242,780,l),
(226,785,o),
(206,787,o),
(189,787,cs),
(102,787,o),
(95,729,o),
(95,656,cs),
(95,578,l),
(17,578,l),
(17,541,l),
(95,541,l),
(95,0,l)
);
}
);
width = 256;
}
);
unicode = 102;
},
{
glyphname = g;
kernLeft = g;
kernRight = g;
layers = (
{
anchors = (
{
name = bottom;
pos = (260,0);
},
{
name = top;
pos = (260,578);
}
);
layerId = "249F2D81-707B-4084-8FA6-2290A2E02600";
shapes = (
{
closed = 1;
nodes = (
(450,-172,o),
(498,-103,o),
(498,-20,cs),
(498,58,o),
(464,101,o),
(340,119,cs),
(284,126,o),
(235,133,o),
(203,138,cs),
(169,144,o),
(149,150,o),
(147,159,cs),
(144,170,o),
(153,185,o),
(166,200,c),
(194,188,o),
(233,180,o),
(271,180,cs),
(405,180,o),
(471,255,o),
(471,376,cs),
(471,438,o),
(453,473,o),
(438,491,c),
(470,510,o),
(518,533,o),
(535,539,c),
(494,620,l),
(471,609,l),
(443,593,o),
(415,568,o),
(392,542,c),
(364,573,o),
(311,589,o),
(256,589,cs),
(126,589,o),
(42,524,o),
(42,374,cs),
(42,305,o),
(68,265,o),
(104,239,c),
(60,205,o),
(20,169,o),
(31,120,cs),
(37,94,o),
(56,76,o),
(109,55,c),
(73,27,o),
(26,-11,o),
(26,-55,cs),
(26,-164,o),
(193,-172,o),
(279,-172,cs)
);
},
{
closed = 1;
nodes = (
(220,-67,o),
(196,-53,o),
(196,-25,cs),
(196,-8,o),
(206,12,o),
(216,28,c),
(300,16,ls),
(345,10,o),
(362,-1,o),
(356,-36,c),
(353,-59,o),
(329,-67,o),
(278,-67,cs)
);
},
{
closed = 1;
nodes = (
(227,283,o),
(223,317,o),
(223,384,cs),
(223,448,o),
(222,485,o),
(260,485,cs),
(297,485,o),
(299,458,o),
(299,384,cs),
(299,313,o),
(294,283,o),
(260,283,cs)
);
}
);
width = 520;
},
{
anchors = (
{
name = bottom;
pos = (218,0);
},
{
name = top;
pos = (218,578);
}
);
layerId = "B4C1A060-68FB-4CB1-AF3F-8DCCE37557EC";
shapes = (
{
closed = 1;
nodes = (
(349,-179,o),
(405,-140,o),
(405,-35,cs),
(405,52,o),
(358,98,o),
(271,106,c),
(269,106,o),
(185,113,o),
(181,114,c),
(147,117,o),
(133,125,o),
(133,140,cs),
(133,155,o),
(145,172,o),
(152,184,c),
(168,180,o),
(190,177,o),
(207,177,cs),
(328,177,o),
(367,259,o),
(367,377,cs),
(367,410,o),
(358,460,o),
(349,483,c),
(359,492,o),
(421,515,o),
(447,520,c),
(420,589,l),
(404,582,l),
(365,564,o),
(333,532,o),
(326,522,c),
(306,564,o),
(269,586,o),
(207,586,cs),
(100,586,o),
(44,515,o),
(44,380,cs),
(44,288,o),
(67,241,o),
(111,208,c),
(71,172,o),
(47,146,o),
(47,103,cs),
(47,77,o),
(65,52,o),
(103,41,c),
(60,18,o),
(20,-25,o),
(20,-89,cs),
(20,-171,o),
(123,-179,o),
(234,-179,cs)
);
},
{
closed = 1;
nodes = (
(127,-95,o),
(110,-79,o),
(110,-46,cs),
(110,-11,o),
(141,19,o),
(153,29,c),
(244,21,ls),
(307,15,o),
(323,-3,o),
(323,-38,cs),
(323,-78,o),
(294,-95,o),
(232,-95,cs)
);
},
{
closed = 1;
nodes = (
(147,252,o),
(137,308,o),
(137,380,cs),
(137,464,o),
(148,512,o),
(208,512,cs),
(268,512,o),
(276,461,o),
(276,380,cs),
(276,299,o),
(268,252,o),
(207,252,cs)
);
}
);
width = 435;
},
{
anchors = (
{
name = bottom;
pos = (215,0);
},
{
name = top;
pos = (215,578);
}
);
layerId = "6AC43539-1FDC-4B97-8460-9A098675B85D";
shapes = (
{
closed = 1;
nodes = (
(301,-196,o),
(388,-159,o),
(388,-68,cs),
(388,6,o),
(331,41,o),
(236,61,cs),
(219,65,o),
(170,73,o),
(142,81,c),
(114,86,o),
(94,93,o),
(94,101,cs),
(94,124,o),
(129,168,o),
(145,194,c),
(159,188,o),
(185,184,o),
(207,184,cs),
(320,184,o),
(366,272,o),
(366,387,cs),
(366,411,o),
(357,459,o),
(347,485,c),
(367,510,o),
(405,535,o),
(440,543,c),
(425,583,l),
(411,578,l),
(377,564,o),
(346,535,o),
(333,510,c),
(312,549,o),
(276,587,o),
(205,587,cs),
(91,587,o),
(44,483,o),
(44,388,cs),
(44,316,o),
(63,250,o),
(120,209,c),
(92,177,o),
(48,124,o),
(48,84,cs),
(48,64,o),
(89,48,o),
(118,41,c),
(68,15,o),
(15,-35,o),
(15,-94,cs),
(15,-163,o),
(81,-196,o),
(202,-196,cs)
);
},
{
closed = 1;
nodes = (
(111,-153,o),
(61,-132,o),
(61,-81,cs),
(61,-26,o),
(119,12,o),
(153,32,c),
(216,21,l),
(323,-1,o),
(343,-27,o),
(343,-69,cs),
(343,-128,o),
(280,-153,o),
(202,-153,cs)
);
},
{
closed = 1;
nodes = (
(108,223,o),
(93,326,o),
(93,388,cs),
(93,442,o),
(113,548,o),
(206,548,cs),
(298,548,o),
(317,449,o),
(317,388,cs),
(317,324,o),
(306,223,o),
(207,223,cs)
);
}
);
width = 429;
}
);
unicode = 103;
},
{
glyphname = gcommaaccent;
kernLeft = g;
kernRight = g;
layers = (
{
associatedMasterId = "249F2D81-707B-4084-8FA6-2290A2E02600";
layerId = "18FA5564-C3D8-4332-BEA2-1CF4DEB583B6";
name = "Bold Aug 24 16, 13:33";
shapes = (
{
closed = 1;
nodes = (
(444,-172,o),
(493,-103,o),
(493,-21,cs),
(493,56,o),
(459,99,o),
(334,117,cs),
(277,125,o),
(229,132,o),
(196,138,cs),
(162,144,o),
(143,150,o),
(140,158,c),
(137,170,o),
(146,185,o),
(160,201,c),
(188,188,o),
(227,180,o),
(266,180,cs),
(400,180,o),
(467,256,o),
(467,376,cs),
(467,438,o),
(449,473,o),
(434,492,c),
(466,511,o),
(513,534,o),
(530,541,c),
(489,621,l),
(466,609,l),
(438,594,o),
(411,569,o),
(388,542,c),
(359,573,o),
(306,589,o),
(251,589,cs),
(120,589,o),
(36,523,o),
(36,374,cs),
(36,307,o),
(62,266,o),
(98,240,c),
(54,206,o),
(13,169,o),
(24,119,cs),
(30,94,o),
(50,76,o),
(104,55,c),
(67,27,o),
(21,-11,o),
(21,-55,cs),
(21,-164,o),
(187,-172,o),
(272,-172,cs)
);
},
{
closed = 1;
nodes = (
(215,-68,o),
(190,-54,o),
(190,-26,cs),
(190,-8,o),
(200,12,o),
(210,28,c),
(294,16,ls),
(339,9,o),
(357,-1,o),
(352,-37,cs),
(348,-60,o),
(323,-68,o),
(272,-68,cs)
);
},
{
closed = 1;
nodes = (
(220,282,o),
(217,318,o),
(217,384,cs),
(217,447,o),
(216,486,o),
(254,486,cs),
(293,486,o),
(294,457,o),
(294,384,cs),
(294,313,o),
(290,282,o),
(255,282,cs)
);
},
{
closed = 1;
nodes = (
(353,723,l),
(353,887,l),
(259,887,l),
(259,950,o),
(299,967,o),
(334,975,c),
(327,1028,l),
(233,1027,o),
(187,968,o),
(187,861,cs),
(187,723,l)
);
}
);
width = 440;
},
{
layerId = "249F2D81-707B-4084-8FA6-2290A2E02600";
shapes = (
{
alignment = -1;
ref = g;
},
{
pos = (260,0);
ref = commaturnedabovecomb;
}
);
width = 520;
},
{
layerId = "B4C1A060-68FB-4CB1-AF3F-8DCCE37557EC";
shapes = (
{
alignment = -1;
ref = g;
},
{
pos = (218,0);
ref = commaturnedabovecomb;
}
);
width = 435;
},
{
layerId = "6AC43539-1FDC-4B97-8460-9A098675B85D";
shapes = (
{
alignment = -1;
ref = g;
},
{
pos = (215,0);
ref = commaturnedabovecomb;
}
);
width = 429;
}
);
unicode = 291;
},
{
glyphname = h;
kernLeft = h;
kernRight = n;
lastChange = "2025-05-07 12:24:44 +0000";
layers = (
{
anchors = (
{
name = bottom;
pos = (264,0);
},
{
name = center;
pos = (264,289);
},
{
name = top;
pos = (140,810);
}
);
layerId = "249F2D81-707B-4084-8FA6-2290A2E02600";
shapes = (
{
closed = 1;
nodes = (
(229,0,l),
(229,448,l),
(247,459,o),
(263,463,o),
(274,464,cs),
(296,465,o),
(303,452,o),
(303,428,cs),
(303,0,l),
(481,0,l),
(481,449,ls),
(481,532,o),
(439,589,o),
(369,589,cs),
(319,589,o),
(273,574,o),
(229,529,c),
(229,810,l),
(50,810,l),
(50,0,l)
);
}
);
width = 528;
},
{
anchors = (
{
name = bottom;
pos = (223,0);
},
{
name = center;
pos = (223,289);
},
{
name = top;
pos = (111,810);
}
);
layerId = "B4C1A060-68FB-4CB1-AF3F-8DCCE37557EC";
shapes = (
{
closed = 1;
nodes = (
(164,0,l),
(164,464,l),
(188,485,o),
(217,502,o),
(242,502,cs),
(279,502,o),
(288,478,o),
(288,437,cs),
(288,0,l),
(395,0,l),
(395,468,ls),
(395,524,o),
(377,586,o),
(309,586,cs),
(250,586,o),
(203,555,o),
(164,518,c),
(164,810,l),
(57,810,l),
(57,0,l)
);
}
);
width = 445;
},
{
anchors = (
{
name = bottom;
pos = (196,0);
},
{
name = center;
pos = (196,289);
},
{
name = top;
pos = (84,810);
}
);
layerId = "6AC43539-1FDC-4B97-8460-9A098675B85D";
shapes = (
{
closed = 1;
nodes = (
(110,0,l),
(110,482,l),
(145,520,o),
(186,546,o),
(225,546,cs),
(262,546,o),
(285,526,o),
(285,455,cs),
(285,0,l),
(339,0,l),
(339,461,ls),
(339,553,o),
(299,587,o),
(248,587,cs),
(195,587,o),
(147,559,o),
(110,517,c),
(110,810,l),
(57,810,l),
(57,0,l)
);
}
);
width = 392;
}
);
unicode = 104;
},
{
glyphname = hbar;
kernLeft = h;
kernRight = n;
lastChange = "2025-05-07 12:24:44 +0000";
layers = (
{
layerId = "249F2D81-707B-4084-8FA6-2290A2E02600";
shapes = (
{
closed = 1;
nodes = (
(230,0,l),
(230,448,l),
(248,459,o),
(264,463,o),
(275,464,cs),
(297,465,o),
(304,452,o),
(304,428,cs),
(304,0,l),
(482,0,l),
(482,449,ls),
(482,532,o),
(440,589,o),
(370,589,cs),
(320,589,o),
(274,574,o),
(230,529,c),
(230,666,l),
(346,666,l),
(346,745,l),
(230,745,l),
(230,810,l),
(51,810,l),
(51,745,l),
(9,745,l),
(9,666,l),
(51,666,l),
(51,0,l)
);
}
);
width = 529;
},
{
layerId = "B4C1A060-68FB-4CB1-AF3F-8DCCE37557EC";
shapes = (
{
closed = 1;
nodes = (
(164,0,l),
(164,464,l),
(188,485,o),
(217,502,o),
(242,502,cs),
(279,502,o),
(288,478,o),
(288,437,cs),
(288,0,l),
(395,0,l),
(395,468,ls),
(395,524,o),
(377,586,o),
(308,586,cs),
(250,586,o),
(202,555,o),
(164,518,c),
(164,690,l),
(286,690,l),
(286,750,l),
(164,750,l),
(164,810,l),
(57,810,l),
(57,750,l),
(-6,750,l),
(-6,690,l),
(57,690,l),
(57,0,l)
);
}
);
width = 445;
},
{
layerId = "6AC43539-1FDC-4B97-8460-9A098675B85D";
shapes = (
{
closed = 1;
nodes = (
(110,0,l),
(110,482,l),
(144,520,o),
(185,546,o),
(224,546,cs),
(261,546,o),
(285,526,o),
(285,455,cs),
(285,0,l),
(338,0,l),
(338,461,ls),
(338,553,o),
(298,587,o),
(247,587,cs),
(194,587,o),
(146,559,o),
(110,517,c),
(110,701,l),
(228,701,l),
(228,735,l),
(110,735,l),
(110,810,l),
(57,810,l),
(57,735,l),
(-9,735,l),
(-9,701,l),
(57,701,l),
(57,0,l)
);
}
);
width = 391;
}
);
unicode = 295;
},
{
glyphname = i;
kernLeft = i;
kernRight = i;
layers = (
{
anchors = (
{
name = bottom;
pos = (138,0);
},
{
name = ogonek;
pos = (139,0);
}
);
layerId = "249F2D81-707B-4084-8FA6-2290A2E02600";
shapes = (
{
closed = 1;
nodes = (
(229,0,l),
(229,578,l),
(49,578,l),
(49,0,l)
);
},
{
closed = 1;
nodes = (
(229,679,l),
(229,793,l),
(48,793,l),
(48,679,l)
);
}
);
width = 276;
},
{
anchors = (
{
name = bottom;
pos = (115,0);
},
{
name = ogonek;
pos = (115,0);
}
);
layerId = "B4C1A060-68FB-4CB1-AF3F-8DCCE37557EC";
shapes = (
{
closed = 1;
nodes = (
(168,0,l),
(168,578,l),
(61,578,l),
(61,0,l)
);
},
{
closed = 1;
nodes = (
(168,664,l),
(168,776,l),
(61,776,l),
(61,664,l)
);
}
);
width = 229;
},
{
anchors = (
{
name = bottom;
pos = (95,0);
},
{
name = ogonek;
pos = (92,0);
}
);
layerId = "6AC43539-1FDC-4B97-8460-9A098675B85D";
shapes = (
{
closed = 1;
nodes = (
(119,0,l),
(119,578,l),
(65,578,l),
(65,0,l)
);
},
{
closed = 1;
nodes = (
(119,654,l),
(119,746,l),
(65,746,l),
(65,654,l)
);
}
);
width = 189;
}
);
unicode = 105;
},
{
glyphname = idotless;
kernLeft = i;
kernRight = i;
lastChange = "2025-05-07 12:24:44 +0000";
layers = (
{
anchors = (
{
name = bottom;
pos = (149,0);
},
{
name = ogonek;
pos = (156,0);
},
{
name = top;
pos = (149,578);
}
);
layerId = "249F2D81-707B-4084-8FA6-2290A2E02600";
shapes = (
{
closed = 1;
nodes = (
(238,0,l),
(238,578,l),
(59,578,l),
(59,0,l)
);
}
);
width = 296;
},
{
anchors = (
{
name = bottom;
pos = (115,0);
},
{
name = ogonek;
pos = (115,0);
},
{
name = top;
pos = (115,578);
}
);
layerId = "B4C1A060-68FB-4CB1-AF3F-8DCCE37557EC";
shapes = (
{
closed = 1;
nodes = (
(168,0,l),
(168,578,l),
(61,578,l),
(61,0,l)
);
}
);
width = 224;
},
{
anchors = (
{
name = bottom;
pos = (92,0);
},
{
name = ogonek;
pos = (92,0);
},
{
name = top;
pos = (92,578);
}
);
layerId = "6AC43539-1FDC-4B97-8460-9A098675B85D";
shapes = (
{
closed = 1;
nodes = (
(118,0,l),
(118,578,l),
(65,578,l),
(65,0,l)
);
}
);
width = 182;
}
);
unicode = 305;
},
{
glyphname = j;
kernLeft = j;
kernRight = j;
layers = (
{
layerId = "249F2D81-707B-4084-8FA6-2290A2E02600";
shapes = (
{
closed = 1;
nodes = (
(192,-190,o),
(242,-122,o),
(242,-31,cs),
(242,578,l),
(63,578,l),
(63,-8,ls),
(63,-42,o),
(45,-51,o),
(23,-51,cs),
(14,-51,o),
(4,-49,o),
(-6,-47,c),
(-6,-175,l),
(24,-184,o),
(56,-190,o),
(90,-190,cs)
);
},
{
closed = 1;
nodes = (
(242,679,l),
(242,793,l),
(62,793,l),
(62,679,l)
);
}
);
width = 290;
},
{
layerId = "B4C1A060-68FB-4CB1-AF3F-8DCCE37557EC";
shapes = (
{
closed = 1;
nodes = (
(123,-146,o),
(176,-97,o),
(176,-6,cs),
(176,578,l),
(69,578,l),
(69,5,ls),
(69,-36,o),
(55,-65,o),
(9,-65,cs),
(2,-65,o),
(-12,-63,o),
(-19,-62,c),
(-19,-139,l),
(-5,-145,o),
(18,-146,o),
(36,-146,cs)
);
},
{
closed = 1;
nodes = (
(177,664,l),
(177,776,l),
(69,776,l),
(69,664,l)
);
}
);
width = 230;
},
{
layerId = "6AC43539-1FDC-4B97-8460-9A098675B85D";
shapes = (
{
closed = 1;
nodes = (
(89,-155,o),
(134,-121,o),
(134,-28,cs),
(134,578,l),
(81,578,l),
(81,-25,ls),
(81,-67,o),
(78,-111,o),
(8,-111,cs),
(5,-111,o),
(-14,-111,o),
(-16,-110,c),
(-16,-153,l),
(-12,-154,o),
(9,-155,o),
(14,-155,cs)
);
},
{
closed = 1;
nodes = (
(134,654,l),
(134,746,l),
(81,746,l),
(81,654,l)
);
}
);
width = 202;
}
);
unicode = 106;
},
{
glyphname = jdotless;
kernLeft = j;
kernRight = j;
lastChange = "2025-05-07 12:24:44 +0000";
layers = (
{
anchors = (
{
name = bottom;
pos = (153,-190);
},
{
name = top;
pos = (153,578);
}
);
layerId = "249F2D81-707B-4084-8FA6-2290A2E02600";
shapes = (
{
closed = 1;
nodes = (
(192,-190,o),
(242,-122,o),
(242,-31,cs),
(242,578,l),
(63,578,l),
(63,-8,ls),
(63,-42,o),
(45,-51,o),
(23,-51,cs),
(14,-51,o),
(4,-49,o),
(-6,-47,c),
(-6,-175,l),
(24,-184,o),
(56,-190,o),
(90,-190,cs)
);
}
);
width = 290;
},
{
anchors = (
{
name = bottom;
pos = (123,-190);
},
{
name = top;
pos = (123,578);
}
);
layerId = "B4C1A060-68FB-4CB1-AF3F-8DCCE37557EC";
shapes = (
{
closed = 1;
nodes = (
(123,-146,o),
(176,-97,o),
(176,-6,cs),
(176,578,l),
(69,578,l),
(69,5,ls),
(69,-36,o),
(55,-65,o),
(9,-65,cs),
(2,-65,o),
(-12,-63,o),
(-19,-62,c),
(-19,-139,l),
(-5,-145,o),
(18,-146,o),
(36,-146,cs)
);
}
);
width = 230;
},
{
anchors = (
{
name = bottom;
pos = (108,-155);
},
{
name = top;
pos = (108,578);
}
);
layerId = "6AC43539-1FDC-4B97-8460-9A098675B85D";
shapes = (
{
closed = 1;
nodes = (
(89,-155,o),
(134,-121,o),
(134,-28,cs),
(134,578,l),
(81,578,l),
(81,-25,ls),
(81,-67,o),
(78,-111,o),
(8,-111,cs),
(5,-111,o),
(-14,-111,o),
(-16,-110,c),
(-16,-153,l),
(-12,-154,o),
(9,-155,o),
(14,-155,cs)
);
}
);
width = 202;
}
);
unicode = 567;
},
{
glyphname = k;
kernLeft = h;
kernRight = k;
lastChange = "2025-05-07 12:24:44 +0000";
layers = (
{
anchors = (
{
name = bottom;
pos = (287,0);
},
{
name = top;
pos = (287,578);
}
);
layerId = "249F2D81-707B-4084-8FA6-2290A2E02600";
shapes = (
{
closed = 1;
nodes = (
(227,0,l),
(227,219,l),
(269,269,l),
(369,0,l),
(568,0,l),
(410,338,l),
(569,578,l),
(365,578,l),
(227,370,l),
(227,810,l),
(50,810,l),
(50,0,l)
);
}
);
width = 574;
},
{
anchors = (
{
name = bottom;
pos = (215,0);
},
{
name = top;
pos = (215,578);
}
);
layerId = "B4C1A060-68FB-4CB1-AF3F-8DCCE37557EC";
shapes = (
{
closed = 1;
nodes = (
(163,1,l),
(163,222,l),
(212,296,l),
(320,0,l),
(427,0,l),
(295,352,l),
(431,578,l),
(319,578,l),
(163,328,l),
(163,811,l),
(56,811,l),
(56,1,l)
);
}
);
width = 429;
},
{
anchors = (
{
name = bottom;
pos = (192,0);
},
{
name = top;
pos = (192,578);
}
);
layerId = "6AC43539-1FDC-4B97-8460-9A098675B85D";
shapes = (
{
closed = 1;
nodes = (
(110,0,l),
(110,217,l),
(190,325,l),
(320,0,l),
(374,0,l),
(230,357,l),
(382,578,l),
(325,578,l),
(110,276,l),
(110,810,l),
(57,810,l),
(57,0,l)
);
}
);
width = 383;
}
);
unicode = 107;
},
{
glyphname = kgreenlandic;
kernLeft = n;
kernRight = k;
lastChange = "2025-05-07 12:24:44 +0000";
layers = (
{
layerId = "249F2D81-707B-4084-8FA6-2290A2E02600";
shapes = (
{
closed = 1;
nodes = (
(226,0,l),
(226,238,l),
(244,262,l),
(334,0,l),
(524,0,l),
(407,310,l),
(521,578,l),
(326,578,l),
(226,341,l),
(226,578,l),
(47,578,l),
(47,0,l)
);
}
);
width = 531;
},
{
layerId = "B4C1A060-68FB-4CB1-AF3F-8DCCE37557EC";
shapes = (
{
closed = 1;
nodes = (
(166,0,l),
(166,200,l),
(222,284,l),
(319,0,l),
(426,0,l),
(294,357,l),
(426,578,l),
(318,578,l),
(166,324,l),
(166,578,l),
(59,578,l),
(59,0,l)
);
}
);
width = 430;
},
{
layerId = "6AC43539-1FDC-4B97-8460-9A098675B85D";
shapes = (
{
closed = 1;
nodes = (
(117,0,l),
(117,214,l),
(189,316,l),
(324,0,l),
(378,0,l),
(227,352,l),
(375,578,l),
(318,578,l),
(117,276,l),
(117,578,l),
(64,578,l),
(64,0,l)
);
}
);
width = 411;
}
);
unicode = 312;
},
{
glyphname = l;
kernLeft = l;
kernRight = l;
layers = (
{
anchors = (
{
name = bottom;
pos = (145,0);
},
{
name = center;
pos = (144,289);
},
{
name = top;
pos = (145,810);
},
{
name = topright;
pos = (284,810);
}
);
layerId = "249F2D81-707B-4084-8FA6-2290A2E02600";
shapes = (
{
closed = 1;
nodes = (
(234,0,l),
(234,810,l),
(56,810,l),
(56,0,l)
);
}
);
width = 287;
},
{
anchors = (
{
name = bottom;
pos = (118,0);
},
{
name = center;
pos = (115,289);
},
{
name = top;
pos = (118,810);
},
{
name = topright;
pos = (219,810);
}
);
layerId = "B4C1A060-68FB-4CB1-AF3F-8DCCE37557EC";
shapes = (
{
closed = 1;
nodes = (
(171,0,l),
(171,810,l),
(64,810,l),
(64,0,l)
);
}
);
width = 229;
},
{
anchors = (
{
name = bottom;
pos = (94,0);
},
{
name = center;
pos = (93,289);
},
{
name = top;
pos = (94,810);
},
{
name = topright;
pos = (175,810);
}
);
layerId = "6AC43539-1FDC-4B97-8460-9A098675B85D";
shapes = (
{
closed = 1;
nodes = (
(120,0,l),
(120,810,l),
(67,810,l),
(67,0,l)
);
}
);
width = 186;
}
);
unicode = 108;
},
{
glyphname = lslash;
kernLeft = l;
lastChange = "2025-05-07 12:24:44 +0000";
layers = (
{
layerId = "249F2D81-707B-4084-8FA6-2290A2E02600";
shapes = (
{
closed = 1;
nodes = (
(266,0,l),
(266,489,l),
(347,522,l),
(347,616,l),
(266,582,l),
(266,810,l),
(87,810,l),
(87,507,l),
(21,479,l),
(21,385,l),
(87,413,l),
(87,0,l)
);
}
);
width = 353;
},
{
layerId = "B4C1A060-68FB-4CB1-AF3F-8DCCE37557EC";
shapes = (
{
closed = 1;
nodes = (
(192,0,l),
(192,465,l),
(253,495,l),
(253,578,l),
(192,548,l),
(192,810,l),
(85,810,l),
(85,499,l),
(17,467,l),
(17,383,l),
(85,416,l),
(85,0,l)
);
}
);
width = 267;
},
{
layerId = "6AC43539-1FDC-4B97-8460-9A098675B85D";
shapes = (
{
closed = 1;
nodes = (
(150,0,l),
(150,488,l),
(210,521,l),
(210,567,l),
(150,534,l),
(150,810,l),
(97,810,l),
(97,506,l),
(35,473,l),
(35,426,l),
(97,460,l),
(97,0,l)
);
}
);
width = 247;
}
);
unicode = 322;
},
{
glyphname = m;
kernLeft = n;
kernRight = n;
lastChange = "2025-05-07 12:24:44 +0000";
layers = (
{
anchors = (
{
name = bottom;
pos = (387,0);
},
{
name = top;
pos = (387,578);
}
);
layerId = "249F2D81-707B-4084-8FA6-2290A2E02600";
shapes = (
{
closed = 1;
nodes = (
(228,0,l),
(228,451,l),
(244,460,o),
(261,464,o),
(271,465,cs),
(292,466,o),
(302,453,o),
(302,428,cs),
(302,0,l),
(478,0,l),
(478,448,ls),
(478,449,o),
(478,450,o),
(478,452,c),
(493,460,o),
(511,464,o),
(521,465,cs),
(542,466,o),
(550,453,o),
(550,428,cs),
(550,0,l),
(728,0,l),
(728,448,ls),
(728,533,o),
(685,589,o),
(614,589,cs),
(563,589,o),
(512,573,o),
(465,522,c),
(447,564,o),
(412,589,o),
(365,589,cs),
(317,589,o),
(271,575,o),
(228,534,c),
(228,578,l),
(50,578,l),
(50,0,l)
);
}
);
width = 774;
},
{
anchors = (
{
name = bottom;
pos = (340,0);
},
{
name = top;
pos = (340,578);
}
);
layerId = "B4C1A060-68FB-4CB1-AF3F-8DCCE37557EC";
shapes = (
{
closed = 1;
nodes = (
(153,0,l),
(153,471,l),
(181,500,o),
(214,518,o),
(243,518,c),
(273,519,o),
(293,503,o),
(293,447,cs),
(293,0,l),
(391,0,l),
(391,454,ls),
(391,460,o),
(391,465,o),
(391,471,c),
(418,500,o),
(452,518,o),
(481,518,c),
(511,519,o),
(531,503,o),
(531,447,cs),
(531,0,l),
(629,0,l),
(629,454,ls),
(629,550,o),
(583,588,o),
(527,588,cs),
(474,588,o),
(424,565,o),
(383,515,c),
(368,569,o),
(331,588,o),
(289,588,cs),
(240,588,o),
(192,567,o),
(153,523,c),
(153,578,l),
(54,578,l),
(54,0,l)
);
}
);
width = 680;
},
{
anchors = (
{
name = bottom;
pos = (312,0);
},
{
name = top;
pos = (312,578);
}
);
layerId = "6AC43539-1FDC-4B97-8460-9A098675B85D";
shapes = (
{
closed = 1;
nodes = (
(107,0,l),
(107,483,l),
(143,523,o),
(186,550,o),
(226,550,cs),
(261,550,o),
(288,533,o),
(288,458,cs),
(288,0,l),
(339,0,l),
(339,457,ls),
(339,466,o),
(338,475,o),
(337,482,c),
(373,523,o),
(416,550,o),
(457,550,cs),
(492,550,o),
(519,533,o),
(519,458,cs),
(519,0,l),
(570,0,l),
(570,457,ls),
(570,561,o),
(522,588,o),
(474,588,cs),
(421,588,o),
(371,560,o),
(333,511,c),
(319,571,o),
(281,588,o),
(243,588,cs),
(192,588,o),
(144,562,o),
(107,517,c),
(107,578,l),
(57,578,l),
(57,0,l)
);
}
);
width = 623;
}
);
unicode = 109;
},
{
glyphname = n;
kernLeft = n;
kernRight = n;
layers = (
{
anchors = (
{
name = bottom;
pos = (264,0);
},
{
name = top;
pos = (264,578);
}
);
layerId = "249F2D81-707B-4084-8FA6-2290A2E02600";
shapes = (
{
closed = 1;
nodes = (
(229,0,l),
(229,448,l),
(247,459,o),
(263,463,o),
(274,464,cs),
(295,465,o),
(302,452,o),
(302,428,cs),
(302,0,l),
(481,0,l),
(481,449,ls),
(481,532,o),
(439,589,o),
(368,589,cs),
(318,589,o),
(273,564,o),
(229,520,c),
(229,578,l),
(50,578,l),
(50,0,l)
);
}
);
width = 527;
},
{
anchors = (
{
name = bottom;
pos = (220,0);
},
{
name = top;
pos = (220,578);
}
);
layerId = "B4C1A060-68FB-4CB1-AF3F-8DCCE37557EC";
shapes = (
{
closed = 1;
nodes = (
(161,0,l),
(161,466,l),
(185,486,o),
(212,502,o),
(236,502,cs),
(273,502,o),
(282,478,o),
(282,437,cs),
(282,0,l),
(389,0,l),
(389,468,ls),
(389,524,o),
(371,586,o),
(302,586,cs),
(246,586,o),
(199,557,o),
(161,521,c),
(161,578,l),
(54,578,l),
(54,0,l)
);
}
);
width = 439;
},
{
anchors = (
{
name = bottom;
pos = (196,0);
},
{
name = top;
pos = (196,578);
}
);
layerId = "6AC43539-1FDC-4B97-8460-9A098675B85D";
shapes = (
{
closed = 1;
nodes = (
(110,0,l),
(110,482,l),
(144,520,o),
(185,546,o),
(224,546,cs),
(261,546,o),
(285,526,o),
(285,455,cs),
(285,0,l),
(338,0,l),
(338,461,ls),
(338,553,o),
(298,587,o),
(247,587,cs),
(194,587,o),
(146,559,o),
(110,516,c),
(110,578,l),
(57,578,l),
(57,0,l)
);
}
);
width = 391;
}
);
unicode = 110;
},
{
glyphname = eng;
kernLeft = n;
kernRight = j;
lastChange = "2025-05-07 12:24:44 +0000";
layers = (
{
layerId = "249F2D81-707B-4084-8FA6-2290A2E02600";
shapes = (
{
closed = 1;
nodes = (
(252,-198,ls),
(426,-198,o),
(473,-147,o),
(473,-6,cs),
(473,449,ls),
(473,532,o),
(431,589,o),
(360,589,cs),
(310,589,o),
(265,574,o),
(221,529,c),
(221,578,l),
(42,578,l),
(42,0,l),
(221,0,l),
(221,448,l),
(238,459,o),
(254,463,o),
(266,464,cs),
(287,465,o),
(294,452,o),
(294,428,cs),
(294,-5,ls),
(294,-74,o),
(275,-89,o),
(185,-89,c),
(185,-198,l)
);
}
);
width = 502;
},
{
layerId = "B4C1A060-68FB-4CB1-AF3F-8DCCE37557EC";
shapes = (
{
closed = 1;
nodes = (
(186,-184,ls),
(300,-184,o),
(379,-125,o),
(379,-6,cs),
(379,468,ls),
(379,524,o),
(361,586,o),
(293,586,cs),
(236,586,o),
(189,557,o),
(151,521,c),
(151,578,l),
(44,578,l),
(44,0,l),
(151,0,l),
(151,466,l),
(175,486,o),
(202,502,o),
(226,502,cs),
(264,502,o),
(272,478,o),
(272,437,cs),
(272,-5,ls),
(272,-71,o),
(253,-103,o),
(154,-103,c),
(154,-184,l)
);
}
);
width = 388;
},
{
layerId = "6AC43539-1FDC-4B97-8460-9A098675B85D";
shapes = (
{
closed = 1;
nodes = (
(177,-156,ls),
(261,-156,o),
(335,-125,o),
(335,-6,cs),
(335,461,ls),
(335,553,o),
(296,587,o),
(244,587,cs),
(191,587,o),
(144,559,o),
(107,516,c),
(107,578,l),
(54,578,l),
(54,0,l),
(107,0,l),
(107,482,l),
(141,520,o),
(182,546,o),
(221,546,cs),
(258,546,o),
(282,526,o),
(282,455,cs),
(282,-5,ls),
(282,-71,o),
(263,-113,o),
(164,-113,c),
(164,-156,l)
);
}
);
width = 388;
}
);
unicode = 331;
},
{
glyphname = o;
kernLeft = o;
kernRight = o;
layers = (
{
anchors = (
{
name = bottom;
pos = (250,0);
},
{
name = center;
pos = (250,289);
},
{
name = ogonek;
pos = (280,0);
},
{
name = top;
pos = (249,578);
},
{
name = topright;
pos = (285,578);
}
);
guides = (
{
angle = 90;
pos = (462,0);
}
);
layerId = "249F2D81-707B-4084-8FA6-2290A2E02600";
shapes = (
{
closed = 1;
nodes = (
(371,-11,o),
(462,47,o),
(462,172,cs),
(462,406,ls),
(462,531,o),
(371,589,o),
(249,589,cs),
(127,589,o),
(38,531,o),
(38,406,cs),
(38,172,ls),
(38,47,o),
(127,-11,o),
(249,-11,cs)
);
},
{
closed = 1;
nodes = (
(227,106,o),
(214,122,o),
(214,159,cs),
(214,419,ls),
(214,456,o),
(227,472,o),
(250,472,cs),
(274,472,o),
(286,457,o),
(286,419,cs),
(286,159,ls),
(286,121,o),
(274,106,o),
(250,106,cs)
);
}
);
width = 500;
},
{
anchors = (
{
name = bottom;
pos = (212,0);
},
{
name = center;
pos = (212,289);
},
{
name = ogonek;
pos = (262,8);
},
{
name = top;
pos = (212,578);
},
{
name = topright;
pos = (243,578);
}
);
guides = (
{
angle = 90;
pos = (380,0);
}
);
layerId = "B4C1A060-68FB-4CB1-AF3F-8DCCE37557EC";
shapes = (
{
closed = 1;
nodes = (
(340,-8,o),
(380,75,o),
(380,205,cs),
(380,373,ls),
(380,503,o),
(340,586,o),
(212,586,cs),
(83,586,o),
(43,503,o),
(43,373,cs),
(43,205,ls),
(43,75,o),
(83,-8,o),
(212,-8,cs)
);
},
{
closed = 1;
nodes = (
(150,71,o),
(150,133,o),
(150,198,cs),
(150,379,ls),
(150,444,o),
(150,507,o),
(212,507,cs),
(273,507,o),
(273,444,o),
(273,379,cs),
(273,198,ls),
(273,133,o),
(273,71,o),
(212,71,cs)
);
}
);
width = 424;
},
{
anchors = (
{
name = bottom;
pos = (192,0);
},
{
name = center;
pos = (192,289);
},
{
name = ogonek;
pos = (225,0);
},
{
name = top;
pos = (192,578);
},
{
name = topright;
pos = (242,578);
}
);
guides = (
{
angle = 90;
pos = (337,0);
}
);
layerId = "6AC43539-1FDC-4B97-8460-9A098675B85D";
shapes = (
{
closed = 1;
nodes = (
(307,-9,o),
(337,66,o),
(337,211,cs),
(337,367,ls),
(337,512,o),
(307,587,o),
(191,587,cs),
(76,587,o),
(46,511,o),
(46,367,cs),
(46,211,ls),
(46,66,o),
(76,-9,o),
(191,-9,cs)
);
},
{
closed = 1;
nodes = (
(107,31,o),
(99,98,o),
(99,209,cs),
(99,369,ls),
(99,480,o),
(107,547,o),
(191,547,cs),
(275,547,o),
(284,480,o),
(284,369,cs),
(284,209,ls),
(284,98,o),
(275,31,o),
(191,31,cs)
);
}
);
width = 383;
}
);
unicode = 111;
},
{
glyphname = oslash;
kernLeft = o;
kernRight = o;
lastChange = "2025-05-07 12:24:44 +0000";
layers = (
{
anchors = (
{
name = top;
pos = (247,578);
}
);
layerId = "249F2D81-707B-4084-8FA6-2290A2E02600";
shapes = (
{
closed = 1;
nodes = (
(417,657,l),
(378,674,l),
(68,-70,l),
(106,-87,l)
);
},
{
alignment = -1;
ref = o;
}
);
width = 493;
},
{
anchors = (
{
name = top;
pos = (212,578);
}
);
layerId = "B4C1A060-68FB-4CB1-AF3F-8DCCE37557EC";
shapes = (
{
closed = 1;
nodes = (
(367,656,l),
(330,668,l),
(64,-84,l),
(96,-95,l)
);
},
{
alignment = -1;
ref = o;
}
);
width = 424;
},
{
anchors = (
{
name = top;
pos = (192,578);
}
);
layerId = "6AC43539-1FDC-4B97-8460-9A098675B85D";
shapes = (
{
closed = 1;
nodes = (
(335,625,l),
(314,634,l),
(58,-58,l),
(78,-65,l)
);
},
{
alignment = -1;
ref = o;
}
);
width = 383;
}
);
unicode = 248;
},
{
glyphname = oe;
kernLeft = o;
kernRight = e;
lastChange = "2025-05-07 12:24:44 +0000";
layers = (
{
anchors = (
{
name = bottom;
pos = (356,0);
},
{
name = top;
pos = (356,578);
}
);
layerId = "249F2D81-707B-4084-8FA6-2290A2E02600";
shapes = (
{
closed = 1;
nodes = (
(289,-14,o),
(336,17,o),
(360,59,c),
(380,13,o),
(436,-14,o),
(509,-14,cs),
(621,-15,o),
(682,50,o),
(682,148,cs),
(682,235,l),
(516,235,l),
(516,147,ls),
(516,111,o),
(510,90,o),
(491,91,c),
(473,91,o),
(464,115,o),
(464,152,cs),
(464,274,l),
(682,274,l),
(682,417,ls),
(682,526,o),
(632,606,o),
(504,606,cs),
(458,606,o),
(385,583,o),
(365,531,c),
(346,583,o),
(270,606,o),
(220,606,cs),
(118,606,o),
(36,557,o),
(36,441,cs),
(36,165,ls),
(36,40,o),
(122,-14,o),
(207,-14,cs)
);
},
{
closed = 1;
nodes = (
(224,91,o),
(212,117,o),
(212,160,cs),
(212,451,ls),
(212,494,o),
(229,503,o),
(244,503,cs),
(260,503,o),
(276,492,o),
(276,451,cs),
(276,159,ls),
(276,98,o),
(257,91,o),
(241,91,cs)
);
},
{
closed = 1;
nodes = (
(464,465,ls),
(464,494,o),
(481,503,o),
(490,503,cs),
(501,503,o),
(518,491,o),
(518,465,cs),
(518,370,l),
(464,370,l)
);
}
);
width = 711;
},
{
anchors = (
{
name = bottom;
pos = (343,0);
},
{
name = top;
pos = (343,578);
}
);
layerId = "B4C1A060-68FB-4CB1-AF3F-8DCCE37557EC";
shapes = (
{
closed = 1;
nodes = (
(287,-8,o),
(324,20,o),
(343,62,c),
(362,19,o),
(400,-6,o),
(459,-8,cs),
(576,-12,o),
(628,44,o),
(628,163,cs),
(628,201,l),
(521,201,l),
(521,162,ls),
(521,98,o),
(503,77,o),
(459,80,cs),
(394,83,o),
(396,179,o),
(396,255,cs),
(396,291,l),
(628,291,l),
(628,340,ls),
(628,498,o),
(603,586,o),
(474,586,cs),
(411,586,o),
(364,561,o),
(343,518,c),
(322,558,o),
(285,586,o),
(221,586,cs),
(97,586,o),
(57,504,o),
(57,375,cs),
(57,203,ls),
(57,73,o),
(98,-8,o),
(226,-8,cs)
);
},
{
closed = 1;
nodes = (
(165,80,o),
(164,139,o),
(164,203,cs),
(164,375,ls),
(164,439,o),
(165,499,o),
(226,499,cs),
(288,499,o),
(289,439,o),
(289,375,cs),
(289,203,ls),
(289,139,o),
(288,80,o),
(226,80,cs)
);
},
{
closed = 1;
nodes = (
(396,376,ls),
(396,439,o),
(403,499,o),
(459,499,cs),
(518,499,o),
(521,436,o),
(521,376,cs),
(521,345,l),
(396,345,l)
);
}
);
width = 685;
},
{
anchors = (
{
name = bottom;
pos = (314,0);
},
{
name = top;
pos = (314,578);
}
);
layerId = "6AC43539-1FDC-4B97-8460-9A098675B85D";
shapes = (
{
closed = 1;
nodes = (
(262,-9,o),
(301,22,o),
(316,85,c),
(334,15,o),
(382,-9,o),
(436,-9,cs),
(544,-11,o),
(580,53,o),
(580,152,cs),
(580,195,l),
(527,195,l),
(527,151,ls),
(527,38,o),
(476,33,o),
(436,33,c),
(369,35,o),
(342,84,o),
(342,223,cs),
(342,303,l),
(579,303,l),
(580,359,ls),
(580,524,o),
(543,587,o),
(438,587,cs),
(384,587,o),
(336,569,o),
(315,498,c),
(301,555,o),
(261,587,o),
(195,587,cs),
(81,587,o),
(50,511,o),
(50,368,cs),
(50,210,ls),
(50,65,o),
(81,-9,o),
(195,-9,cs)
);
},
{
closed = 1;
nodes = (
(111,33,o),
(103,100,o),
(103,210,cs),
(103,368,ls),
(103,479,o),
(111,545,o),
(195,545,cs),
(280,545,o),
(289,479,o),
(289,368,cs),
(289,210,ls),
(289,100,o),
(280,33,o),
(195,33,cs)
);
},
{
closed = 1;
nodes = (
(342,374,ls),
(342,502,o),
(370,545,o),
(437,545,cs),
(520,545,o),
(527,470,o),
(527,369,cs),
(527,334,l),
(342,334,l)
);
}
);
width = 627;
}
);
unicode = 339;
},
{
glyphname = p;
kernLeft = p;
kernRight = o;
lastChange = "2025-05-07 12:24:44 +0000";
layers = (
{
anchors = (
{
name = bottom;
pos = (261,0);
},
{
name = top;
pos = (261,578);
}
);
layerId = "249F2D81-707B-4084-8FA6-2290A2E02600";
shapes = (
{
closed = 1;
nodes = (
(229,-190,l),
(229,44,l),
(271,9,o),
(317,-11,o),
(359,-11,cs),
(432,-11,o),
(480,48,o),
(480,151,cs),
(480,432,ls),
(480,533,o),
(437,585,o),
(359,589,cs),
(321,590,o),
(273,574,o),
(229,537,c),
(229,578,l),
(50,578,l),
(50,-190,l)
);
},
{
closed = 1;
nodes = (
(253,101,o),
(241,105,o),
(229,112,c),
(229,470,l),
(242,479,o),
(253,485,o),
(263,487,cs),
(286,490,o),
(301,470,o),
(301,448,cs),
(301,140,ls),
(301,118,o),
(286,100,o),
(263,101,c)
);
}
);
width = 522;
},
{
anchors = (
{
name = bottom;
pos = (223,0);
},
{
name = top;
pos = (223,578);
}
);
layerId = "B4C1A060-68FB-4CB1-AF3F-8DCCE37557EC";
shapes = (
{
closed = 1;
nodes = (
(161,-190,l),
(161,43,l),
(186,16,o),
(218,-8,o),
(259,-8,cs),
(373,-8,o),
(403,106,o),
(403,229,cs),
(403,369,ls),
(403,438,o),
(392,586,o),
(271,586,cs),
(222,586,o),
(186,561,o),
(161,532,c),
(161,578,l),
(54,578,l),
(54,-190,l)
);
},
{
closed = 1;
nodes = (
(206,76,o),
(181,87,o),
(161,102,c),
(161,472,l),
(180,488,o),
(206,502,o),
(234,502,cs),
(289,502,o),
(296,441,o),
(296,369,cs),
(296,229,ls),
(296,144,o),
(293,76,o),
(238,76,cs)
);
}
);
width = 446;
},
{
anchors = (
{
name = bottom;
pos = (200,0);
},
{
name = top;
pos = (200,578);
}
);
layerId = "6AC43539-1FDC-4B97-8460-9A098675B85D";
shapes = (
{
closed = 1;
nodes = (
(110,-190,l),
(110,48,l),
(131,22,o),
(166,-9,o),
(216,-9,cs),
(320,-9,o),
(352,76,o),
(352,238,cs),
(352,349,ls),
(352,494,o),
(328,587,o),
(221,587,cs),
(168,587,o),
(132,557,o),
(110,529,c),
(110,578,l),
(57,578,l),
(57,-190,l)
);
},
{
closed = 1;
nodes = (
(168,32,o),
(133,57,o),
(110,84,c),
(110,492,l),
(131,515,o),
(167,546,o),
(210,546,cs),
(285,546,o),
(299,487,o),
(299,349,cs),
(299,236,ls),
(299,95,o),
(282,32,o),
(210,32,cs)
);
}
);
width = 400;
}
);
unicode = 112;
},
{
glyphname = thorn;
kernLeft = h;
kernRight = o;
lastChange = "2025-05-07 12:24:44 +0000";
layers = (
{
layerId = "249F2D81-707B-4084-8FA6-2290A2E02600";
shapes = (
{
closed = 1;
nodes = (
(223,-190,l),
(223,43,l),
(264,9,o),
(309,-11,o),
(351,-11,cs),
(423,-11,o),
(472,48,o),
(472,151,cs),
(472,432,ls),
(472,533,o),
(429,585,o),
(352,589,c),
(313,590,o),
(267,574,o),
(223,537,c),
(223,810,l),
(43,810,l),
(43,-190,l)
);
},
{
closed = 1;
nodes = (
(246,101,o),
(234,105,o),
(223,112,c),
(223,470,l),
(235,479,o),
(247,485,o),
(256,487,c),
(279,490,o),
(292,470,o),
(292,448,cs),
(292,140,ls),
(292,118,o),
(279,100,o),
(256,101,c)
);
}
);
width = 507;
},
{
layerId = "B4C1A060-68FB-4CB1-AF3F-8DCCE37557EC";
shapes = (
{
closed = 1;
nodes = (
(162,-190,l),
(162,43,l),
(187,16,o),
(219,-8,o),
(260,-8,cs),
(374,-8,o),
(404,106,o),
(404,229,cs),
(404,369,ls),
(404,438,o),
(393,586,o),
(272,586,cs),
(222,586,o),
(187,561,o),
(162,532,c),
(162,810,l),
(55,810,l),
(55,-190,l)
);
},
{
closed = 1;
nodes = (
(207,76,o),
(182,87,o),
(162,102,c),
(162,472,l),
(181,488,o),
(206,502,o),
(234,502,cs),
(290,502,o),
(297,441,o),
(297,369,cs),
(297,229,ls),
(297,144,o),
(293,76,o),
(239,76,cs)
);
}
);
width = 447;
},
{
layerId = "6AC43539-1FDC-4B97-8460-9A098675B85D";
shapes = (
{
closed = 1;
nodes = (
(111,-190,l),
(111,48,l),
(131,22,o),
(167,-9,o),
(216,-9,cs),
(320,-9,o),
(352,76,o),
(352,238,cs),
(352,349,ls),
(352,494,o),
(328,587,o),
(222,587,cs),
(168,587,o),
(132,557,o),
(111,529,c),
(111,810,l),
(58,810,l),
(58,-190,l)
);
},
{
closed = 1;
nodes = (
(168,32,o),
(133,57,o),
(111,84,c),
(111,492,l),
(131,515,o),
(167,546,o),
(211,546,cs),
(286,546,o),
(299,487,o),
(299,349,cs),
(299,236,ls),
(299,95,o),
(282,32,o),
(210,32,cs)
);
}
);
width = 398;
}
);
unicode = 254;
},
{
glyphname = q;
kernLeft = o;
kernRight = q;
lastChange = "2025-05-07 12:24:44 +0000";
layers = (
{
anchors = (
{
name = bottom;
pos = (261,0);
},
{
name = top;
pos = (261,578);
}
);
layerId = "249F2D81-707B-4084-8FA6-2290A2E02600";
shapes = (
{
closed = 1;
nodes = (
(474,-190,l),
(474,578,l),
(295,578,l),
(295,539,l),
(259,570,o),
(218,589,o),
(173,589,cs),
(92,589,o),
(41,526,o),
(41,427,cs),
(41,151,ls),
(41,48,o),
(89,-11,o),
(172,-11,cs),
(213,-11,o),
(255,12,o),
(295,51,c),
(295,-190,l)
);
},
{
closed = 1;
nodes = (
(235,99,o),
(221,118,o),
(221,140,cs),
(221,436,ls),
(221,463,o),
(234,482,o),
(259,482,cs),
(270,482,o),
(282,478,o),
(295,471,c),
(295,114,l),
(280,105,o),
(267,99,o),
(257,99,cs)
);
}
);
width = 522;
},
{
anchors = (
{
name = bottom;
pos = (222,0);
},
{
name = top;
pos = (222,578);
}
);
layerId = "B4C1A060-68FB-4CB1-AF3F-8DCCE37557EC";
shapes = (
{
closed = 1;
nodes = (
(389,-190,l),
(389,578,l),
(282,578,l),
(282,541,l),
(257,566,o),
(225,586,o),
(186,586,cs),
(68,586,o),
(44,471,o),
(44,339,cs),
(44,227,ls),
(44,56,o),
(91,-9,o),
(189,-8,cs),
(227,-8,o),
(257,10,o),
(282,37,c),
(282,-190,l)
);
},
{
closed = 1;
nodes = (
(159,76,o),
(151,137,o),
(151,218,cs),
(151,381,ls),
(151,447,o),
(164,502,o),
(214,502,cs),
(240,502,o),
(263,490,o),
(282,477,c),
(282,98,l),
(260,83,o),
(236,76,o),
(216,76,cs)
);
}
);
width = 443;
},
{
anchors = (
{
name = bottom;
pos = (198,0);
},
{
name = top;
pos = (198,578);
}
);
layerId = "6AC43539-1FDC-4B97-8460-9A098675B85D";
shapes = (
{
closed = 1;
nodes = (
(340,-190,l),
(340,578,l),
(287,578,l),
(287,533,l),
(266,560,o),
(230,587,o),
(182,587,cs),
(76,587,o),
(48,503,o),
(48,340,cs),
(48,237,ls),
(48,62,o),
(84,-9,o),
(184,-9,cs),
(232,-9,o),
(266,19,o),
(287,44,c),
(287,-190,l)
);
},
{
closed = 1;
nodes = (
(119,32,o),
(102,93,o),
(102,233,cs),
(102,353,ls),
(102,488,o),
(116,546,o),
(190,546,cs),
(231,546,o),
(266,517,o),
(287,495,c),
(287,82,l),
(263,55,o),
(230,32,o),
(192,32,cs)
);
}
);
width = 396;
}
);
unicode = 113;
},
{
glyphname = r;
kernLeft = n;
kernRight = r;
lastChange = "2025-05-07 12:24:44 +0000";
layers = (
{
anchors = (
{
name = bottom;
pos = (142,0);
},
{
name = top;
pos = (202,578);
}
);
layerId = "249F2D81-707B-4084-8FA6-2290A2E02600";
shapes = (
{
closed = 1;
nodes = (
(231,0,l),
(231,355,l),
(263,401,o),
(301,427,o),
(353,431,c),
(358,431,o),
(363,431,o),
(368,431,c),
(368,580,l),
(359,583,o),
(351,585,o),
(343,585,cs),
(300,585,o),
(263,543,o),
(231,478,c),
(231,578,l),
(52,578,l),
(52,0,l)
);
}
);
width = 386;
},
{
anchors = (
{
name = bottom;
pos = (111,0);
},
{
name = top;
pos = (184,578);
}
);
layerId = "B4C1A060-68FB-4CB1-AF3F-8DCCE37557EC";
shapes = (
{
closed = 1;
nodes = (
(164,0,l),
(164,422,l),
(191,466,o),
(217,478,o),
(250,478,cs),
(271,478,o),
(293,472,o),
(309,466,c),
(309,584,l),
(301,585,o),
(297,585,o),
(292,585,cs),
(249,585,o),
(206,566,o),
(164,496,c),
(164,578,l),
(57,578,l),
(57,0,l)
);
}
);
width = 321;
},
{
anchors = (
{
name = bottom;
pos = (91,0);
},
{
name = top;
pos = (162,578);
}
);
layerId = "6AC43539-1FDC-4B97-8460-9A098675B85D";
shapes = (
{
closed = 1;
nodes = (
(117,0,l),
(117,457,l),
(146,505,o),
(188,531,o),
(242,531,cs),
(248,531,o),
(259,530,o),
(264,528,c),
(264,583,l),
(262,583,o),
(255,584,o),
(254,584,cs),
(209,584,o),
(151,557,o),
(117,500,c),
(117,578,l),
(64,578,l),
(64,0,l)
);
}
);
width = 283;
}
);
unicode = 114;
},
{
glyphname = s;
kernLeft = s;
kernRight = s;
layers = (
{
anchors = (
{
name = bottom;
pos = (219,0);
},
{
name = top;
pos = (219,578);
}
);
layerId = "249F2D81-707B-4084-8FA6-2290A2E02600";
shapes = (
{
closed = 1;
nodes = (
(327,-11,o),
(423,47,o),
(423,149,cs),
(423,223,o),
(364,271,o),
(312,315,cs),
(289,334,ls),
(231,382,o),
(193,411,o),
(193,439,cs),
(193,455,o),
(203,465,o),
(222,465,cs),
(255,465,o),
(287,417,o),
(300,386,c),
(415,441,l),
(383,539,o),
(314,589,o),
(218,589,cs),
(121,589,o),
(31,520,o),
(31,424,cs),
(31,351,o),
(71,309,o),
(139,252,cs),
(164,231,ls),
(211,192,o),
(253,164,o),
(253,140,cs),
(253,120,o),
(243,108,o),
(222,108,cs),
(191,108,o),
(160,139,o),
(136,185,c),
(18,129,l),
(68,25,o),
(133,-11,o),
(231,-11,cs)
);
}
);
width = 438;
},
{
anchors = (
{
name = bottom;
pos = (187,0);
},
{
name = top;
pos = (187,578);
}
);
layerId = "B4C1A060-68FB-4CB1-AF3F-8DCCE37557EC";
shapes = (
{
closed = 1;
nodes = (
(283,-8,o),
(348,41,o),
(348,140,cs),
(348,214,o),
(308,259,o),
(266,296,c),
(164,390,l),
(143,408,o),
(135,427,o),
(135,448,c),
(134,480,o),
(157,507,o),
(192,507,cs),
(238,507,o),
(255,467,o),
(263,407,c),
(335,434,l),
(328,518,o),
(280,586,o),
(188,586,cs),
(98,586,o),
(42,535,o),
(39,444,c),
(38,376,o),
(70,337,o),
(110,303,cs),
(209,218,ls),
(240,191,o),
(254,163,o),
(256,137,cs),
(258,99,o),
(231,71,o),
(192,71,cs),
(146,71,o),
(123,107,o),
(114,181,c),
(25,154,l),
(33,57,o),
(93,-8,o),
(188,-8,cs)
);
}
);
width = 374;
},
{
anchors = (
{
name = bottom;
pos = (178,0);
},
{
name = top;
pos = (178,578);
}
);
layerId = "6AC43539-1FDC-4B97-8460-9A098675B85D";
shapes = (
{
closed = 1;
nodes = (
(274,-9,o),
(329,40,o),
(329,124,cs),
(328,207,o),
(276,254,o),
(224,299,c),
(155,360,l),
(107,400,o),
(96,427,o),
(96,470,cs),
(95,521,o),
(130,547,o),
(181,547,cs),
(233,547,o),
(267,514,o),
(270,424,c),
(309,436,l),
(306,528,o),
(264,587,o),
(178,587,cs),
(99,587,o),
(47,543,o),
(47,464,c),
(46,406,o),
(72,366,o),
(130,317,cs),
(197,260,ls),
(256,210,o),
(281,166,o),
(282,125,cs),
(282,65,o),
(248,31,o),
(190,31,cs),
(125,31,o),
(86,72,o),
(79,169,c),
(34,156,l),
(42,54,o),
(97,-9,o),
(188,-9,cs)
);
}
);
width = 356;
}
);
unicode = 115;
},
{
glyphname = germandbls;
layers = (
{
layerId = "249F2D81-707B-4084-8FA6-2290A2E02600";
shapes = (
{
closed = 1;
nodes = (
(263,-17,l),
(428,-17,o),
(535,46,o),
(535,225,cs),
(535,319,o),
(470,399,o),
(362,431,c),
(453,465,o),
(486,529,o),
(486,602,cs),
(486,740,o),
(419,823,o),
(260,823,cs),
(95,823,o),
(42,703,o),
(42,594,cs),
(42,0,l),
(221,0,l),
(221,594,l),
(219,658,o),
(231,703,o),
(278,703,cs),
(319,703,o),
(338,666,o),
(338,598,cs),
(338,515,o),
(312,480,o),
(272,480,c),
(273,345,l),
(313,345,o),
(352,305,o),
(356,250,cs),
(365,147,o),
(321,117,o),
(263,117,c)
);
}
);
width = 550;
},
{
layerId = "B4C1A060-68FB-4CB1-AF3F-8DCCE37557EC";
shapes = (
{
closed = 1;
nodes = (
(223,-9,l),
(391,-9,o),
(459,79,o),
(459,232,cs),
(459,333,o),
(413,406,o),
(330,428,c),
(395,462,o),
(429,516,o),
(429,611,cs),
(429,745,o),
(367,819,o),
(241,819,cs),
(120,819,o),
(59,738,o),
(59,612,cs),
(59,0,l),
(166,0,l),
(166,613,ls),
(166,687,o),
(181,731,o),
(244,731,cs),
(310,731,o),
(324,680,o),
(324,611,cs),
(324,538,o),
(303,464,o),
(231,464,c),
(230,375,l),
(315,375,o),
(353,316,o),
(353,232,cs),
(353,135,o),
(331,80,o),
(223,80,c)
);
}
);
width = 515;
},
{
layerId = "6AC43539-1FDC-4B97-8460-9A098675B85D";
shapes = (
{
closed = 1;
nodes = (
(170,-11,l),
(392,-11,o),
(438,121,o),
(438,240,cs),
(438,336,o),
(405,432,o),
(299,456,c),
(365,477,o),
(396,538,o),
(396,634,cs),
(396,766,o),
(331,829,o),
(229,829,cs),
(122,829,o),
(64,782,o),
(64,610,cs),
(64,0,l),
(117,0,l),
(117,611,ls),
(117,760,o),
(159,787,o),
(230,787,cs),
(311,787,o),
(344,734,o),
(344,634,cs),
(344,548,o),
(318,475,o),
(229,475,c),
(227,430,l),
(351,430,o),
(386,334,o),
(386,237,cs),
(386,144,o),
(354,34,o),
(170,34,c)
);
}
);
width = 484;
}
);
unicode = 223;
},
{
glyphname = t;
kernLeft = t;
kernRight = t;
layers = (
{
anchors = (
{
name = bottom;
pos = (221,0);
},
{
name = center;
pos = (184,289);
},
{
name = top;
pos = (154,756);
},
{
name = topright;
pos = (290,934);
}
);
layerId = "249F2D81-707B-4084-8FA6-2290A2E02600";
shapes = (
{
closed = 1;
nodes = (
(280,-9,o),
(323,0,o),
(341,3,c),
(341,146,l),
(340,146,o),
(319,140,o),
(296,141,cs),
(270,143,o),
(245,154,o),
(245,184,cs),
(245,461,l),
(324,461,l),
(324,578,l),
(245,578,l),
(245,756,l),
(63,756,l),
(63,578,l),
(9,578,l),
(9,461,l),
(63,461,l),
(63,225,ls),
(63,111,o),
(76,0,o),
(216,-6,cs)
);
}
);
width = 367;
},
{
anchors = (
{
name = bottom;
pos = (208,0);
},
{
name = center;
pos = (154,289);
},
{
name = top;
pos = (137,747);
},
{
name = topright;
pos = (233,865);
}
);
layerId = "B4C1A060-68FB-4CB1-AF3F-8DCCE37557EC";
shapes = (
{
closed = 1;
nodes = (
(235,-8,o),
(255,-6,o),
(282,-2,c),
(282,77,l),
(269,75,o),
(253,74,o),
(243,74,cs),
(201,74,o),
(190,92,o),
(190,137,cs),
(190,507,l),
(283,507,l),
(283,578,l),
(190,578,l),
(190,747,l),
(83,747,l),
(83,578,l),
(22,578,l),
(22,507,l),
(83,507,l),
(83,130,l),
(84,42,o),
(117,-8,o),
(208,-8,cs)
);
}
);
width = 308;
},
{
anchors = (
{
name = bottom;
pos = (184,0);
},
{
name = center;
pos = (132,289);
},
{
name = top;
pos = (119,763);
},
{
name = topright;
pos = (185,830);
}
);
layerId = "6AC43539-1FDC-4B97-8460-9A098675B85D";
shapes = (
{
closed = 1;
nodes = (
(200,-6,o),
(222,-4,o),
(238,0,c),
(238,41,l),
(224,38,o),
(208,36,o),
(195,36,cs),
(152,36,o),
(145,58,o),
(145,121,cs),
(145,543,l),
(243,543,l),
(243,578,l),
(145,578,l),
(145,763,l),
(92,763,l),
(92,578,l),
(16,578,l),
(16,543,l),
(92,543,l),
(92,114,ls),
(92,46,o),
(103,-6,o),
(184,-6,cs)
);
}
);
width = 263;
}
);
unicode = 116;
},
{
glyphname = tbar;
kernLeft = t;
kernRight = t;
lastChange = "2025-05-07 12:24:44 +0000";
layers = (
{
layerId = "249F2D81-707B-4084-8FA6-2290A2E02600";
shapes = (
{
closed = 1;
nodes = (
(322,292,l),
(322,367,l),
(9,367,l),
(9,292,l)
);
},
{
alignment = -1;
ref = t;
}
);
width = 364;
},
{
layerId = "B4C1A060-68FB-4CB1-AF3F-8DCCE37557EC";
shapes = (
{
closed = 1;
nodes = (
(290,340,l),
(290,395,l),
(26,395,l),
(26,340,l)
);
},
{
alignment = -1;
ref = t;
}
);
width = 244;
},
{
layerId = "6AC43539-1FDC-4B97-8460-9A098675B85D";
shapes = (
{
closed = 1;
nodes = (
(233,362,l),
(233,395,l),
(29,395,l),
(29,362,l)
);
},
{
alignment = -1;
ref = t;
}
);
width = 244;
}
);
unicode = 359;
},
{
glyphname = u;
kernLeft = u;
kernRight = u;
layers = (
{
anchors = (
{
name = bottom;
pos = (261,0);
},
{
name = ogonek;
pos = (383,0);
},
{
name = top;
pos = (261,578);
},
{
name = topright;
pos = (364,578);
}
);
layerId = "249F2D81-707B-4084-8FA6-2290A2E02600";
shapes = (
{
closed = 1;
nodes = (
(205,-11,o),
(250,12,o),
(293,52,c),
(293,0,l),
(472,0,l),
(472,578,l),
(293,578,l),
(293,120,l),
(277,112,o),
(264,108,o),
(253,107,cs),
(232,106,o),
(223,120,o),
(223,144,cs),
(223,578,l),
(44,578,l),
(44,129,ls),
(44,46,o),
(86,-11,o),
(157,-11,cs)
);
}
);
width = 522;
},
{
anchors = (
{
name = bottom;
pos = (220,0);
},
{
name = ogonek;
pos = (332,0);
},
{
name = top;
pos = (220,578);
},
{
name = topright;
pos = (303,578);
}
);
layerId = "B4C1A060-68FB-4CB1-AF3F-8DCCE37557EC";
shapes = (
{
closed = 1;
nodes = (
(193,-8,o),
(240,21,o),
(278,57,c),
(278,0,l),
(385,0,l),
(385,578,l),
(278,578,l),
(278,112,l),
(254,92,o),
(227,76,o),
(203,76,cs),
(166,76,o),
(157,101,o),
(157,142,cs),
(157,578,l),
(50,578,l),
(50,110,ls),
(50,54,o),
(68,-8,o),
(137,-8,cs)
);
}
);
width = 440;
},
{
anchors = (
{
name = bottom;
pos = (198,0);
},
{
name = ogonek;
pos = (311,0);
},
{
name = top;
pos = (198,578);
},
{
name = topright;
pos = (299,578);
}
);
layerId = "6AC43539-1FDC-4B97-8460-9A098675B85D";
shapes = (
{
closed = 1;
nodes = (
(198,-9,o),
(248,21,o),
(285,68,c),
(285,0,l),
(337,0,l),
(337,578,l),
(285,578,l),
(285,102,l),
(250,61,o),
(207,32,o),
(166,32,cs),
(129,32,o),
(105,52,o),
(105,123,cs),
(105,578,l),
(52,578,l),
(52,117,ls),
(52,25,o),
(91,-9,o),
(143,-9,cs)
);
}
);
width = 395;
}
);
unicode = 117;
},
{
glyphname = v;
kernRight = v;
lastChange = "2025-05-07 12:24:44 +0000";
layers = (
{
anchors = (
{
name = bottom;
pos = (216,0);
},
{
name = top;
pos = (216,578);
}
);
layerId = "249F2D81-707B-4084-8FA6-2290A2E02600";
shapes = (
{
closed = 1;
nodes = (
(305,0,l),
(427,578,l),
(256,578,l),
(220,237,l),
(179,578,l),
(9,578,l),
(125,0,l)
);
}
);
width = 432;
},
{
anchors = (
{
name = bottom;
pos = (193,0);
},
{
name = top;
pos = (193,578);
}
);
layerId = "B4C1A060-68FB-4CB1-AF3F-8DCCE37557EC";
shapes = (
{
closed = 1;
nodes = (
(260,0,l),
(370,578,l),
(266,578,l),
(194,113,l),
(123,578,l),
(15,578,l),
(129,0,l)
);
}
);
width = 385;
},
{
anchors = (
{
name = bottom;
pos = (179,0);
},
{
name = top;
pos = (179,578);
}
);
layerId = "6AC43539-1FDC-4B97-8460-9A098675B85D";
shapes = (
{
closed = 1;
nodes = (
(211,0,l),
(338,578,l),
(287,578,l),
(181,67,l),
(73,578,l),
(19,578,l),
(152,0,l)
);
}
);
width = 357;
}
);
unicode = 118;
},
{
glyphname = w;
kernLeft = w;
kernRight = w;
layers = (
{
anchors = (
{
name = bottom;
pos = (300,0);
},
{
name = top;
pos = (300,578);
}
);
layerId = "249F2D81-707B-4084-8FA6-2290A2E02600";
shapes = (
{
closed = 1;
nodes = (
(252,0,l),
(302,301,l),
(343,0,l),
(497,0,l),
(581,578,l),
(443,578,l),
(398,268,l),
(370,578,l),
(242,578,l),
(206,278,l),
(169,578,l),
(19,578,l),
(102,0,l)
);
}
);
width = 600;
},
{
anchors = (
{
name = bottom;
pos = (294,0);
},
{
name = top;
pos = (294,578);
}
);
layerId = "B4C1A060-68FB-4CB1-AF3F-8DCCE37557EC";
shapes = (
{
closed = 1;
nodes = (
(217,0,l),
(295,408,l),
(374,0,l),
(464,0,l),
(560,578,l),
(472,578,l),
(412,154,l),
(335,578,l),
(253,578,l),
(176,152,l),
(116,578,l),
(28,578,l),
(121,0,l)
);
}
);
width = 588;
},
{
anchors = (
{
name = bottom;
pos = (283,0);
},
{
name = top;
pos = (283,578);
}
);
layerId = "6AC43539-1FDC-4B97-8460-9A098675B85D";
shapes = (
{
closed = 1;
nodes = (
(188,0,l),
(286,507,l),
(386,0,l),
(441,0,l),
(534,578,l),
(487,578,l),
(412,63,l),
(311,578,l),
(259,578,l),
(160,61,l),
(80,578,l),
(33,578,l),
(128,0,l)
);
}
);
width = 566;
}
);
unicode = 119;
},
{
glyphname = x;
layers = (
{
anchors = (
{
name = bottom;
pos = (229,0);
},
{
name = top;
pos = (229,578);
}
);
layerId = "249F2D81-707B-4084-8FA6-2290A2E02600";
shapes = (
{
closed = 1;
nodes = (
(156,0,l),
(208,148,l),
(273,0,l),
(457,0,l),
(327,293,l),
(436,578,l),
(305,578,l),
(256,452,l),
(200,578,l),
(19,578,l),
(132,321,l),
(11,0,l)
);
}
);
width = 458;
},
{
anchors = (
{
name = bottom;
pos = (195,0);
},
{
name = top;
pos = (195,578);
}
);
layerId = "B4C1A060-68FB-4CB1-AF3F-8DCCE37557EC";
shapes = (
{
closed = 1;
nodes = (
(110,0,l),
(188,196,l),
(279,0,l),
(381,0,l),
(247,291,l),
(379,578,l),
(274,578,l),
(199,395,l),
(114,578,l),
(12,578,l),
(139,304,l),
(9,0,l)
);
}
);
width = 389;
},
{
anchors = (
{
name = bottom;
pos = (188,0);
},
{
name = top;
pos = (188,578);
}
);
layerId = "6AC43539-1FDC-4B97-8460-9A098675B85D";
shapes = (
{
closed = 1;
nodes = (
(72,0,l),
(187,246,l),
(305,0,l),
(355,0,l),
(216,296,l),
(353,578,l),
(298,578,l),
(191,349,l),
(83,578,l),
(29,578,l),
(161,301,l),
(20,0,l)
);
}
);
width = 375;
}
);
unicode = 120;
},
{
glyphname = y;
kernLeft = v;
kernRight = v;
lastChange = "2025-05-07 12:24:44 +0000";
layers = (
{
anchors = (
{
name = bottom;
pos = (428,0);
},
{
name = top;
pos = (232,578);
}
);
layerId = "249F2D81-707B-4084-8FA6-2290A2E02600";
shapes = (
{
closed = 1;
nodes = (
(99,-175,l),
(195,-176,o),
(292,-146,o),
(318,-32,cs),
(454,578,l),
(287,578,l),
(238,272,l),
(167,578,l),
(0,578,l),
(1,572,o),
(140,99,o),
(142,93,cs),
(147,74,o),
(163,14,o),
(163,-2,cs),
(164,-48,o),
(129,-53,o),
(73,-53,c),
(73,-175,l)
);
}
);
width = 464;
},
{
anchors = (
{
name = bottom;
pos = (318,0);
},
{
name = top;
pos = (196,578);
}
);
layerId = "B4C1A060-68FB-4CB1-AF3F-8DCCE37557EC";
shapes = (
{
closed = 1;
nodes = (
(58,-145,l),
(163,-145,o),
(224,-116,o),
(243,-32,cs),
(381,578,l),
(273,578,l),
(198,146,l),
(120,578,l),
(12,578,l),
(46,432,o),
(93,232,o),
(128,86,cs),
(134,60,o),
(141,32,o),
(146,6,c),
(159,-50,o),
(140,-63,o),
(45,-63,c),
(45,-145,l)
);
}
);
width = 392;
},
{
anchors = (
{
name = bottom;
pos = (270,0);
},
{
name = top;
pos = (188,578);
}
);
layerId = "6AC43539-1FDC-4B97-8460-9A098675B85D";
shapes = (
{
closed = 1;
nodes = (
(59,-144,l),
(153,-144,o),
(196,-115,o),
(212,-47,cs),
(353,578,l),
(300,578,l),
(190,50,l),
(76,578,l),
(24,578,l),
(34,536,o),
(135,101,o),
(145,59,cs),
(151,31,o),
(160,-2,o),
(162,-21,c),
(165,-73,o),
(151,-101,o),
(37,-101,c),
(37,-144,l)
);
}
);
width = 375;
}
);
unicode = 121;
},
{
glyphname = z;
kernLeft = z;
kernRight = z;
layers = (
{
anchors = (
{
name = bottom;
pos = (203,0);
},
{
name = top;
pos = (203,578);
}
);
layerId = "249F2D81-707B-4084-8FA6-2290A2E02600";
shapes = (
{
closed = 1;
nodes = (
(379,0,l),
(379,130,l),
(220,130,l),
(375,467,l),
(375,578,l),
(46,578,l),
(46,448,l),
(190,448,l),
(36,115,l),
(36,0,l)
);
}
);
width = 405;
},
{
anchors = (
{
name = bottom;
pos = (174,0);
},
{
name = top;
pos = (174,578);
}
);
layerId = "B4C1A060-68FB-4CB1-AF3F-8DCCE37557EC";
shapes = (
{
closed = 1;
nodes = (
(320,0,l),
(320,81,l),
(146,81,l),
(324,520,l),
(324,578,l),
(50,578,l),
(50,498,l),
(209,498,l),
(32,72,l),
(32,0,l)
);
}
);
width = 347;
},
{
anchors = (
{
name = bottom;
pos = (163,0);
},
{
name = top;
pos = (163,578);
}
);
layerId = "6AC43539-1FDC-4B97-8460-9A098675B85D";
shapes = (
{
closed = 1;
nodes = (
(292,0,l),
(292,41,l),
(88,41,l),
(295,543,l),
(295,578,l),
(54,578,l),
(54,537,l),
(241,537,l),
(32,39,l),
(32,0,l)
);
}
);
width = 325;
}
);
unicode = 122;
},
{
glyphname = f_f_i;
kernLeft = f;
kernRight = i;
lastChange = "2025-05-07 12:24:44 +0000";
layers = (
{
layerId = "249F2D81-707B-4084-8FA6-2290A2E02600";
shapes = (
{
closed = 1;
nodes = (
(238,0,l),
(238,461,l),
(332,461,l),
(332,0,l),
(511,0,l),
(511,461,l),
(602,461,l),
(602,0,l),
(781,0,l),
(781,578,l),
(511,578,l),
(511,624,ls),
(511,652,o),
(524,659,o),
(540,659,cs),
(549,659,o),
(560,657,o),
(569,655,c),
(569,788,l),
(539,792,o),
(524,793,o),
(500,793,cs),
(351,793,o),
(332,725,o),
(332,625,cs),
(332,578,l),
(238,578,l),
(238,624,ls),
(238,652,o),
(250,659,o),
(266,659,cs),
(274,659,o),
(284,657,o),
(293,655,c),
(293,788,l),
(263,792,o),
(251,793,o),
(228,793,cs),
(78,793,o),
(59,725,o),
(59,625,cs),
(59,578,l),
(8,578,l),
(8,461,l),
(59,461,l),
(59,0,l)
);
},
{
closed = 1;
nodes = (
(781,679,l),
(781,793,l),
(620,793,l),
(620,679,l)
);
}
);
width = 823;
},
{
layerId = "B4C1A060-68FB-4CB1-AF3F-8DCCE37557EC";
shapes = (
{
closed = 1;
nodes = (
(195,0,l),
(195,499,l),
(329,499,l),
(329,0,l),
(435,0,l),
(435,499,l),
(569,499,l),
(569,0,l),
(675,0,l),
(675,578,l),
(435,578,l),
(435,626,ls),
(435,671,o),
(441,701,o),
(483,701,cs),
(495,701,o),
(511,697,o),
(523,696,c),
(523,776,l),
(495,779,o),
(480,781,o),
(454,781,cs),
(345,781,o),
(329,715,o),
(329,608,cs),
(329,578,l),
(195,578,l),
(195,626,ls),
(195,671,o),
(201,701,o),
(243,701,cs),
(255,701,o),
(271,697,o),
(283,696,c),
(283,776,l),
(255,779,o),
(240,781,o),
(213,781,cs),
(104,781,o),
(88,715,o),
(88,608,cs),
(88,578,l),
(19,578,l),
(19,499,l),
(88,499,l),
(88,0,l)
);
},
{
closed = 1;
nodes = (
(676,664,l),
(676,776,l),
(569,776,l),
(569,664,l)
);
}
);
width = 736;
},
{
layerId = "6AC43539-1FDC-4B97-8460-9A098675B85D";
shapes = (
{
closed = 1;
nodes = (
(148,0,l),
(148,541,l),
(328,541,l),
(328,0,l),
(381,0,l),
(381,541,l),
(558,541,l),
(558,0,l),
(611,0,l),
(611,578,l),
(381,578,l),
(381,657,ls),
(381,720,o),
(388,746,o),
(433,746,cs),
(445,746,o),
(462,742,o),
(475,740,c),
(475,780,l),
(459,785,o),
(439,787,o),
(422,787,cs),
(334,787,o),
(328,729,o),
(328,656,cs),
(328,578,l),
(148,578,l),
(148,657,ls),
(148,720,o),
(155,746,o),
(200,746,cs),
(212,746,o),
(229,742,o),
(242,740,c),
(242,780,l),
(226,785,o),
(206,787,o),
(189,787,cs),
(102,787,o),
(95,729,o),
(95,656,cs),
(95,578,l),
(17,578,l),
(17,541,l),
(95,541,l),
(95,0,l)
);
},
{
closed = 1;
nodes = (
(611,654,l),
(611,746,l),
(558,746,l),
(558,654,l)
);
}
);
width = 682;
}
);
},
{
glyphname = f_f_l;
kernLeft = f;
kernRight = l;
lastChange = "2025-05-07 12:24:44 +0000";
layers = (
{
anchors = (
{
name = bottom;
pos = (165,0);
},
{
name = top;
pos = (196,788);
}
);
layerId = "249F2D81-707B-4084-8FA6-2290A2E02600";
shapes = (
{
closed = 1;
nodes = (
(383,809,o),
(366,712,o),
(366,625,cs),
(366,578,l),
(246,578,l),
(246,624,ls),
(246,652,o),
(263,660,o),
(282,660,cs),
(294,660,o),
(307,657,o),
(315,655,c),
(315,788,l),
(285,792,o),
(259,793,o),
(235,793,cs),
(86,793,o),
(67,725,o),
(67,625,cs),
(67,578,l),
(16,578,l),
(16,459,l),
(67,459,l),
(67,0,l),
(246,0,l),
(246,459,l),
(366,459,l),
(366,0,l),
(545,0,l),
(545,459,l),
(599,459,l),
(599,578,l),
(545,578,l),
(545,623,ls),
(545,660,o),
(551,691,o),
(622,691,cs),
(631,691,o),
(640,691,o),
(650,690,c),
(650,0,l),
(829,0,l),
(829,788,l),
(740,803,o),
(668,809,o),
(610,809,cs)
);
}
);
width = 882;
},
{
anchors = (
{
name = bottom;
pos = (144,0);
},
{
name = top;
pos = (196,776);
}
);
layerId = "B4C1A060-68FB-4CB1-AF3F-8DCCE37557EC";
shapes = (
{
closed = 1;
nodes = (
(353,801,o),
(349,693,o),
(349,608,cs),
(349,578,l),
(195,578,l),
(195,626,ls),
(195,671,o),
(201,701,o),
(243,701,cs),
(255,701,o),
(271,697,o),
(283,696,c),
(283,776,l),
(255,779,o),
(240,781,o),
(213,781,cs),
(104,781,o),
(88,715,o),
(88,608,cs),
(88,578,l),
(19,578,l),
(19,499,l),
(88,499,l),
(88,0,l),
(195,0,l),
(195,499,l),
(349,499,l),
(349,0,l),
(456,0,l),
(456,499,l),
(544,499,l),
(544,578,l),
(456,578,l),
(456,610,ls),
(456,675,o),
(457,721,o),
(550,721,cs),
(567,721,o),
(587,720,o),
(611,717,c),
(611,0,l),
(718,0,l),
(718,776,l),
(642,793,o),
(582,801,o),
(534,801,cs)
);
}
);
width = 776;
},
{
anchors = (
{
name = bottom;
pos = (128,0);
},
{
name = top;
pos = (170,780);
}
);
layerId = "6AC43539-1FDC-4B97-8460-9A098675B85D";
shapes = (
{
closed = 1;
nodes = (
(327,796,o),
(318,721,o),
(318,656,cs),
(318,578,l),
(148,578,l),
(148,657,ls),
(148,720,o),
(155,746,o),
(200,746,cs),
(212,746,o),
(229,742,o),
(242,740,c),
(242,780,l),
(226,785,o),
(206,787,o),
(189,787,cs),
(102,787,o),
(95,729,o),
(95,656,cs),
(95,578,l),
(17,578,l),
(17,541,l),
(95,541,l),
(95,0,l),
(148,0,l),
(148,541,l),
(318,541,l),
(318,0,l),
(371,0,l),
(371,541,l),
(468,541,l),
(468,578,l),
(371,578,l),
(371,653,ls),
(371,710,o),
(374,755,o),
(473,755,cs),
(494,755,o),
(518,753,o),
(548,750,c),
(548,0,l),
(601,0,l),
(601,780,l),
(547,791,o),
(504,796,o),
(469,796,cs)
);
}
);
width = 667;
}
);
metricLeft = f;
metricRight = l;
},
{
glyphname = fi;
kernLeft = f;
kernRight = i;
lastChange = "2025-05-07 12:24:44 +0000";
layers = (
{
layerId = "249F2D81-707B-4084-8FA6-2290A2E02600";
shapes = (
{
closed = 1;
nodes = (
(243,0,l),
(243,459,l),
(344,459,l),
(344,0,l),
(521,0,l),
(521,578,l),
(243,578,l),
(243,627,ls),
(243,661,o),
(259,669,o),
(277,669,cs),
(284,669,o),
(290,668,o),
(296,667,c),
(296,788,l),
(269,792,o),
(245,794,o),
(223,794,cs),
(98,794,o),
(64,724,o),
(64,625,cs),
(64,578,l),
(13,578,l),
(13,459,l),
(64,459,l),
(64,0,l)
);
},
{
closed = 1;
nodes = (
(521,679,l),
(521,793,l),
(354,793,l),
(354,679,l)
);
}
);
width = 569;
},
{
layerId = "B4C1A060-68FB-4CB1-AF3F-8DCCE37557EC";
shapes = (
{
closed = 1;
nodes = (
(195,0,l),
(195,499,l),
(324,499,l),
(324,0,l),
(431,0,l),
(431,578,l),
(195,578,l),
(195,626,ls),
(195,679,o),
(204,700,o),
(246,700,cs),
(256,700,o),
(269,698,o),
(283,696,c),
(283,776,l),
(262,779,o),
(242,780,o),
(225,780,cs),
(120,780,o),
(88,723,o),
(88,608,cs),
(88,578,l),
(19,578,l),
(19,499,l),
(88,499,l),
(88,0,l)
);
},
{
closed = 1;
nodes = (
(432,664,l),
(432,776,l),
(334,776,l),
(334,664,l)
);
}
);
width = 491;
},
{
layerId = "6AC43539-1FDC-4B97-8460-9A098675B85D";
shapes = (
{
closed = 1;
nodes = (
(148,0,l),
(148,541,l),
(305,541,l),
(305,0,l),
(358,0,l),
(358,578,l),
(148,578,l),
(148,657,ls),
(148,723,o),
(155,745,o),
(200,745,cs),
(213,745,o),
(229,743,o),
(242,740,c),
(242,780,l),
(228,784,o),
(207,787,o),
(192,787,cs),
(105,787,o),
(95,731,o),
(95,656,cs),
(95,578,l),
(17,578,l),
(17,541,l),
(95,541,l),
(95,0,l)
);
},
{
closed = 1;
nodes = (
(358,654,l),
(358,746,l),
(308,746,l),
(308,654,l)
);
}
);
width = 429;
}
);
unicode = 64257;
},
{
glyphname = fl;
kernLeft = f;
kernRight = l;
lastChange = "2025-05-07 12:24:44 +0000";
layers = (
{
layerId = "249F2D81-707B-4084-8FA6-2290A2E02600";
shapes = (
{
closed = 1;
nodes = (
(238,0,l),
(238,454,l),
(292,454,l),
(292,578,l),
(238,578,l),
(238,593,o),
(238,608,o),
(238,623,cs),
(238,660,o),
(244,691,o),
(315,691,cs),
(324,691,o),
(333,691,o),
(343,690,c),
(343,0,l),
(522,0,l),
(522,788,l),
(433,803,o),
(361,809,o),
(303,809,cs),
(76,809,o),
(59,712,o),
(59,625,cs),
(59,578,l),
(8,578,l),
(8,454,l),
(59,454,l),
(59,0,l)
);
}
);
width = 562;
},
{
layerId = "B4C1A060-68FB-4CB1-AF3F-8DCCE37557EC";
shapes = (
{
closed = 1;
nodes = (
(195,0,l),
(195,499,l),
(283,499,l),
(283,578,l),
(195,578,l),
(195,589,o),
(195,599,o),
(195,610,cs),
(195,675,o),
(196,721,o),
(289,721,cs),
(306,721,o),
(326,720,o),
(350,717,c),
(350,0,l),
(457,0,l),
(457,776,l),
(381,793,o),
(321,801,o),
(273,801,cs),
(92,801,o),
(88,693,o),
(88,608,cs),
(88,578,l),
(19,578,l),
(19,499,l),
(88,499,l),
(88,0,l)
);
}
);
width = 515;
},
{
layerId = "6AC43539-1FDC-4B97-8460-9A098675B85D";
shapes = (
{
closed = 1;
nodes = (
(148,0,l),
(148,541,l),
(245,541,l),
(245,578,l),
(148,578,l),
(148,610,o),
(148,652,o),
(148,653,cs),
(148,710,o),
(151,755,o),
(250,755,cs),
(271,755,o),
(295,753,o),
(325,750,c),
(325,0,l),
(378,0,l),
(378,780,l),
(324,791,o),
(281,796,o),
(246,796,cs),
(104,796,o),
(95,721,o),
(95,656,cs),
(95,578,l),
(17,578,l),
(17,541,l),
(95,541,l),
(95,0,l)
);
}
);
width = 444;
}
);
unicode = 64258;
},
{
glyphname = ordfeminine;
kernLeft = order;
lastChange = "2025-05-07 12:24:44 +0000";
layers = (
{
layerId = "249F2D81-707B-4084-8FA6-2290A2E02600";
shapes = (
{
closed = 1;
nodes = (
(238,311,o),
(272,347,o),
(287,388,c),
(298,320,l),
(439,320,l),
(439,674,ls),
(439,757,o),
(381,821,o),
(269,821,cs),
(145,821,o),
(66,771,o),
(65,644,c),
(221,639,l),
(228,693,o),
(232,708,o),
(253,708,cs),
(272,708,o),
(278,693,o),
(278,677,cs),
(278,623,l),
(202,595,o),
(50,565,o),
(50,433,cs),
(50,375,o),
(94,313,o),
(184,311,c)
);
},
{
closed = 1;
nodes = (
(220,411,o),
(201,429,o),
(201,459,cs),
(201,489,o),
(228,541,o),
(278,563,c),
(278,430,l),
(268,417,o),
(254,411,o),
(242,411,cs)
);
}
);
width = 494;
},
{
layerId = "B4C1A060-68FB-4CB1-AF3F-8DCCE37557EC";
shapes = (
{
closed = 1;
nodes = (
(226,321,o),
(264,352,o),
(284,391,c),
(284,327,l),
(370,327,l),
(370,628,ls),
(370,751,o),
(344,822,o),
(234,822,cs),
(145,822,o),
(95,755,o),
(93,657,c),
(181,657,l),
(181,706,o),
(194,745,o),
(233,745,cs),
(269,745,o),
(276,707,o),
(276,658,cs),
(276,605,l),
(179,571,o),
(77,544,o),
(77,432,cs),
(77,368,o),
(119,321,o),
(178,321,c)
);
},
{
closed = 1;
nodes = (
(188,403,o),
(172,421,o),
(172,454,cs),
(172,509,o),
(223,535,o),
(276,563,c),
(276,450,l),
(265,426,o),
(241,403,o),
(213,403,cs)
);
}
);
width = 443;
},
{
layerId = "6AC43539-1FDC-4B97-8460-9A098675B85D";
shapes = (
{
closed = 1;
nodes = (
(220,351,o),
(262,378,o),
(280,416,c),
(284,358,l),
(324,358,l),
(324,655,ls),
(324,770,o),
(298,820,o),
(209,820,cs),
(130,820,o),
(87,780,o),
(85,695,c),
(129,694,l),
(129,768,o),
(169,785,o),
(209,785,cs),
(259,785,o),
(277,755,o),
(277,660,cs),
(277,622,l),
(107,553,o),
(71,526,o),
(71,450,cs),
(71,390,o),
(111,351,o),
(173,351,c)
);
},
{
closed = 1;
nodes = (
(152,388,o),
(117,403,o),
(117,455,cs),
(117,522,o),
(152,538,o),
(277,595,c),
(277,453,l),
(258,417,o),
(227,388,o),
(183,388,cs)
);
}
);
width = 392;
}
);
unicode = 170;
},
{
glyphname = ordmasculine;
kernLeft = order;
lastChange = "2025-05-07 12:24:44 +0000";
layers = (
{
layerId = "249F2D81-707B-4084-8FA6-2290A2E02600";
shapes = (
{
closed = 1;
nodes = (
(346,311,o),
(425,358,o),
(425,460,cs),
(425,673,ls),
(425,774,o),
(346,822,o),
(246,822,cs),
(146,822,o),
(69,774,o),
(69,673,cs),
(69,460,ls),
(69,359,o),
(146,311,o),
(246,311,cs)
);
},
{
closed = 1;
nodes = (
(228,415,o),
(214,428,o),
(214,458,cs),
(214,675,ls),
(214,706,o),
(228,718,o),
(247,718,cs),
(267,718,o),
(281,707,o),
(281,675,cs),
(281,458,ls),
(281,427,o),
(267,415,o),
(247,415,cs)
);
}
);
width = 494;
},
{
layerId = "B4C1A060-68FB-4CB1-AF3F-8DCCE37557EC";
shapes = (
{
closed = 1;
nodes = (
(333,320,o),
(376,396,o),
(376,505,cs),
(376,637,ls),
(376,746,o),
(333,822,o),
(222,822,cs),
(105,822,o),
(67,750,o),
(67,637,cs),
(67,505,ls),
(67,392,o),
(104,320,o),
(222,320,cs)
);
},
{
closed = 1;
nodes = (
(160,398,o),
(156,455,o),
(156,517,cs),
(156,625,ls),
(156,688,o),
(160,743,o),
(220,743,cs),
(281,743,o),
(282,688,o),
(282,625,cs),
(282,517,ls),
(282,454,o),
(281,398,o),
(220,398,cs)
);
}
);
width = 443;
},
{
layerId = "6AC43539-1FDC-4B97-8460-9A098675B85D";
shapes = (
{
closed = 1;
nodes = (
(301,351,o),
(328,412,o),
(328,497,cs),
(328,674,ls),
(328,760,o),
(297,820,o),
(196,820,cs),
(94,820,o),
(64,761,o),
(64,674,cs),
(64,497,ls),
(64,410,o),
(90,351,o),
(196,351,cs)
);
},
{
closed = 1;
nodes = (
(124,384,o),
(105,432,o),
(105,498,cs),
(105,673,ls),
(105,739,o),
(125,787,o),
(195,787,cs),
(267,787,o),
(285,739,o),
(285,673,cs),
(285,498,ls),
(285,432,o),
(267,384,o),
(195,384,cs)
);
}
);
width = 392;
}
);
unicode = 186;
},
{
color = 8;
glyphname = "A-cy";
kernLeft = "A-cy";
kernRight = "A-cy";
lastChange = "2025-05-07 13:09:21 +0000";
layers = (
{
layerId = "249F2D81-707B-4084-8FA6-2290A2E02600";
shapes = (
{
closed = 1;
nodes = (
(198,0,l),
(222,162,l),
(328,162,l),
(353,0,l),
(534,0,l),
(389,810,l),
(158,810,l),
(11,0,l)
);
},
{
closed = 1;
nodes = (
(274,578,l),
(311,276,l),
(238,276,l)
);
}
);
width = 546;
},
{
layerId = "B4C1A060-68FB-4CB1-AF3F-8DCCE37557EC";
shapes = (
{
closed = 1;
nodes = (
(125,0,l),
(163,204,l),
(328,204,l),
(365,0,l),
(473,0,l),
(299,810,l),
(191,810,l),
(18,0,l)
);
},
{
closed = 1;
nodes = (
(246,650,l),
(313,285,l),
(178,285,l)
);
}
);
width = 491;
},
{
layerId = "6AC43539-1FDC-4B97-8460-9A098675B85D";
shapes = (
{
closed = 1;
nodes = (
(81,0,l),
(124,224,l),
(334,224,l),
(376,0,l),
(431,0,l),
(260,810,l),
(197,810,l),
(27,0,l)
);
},
{
closed = 1;
nodes = (
(229,744,l),
(327,264,l),
(132,264,l)
);
}
);
width = 458;
}
);
unicode = 1040;
},
{
color = 8;
glyphname = "Be-cy";
kernLeft = "Be-cy";
lastChange = "2025-05-07 13:09:21 +0000";
layers = (
{
layerId = "249F2D81-707B-4084-8FA6-2290A2E02600";
shapes = (
{
closed = 1;
nodes = (
(281,0,ls),
(414,0,o),
(537,42,o),
(537,247,cs),
(537,402,o),
(450,496,o),
(303,496,cs),
(261,496,l),
(261,677,l),
(486,677,l),
(486,810,l),
(63,810,l),
(63,0,l)
);
},
{
closed = 1;
nodes = (
(261,360,l),
(280,360,ls),
(340,360,o),
(352,297,o),
(354,252,cs),
(356,184,o),
(340,128,o),
(282,128,cs),
(261,128,l)
);
}
);
width = 571;
},
{
background = {
shapes = (
{
closed = 1;
nodes = (
(279,0,ls),
(424,0,o),
(487,91,o),
(487,231,cs),
(487,346,o),
(446,413,o),
(349,436,c),
(428,447,o),
(465,507,o),
(465,607,cs),
(465,746,o),
(395,810,o),
(249,810,cs),
(63,810,l),
(63,0,l)
);
},
{
closed = 1;
nodes = (
(176,386,l),
(243,386,ls),
(342,386,o),
(379,332,o),
(379,231,cs),
(379,126,o),
(353,81,o),
(252,81,cs),
(176,81,l)
);
},
{
closed = 1;
nodes = (
(176,726,l),
(203,726,ls),
(318,726,o),
(367,718,o),
(367,607,cs),
(367,511,o),
(338,472,o),
(243,472,cs),
(176,472,l)
);
}
);
};
layerId = "B4C1A060-68FB-4CB1-AF3F-8DCCE37557EC";
shapes = (
{
closed = 1;
nodes = (
(207,0,ls),
(382,0,o),
(461,70,o),
(461,237,cs),
(461,423,o),
(376,473,o),
(201,473,cs),
(176,473,l),
(176,728,l),
(411,728,l),
(411,810,l),
(63,810,l),
(63,0,l)
);
},
{
closed = 1;
nodes = (
(176,391,l),
(205,391,ls),
(319,391,o),
(354,348,o),
(354,238,cs),
(354,105,o),
(308,81,o),
(208,81,cs),
(176,81,l)
);
}
);
width = 494;
},
{
layerId = "6AC43539-1FDC-4B97-8460-9A098675B85D";
shapes = (
{
closed = 1;
nodes = (
(220,0,ls),
(377,0,o),
(435,95,o),
(435,229,cs),
(435,388,o),
(367,468,o),
(218,468,cs),
(129,468,l),
(129,768,l),
(386,768,l),
(386,810,l),
(74,810,l),
(74,0,l)
);
},
{
closed = 1;
nodes = (
(129,424,l),
(221,424,ls),
(340,424,o),
(379,351,o),
(379,230,cs),
(379,110,o),
(339,44,o),
(221,44,cs),
(129,44,l)
);
}
);
width = 470;
}
);
unicode = 1041;
},
{
color = 8;
glyphname = "Ve-cy";
kernLeft = "Be-cy";
kernRight = "Ve-cy";
lastChange = "2025-05-07 13:09:21 +0000";
layers = (
{
layerId = "249F2D81-707B-4084-8FA6-2290A2E02600";
shapes = (
{
closed = 1;
nodes = (
(322,0,ls),
(481,0,o),
(581,67,o),
(578,243,cs),
(576,357,o),
(525,426,o),
(433,435,c),
(504,449,o),
(549,498,o),
(552,595,cs),
(557,787,o),
(418,810,o),
(282,810,cs),
(63,810,l),
(63,0,l)
);
},
{
closed = 1;
nodes = (
(261,363,l),
(290,363,ls),
(363,363,o),
(387,334,o),
(387,247,cs),
(387,176,o),
(362,138,o),
(289,138,cs),
(261,138,l)
);
},
{
closed = 1;
nodes = (
(261,679,l),
(294,679,ls),
(347,679,o),
(379,639,o),
(379,589,cs),
(379,529,o),
(364,490,o),
(288,490,cs),
(261,490,l)
);
}
);
width = 608;
},
{
layerId = "B4C1A060-68FB-4CB1-AF3F-8DCCE37557EC";
shapes = (
{
closed = 1;
nodes = (
(279,0,ls),
(424,0,o),
(487,91,o),
(487,231,cs),
(487,346,o),
(446,413,o),
(349,436,c),
(428,447,o),
(465,507,o),
(465,607,cs),
(465,746,o),
(395,810,o),
(249,810,cs),
(63,810,l),
(63,0,l)
);
},
{
closed = 1;
nodes = (
(176,386,l),
(243,386,ls),
(342,386,o),
(379,332,o),
(379,231,cs),
(379,126,o),
(353,81,o),
(252,81,cs),
(176,81,l)
);
},
{
closed = 1;
nodes = (
(176,726,l),
(203,726,ls),
(318,726,o),
(367,718,o),
(367,607,cs),
(367,511,o),
(338,472,o),
(243,472,cs),
(176,472,l)
);
}
);
width = 524;
},
{
layerId = "6AC43539-1FDC-4B97-8460-9A098675B85D";
shapes = (
{
closed = 1;
nodes = (
(266,0,ls),
(422,0,o),
(447,114,o),
(447,236,cs),
(447,308,o),
(428,409,o),
(334,437,c),
(413,456,o),
(429,543,o),
(429,608,cs),
(429,720,o),
(391,810,o),
(242,810,cs),
(75,810,l),
(75,0,l)
);
},
{
closed = 1;
nodes = (
(129,412,l),
(267,412,ls),
(364,412,o),
(394,332,o),
(394,235,cs),
(394,104,o),
(366,43,o),
(259,43,cs),
(129,43,l)
);
},
{
closed = 1;
nodes = (
(129,766,l),
(229,766,ls),
(356,766,o),
(378,698,o),
(378,608,cs),
(378,524,o),
(355,455,o),
(266,455,cs),
(129,455,l)
);
}
);
width = 488;
}
);
unicode = 1042;
},
{
color = 8;
glyphname = "Ge-cy";
kernLeft = "Be-cy";
kernRight = "Ge-cy";
lastChange = "2025-05-07 13:09:21 +0000";
layers = (
{
anchors = (
{
name = bottomright;
pos = (465,0);
},
{
name = top;
pos = (243,810);
}
);
layerId = "249F2D81-707B-4084-8FA6-2290A2E02600";
shapes = (
{
closed = 1;
nodes = (
(261,0,l),
(261,663,l),
(420,663,l),
(420,810,l),
(63,810,l),
(63,0,l)
);
}
);
width = 447;
},
{
anchors = (
{
name = bottomright;
pos = (366,0);
},
{
name = top;
pos = (193,810);
}
);
layerId = "B4C1A060-68FB-4CB1-AF3F-8DCCE37557EC";
shapes = (
{
closed = 1;
nodes = (
(176,0,l),
(176,726,l),
(371,726,l),
(371,810,l),
(63,810,l),
(63,0,l)
);
}
);
width = 386;
},
{
anchors = (
{
name = bottomright;
pos = (349,0);
},
{
name = top;
pos = (185,810);
}
);
background = {
shapes = (
{
alignment = -1;
ref = F;
}
);
};
layerId = "6AC43539-1FDC-4B97-8460-9A098675B85D";
shapes = (
{
closed = 1;
nodes = (
(129,0,l),
(129,766,l),
(350,766,l),
(350,810,l),
(75,810,l),
(75,0,l)
);
}
);
width = 379;
}
);
metricRight = F;
unicode = 1043;
},
{
color = 8;
glyphname = "Gestroke-cy";
kernLeft = "Ghestroke-cy";
kernRight = "Ghestroke-cy";
lastChange = "2025-05-07 13:09:21 +0000";
layers = (
{
background = {
shapes = (
{
alignment = -1;
ref = F;
}
);
};
layerId = "249F2D81-707B-4084-8FA6-2290A2E02600";
shapes = (
{
closed = 1;
nodes = (
(372,354,l),
(372,449,l),
(-4,449,l),
(-4,354,l)
);
},
{
alignment = -1;
ref = "Ge-cy";
}
);
width = 447;
},
{
background = {
shapes = (
{
closed = 1;
nodes = (
(333,389,l),
(333,447,l),
(16,447,l),
(16,389,l)
);
},
{
alignment = -1;
ref = F;
}
);
};
layerId = "B4C1A060-68FB-4CB1-AF3F-8DCCE37557EC";
shapes = (
{
closed = 1;
nodes = (
(303,389,l),
(303,447,l),
(-4,447,l),
(-4,389,l)
);
},
{
alignment = -1;
ref = "Ge-cy";
}
);
width = 386;
},
{
background = {
shapes = (
{
closed = 1;
nodes = (
(305,340,l),
(305,372,l),
(37,372,l),
(37,340,l)
);
},
{
alignment = -1;
ref = F;
},
{
alignment = -1;
ref = F;
}
);
};
layerId = "6AC43539-1FDC-4B97-8460-9A098675B85D";
shapes = (
{
closed = 1;
nodes = (
(305,396,l),
(305,436,l),
(2,436,l),
(2,396,l)
);
},
{
alignment = -1;
ref = "Ge-cy";
}
);
width = 379;
}
);
metricRight = "=Ge-cy";
unicode = 1170;
},
{
color = 8;
glyphname = "Gemiddlehook-cy";
kernLeft = "Be-cy";
lastChange = "2025-05-07 13:09:21 +0000";
layers = (
{
layerId = "249F2D81-707B-4084-8FA6-2290A2E02600";
shapes = (
{
closed = 1;
nodes = (
(270,-165,ls),
(459,-165,o),
(509,-131,o),
(509,103,cs),
(509,324,ls),
(509,431,o),
(467,489,o),
(373,489,cs),
(339,489,o),
(298,480,o),
(252,462,c),
(252,357,l),
(268,364,o),
(282,368,o),
(294,368,cs),
(319,368,o),
(330,351,o),
(330,319,cs),
(330,102,ls),
(330,-37,o),
(321,-81,o),
(270,-81,cs),
(250,-81,l),
(250,-165,l)
);
},
{
alignment = -1;
ref = "Ge-cy";
}
);
width = 549;
},
{
layerId = "B4C1A060-68FB-4CB1-AF3F-8DCCE37557EC";
shapes = (
{
closed = 1;
nodes = (
(235,-147,ls),
(370,-147,o),
(396,-110,o),
(396,102,cs),
(396,375,ls),
(396,422,o),
(369,473,o),
(287,473,cs),
(218,473,o),
(164,435,o),
(160,432,c),
(160,377,l),
(164,380,o),
(208,403,o),
(243,403,cs),
(281,403,o),
(289,383,o),
(289,349,cs),
(289,80,ls),
(289,-52,o),
(275,-76,o),
(236,-76,cs),
(201,-76,l),
(201,-147,l)
);
},
{
alignment = -1;
ref = "Ge-cy";
}
);
width = 426;
},
{
layerId = "6AC43539-1FDC-4B97-8460-9A098675B85D";
shapes = (
{
closed = 1;
nodes = (
(207,-121,ls),
(344,-121,o),
(351,-43,o),
(351,101,cs),
(351,350,ls),
(351,427,o),
(301,455,o),
(246,455,cs),
(188,455,o),
(143,432,o),
(118,411,c),
(118,376,l),
(146,403,o),
(189,420,o),
(232,420,cs),
(269,420,o),
(298,404,o),
(298,345,cs),
(298,94,ls),
(298,-35,o),
(292,-82,o),
(202,-82,cs),
(184,-82,l),
(184,-121,l)
);
},
{
alignment = -1;
ref = "Ge-cy";
}
);
width = 396;
}
);
unicode = 1172;
},
{
color = 8;
glyphname = "Gestrokehook-cy";
lastChange = "2025-05-07 13:09:21 +0000";
layers = (
{
layerId = "6AC43539-1FDC-4B97-8460-9A098675B85D";
shapes = (
{
closed = 1;
nodes = (
(159,0,l),
(159,767,l),
(380,767,l),
(380,810,l),
(105,810,l),
(105,0,l)
);
},
{
closed = 1;
nodes = (
(160,-135,o),
(190,-95,o),
(190,-8,cs),
(190,40,l),
(135,40,l),
(135,-7,ls),
(135,-68,o),
(119,-91,o),
(43,-91,c),
(43,-133,l),
(54,-135,o),
(68,-135,o),
(75,-135,cs)
);
},
{
closed = 1;
nodes = (
(295,434,l),
(295,476,l),
(42,476,l),
(42,434,l)
);
}
);
width = 399;
},
{
layerId = "B4C1A060-68FB-4CB1-AF3F-8DCCE37557EC";
shapes = (
{
closed = 1;
nodes = (
(195,0,l),
(195,729,l),
(394,729,l),
(394,810,l),
(81,810,l),
(81,0,l)
);
},
{
closed = 1;
nodes = (
(203,-147,o),
(257,-91,o),
(257,0,cs),
(257,76,l),
(143,76,l),
(143,0,ls),
(143,-57,o),
(115,-70,o),
(56,-67,c),
(56,-140,l),
(70,-146,o),
(93,-147,o),
(111,-147,cs)
);
},
{
closed = 1;
nodes = (
(323,396,l),
(323,482,l),
(14,482,l),
(14,396,l)
);
}
);
width = 409;
},
{
layerId = "249F2D81-707B-4084-8FA6-2290A2E02600";
shapes = (
{
closed = 1;
nodes = (
(280,0,l),
(280,689,l),
(478,689,l),
(478,810,l),
(101,810,l),
(101,0,l)
);
},
{
closed = 1;
nodes = (
(308,-166,o),
(369,-99,o),
(369,0,cs),
(369,103,l),
(197,103,l),
(197,0,ls),
(197,-41,o),
(179,-61,o),
(116,-61,c),
(116,-162,l),
(129,-164,o),
(148,-166,o),
(182,-166,cs)
);
},
{
closed = 1;
nodes = (
(409,377,l),
(409,490,l),
(26,490,l),
(26,377,l)
);
}
);
width = 503;
}
);
unicode = 1274;
},
{
color = 8;
glyphname = "Geupturn-cy";
kernLeft = "Be-cy";
kernRight = "Ge-cy";
lastChange = "2025-05-07 13:09:21 +0000";
layers = (
{
background = {
shapes = (
{
closed = 1;
nodes = (
(-71,953,l),
(-198,953,l),
(-198,669,l),
(457,669,l),
(457,953,l),
(330,953,l),
(321,810,l),
(-61,810,l)
);
}
);
};
layerId = "249F2D81-707B-4084-8FA6-2290A2E02600";
shapes = (
{
closed = 1;
nodes = (
(261,0,l),
(261,663,l),
(457,663,l),
(457,953,l),
(330,953,l),
(321,810,l),
(63,810,l),
(63,0,l)
);
}
);
width = 485;
},
{
layerId = "B4C1A060-68FB-4CB1-AF3F-8DCCE37557EC";
shapes = (
{
closed = 1;
nodes = (
(176,0,l),
(176,726,l),
(372,726,l),
(372,918,l),
(301,918,l),
(301,810,l),
(63,810,l),
(63,0,l)
);
}
);
width = 377;
},
{
background = {
shapes = (
{
closed = 1;
nodes = (
(169,768,l),
(355,768,l),
(355,924,l),
(311,924,l),
(305,810,l),
(169,810,l)
);
}
);
};
layerId = "6AC43539-1FDC-4B97-8460-9A098675B85D";
shapes = (
{
closed = 1;
nodes = (
(129,0,l),
(129,768,l),
(355,768,l),
(355,924,l),
(311,924,l),
(305,810,l),
(74,810,l),
(74,0,l)
);
}
);
width = 373;
}
);
unicode = 1168;
},
{
color = 8;
glyphname = "Shhadescender-cy";
kernLeft = "Be-cy";
kernRight = "Tshe-cy";
lastChange = "2025-05-07 13:09:21 +0000";
layers = (
{
layerId = "6AC43539-1FDC-4B97-8460-9A098675B85D";
shapes = (
{
closed = 1;
nodes = (
(75,810,l),
(75,0,l),
(130,0,l),
(130,393,l),
(159,404,o),
(199,412,o),
(241,412,cs),
(328,412,o),
(397,387,o),
(397,277,cs),
(397,0,l),
(452,0,l),
(452,277,ls),
(452,404,o),
(371,452,o),
(249,452,cs),
(213,452,o),
(172,446,o),
(130,434,c),
(130,810,l)
);
},
{
closed = 1;
nodes = (
(509,-134,l),
(509,42,l),
(455,42,l),
(465,-134,l)
);
},
{
closed = 1;
nodes = (
(397,0,l),
(481,0,l),
(481,42,l),
(397,42,l)
);
}
);
width = 528;
},
{
layerId = "B4C1A060-68FB-4CB1-AF3F-8DCCE37557EC";
shapes = (
{
closed = 1;
nodes = (
(63,810,l),
(63,0,l),
(177,0,l),
(177,365,l),
(213,373,o),
(246,377,o),
(274,377,cs),
(357,377,o),
(387,340,o),
(387,263,cs),
(387,0,l),
(501,0,l),
(501,263,ls),
(501,390,o),
(436,451,o),
(296,451,cs),
(261,451,o),
(221,446,o),
(177,436,c),
(177,810,l)
);
},
{
closed = 1;
nodes = (
(578,-147,l),
(578,81,l),
(476,81,l),
(490,-147,l)
);
},
{
closed = 1;
nodes = (
(438,0,l),
(499,0,l),
(499,81,l),
(438,81,l)
);
}
);
width = 588;
},
{
associatedMasterId = "B4C1A060-68FB-4CB1-AF3F-8DCCE37557EC";
layerId = "51433F39-76EF-40F1-AFD0-133D89B4E377";
name = "Oct 30 17, 17:01";
shapes = (
{
closed = 1;
nodes = (
(63,810,l),
(63,0,l),
(177,0,l),
(177,365,l),
(213,373,o),
(246,377,o),
(274,377,cs),
(357,377,o),
(387,340,o),
(387,263,cs),
(387,0,l),
(501,0,l),
(501,263,ls),
(501,390,o),
(436,451,o),
(296,451,cs),
(261,451,o),
(221,446,o),
(177,436,c),
(177,810,l)
);
},
{
closed = 1;
nodes = (
(564,-147,l),
(564,81,l),
(468,81,l),
(477,-147,l)
);
}
);
width = 574;
},
{
associatedMasterId = "6AC43539-1FDC-4B97-8460-9A098675B85D";
layerId = "43F38750-B347-4A92-9B0B-3F807DC07D45";
name = "Oct 30 17, 17:23";
shapes = (
{
closed = 1;
nodes = (
(75,810,l),
(75,0,l),
(130,0,l),
(130,393,l),
(159,404,o),
(199,412,o),
(241,412,cs),
(329,412,o),
(398,387,o),
(398,277,cs),
(398,0,l),
(453,0,l),
(453,277,ls),
(453,404,o),
(372,452,o),
(249,452,cs),
(213,452,o),
(172,446,o),
(130,434,c),
(130,810,l)
);
},
{
closed = 1;
nodes = (
(497,-134,l),
(497,42,l),
(447,42,l),
(453,-134,l)
);
}
);
width = 528;
},
{
layerId = "249F2D81-707B-4084-8FA6-2290A2E02600";
shapes = (
{
closed = 1;
nodes = (
(61,810,l),
(61,0,l),
(240,0,l),
(240,370,l),
(257,373,o),
(273,374,o),
(288,374,cs),
(376,374,o),
(384,338,o),
(384,288,cs),
(384,0,l),
(563,0,l),
(563,289,ls),
(563,416,o),
(473,484,o),
(330,484,cs),
(300,484,o),
(276,482,o),
(240,477,c),
(240,810,l)
);
},
{
closed = 1;
nodes = (
(646,-160,l),
(646,121,l),
(507,121,l),
(533,-160,l)
);
},
{
closed = 1;
nodes = (
(412,0,l),
(560,0,l),
(560,121,l),
(412,121,l)
);
}
);
width = 655.425;
}
);
unicode = 1318;
},
{
color = 8;
glyphname = "De-cy";
kernRight = "De-cy";
lastChange = "2025-05-07 13:09:21 +0000";
layers = (
{
layerId = "249F2D81-707B-4084-8FA6-2290A2E02600";
shapes = (
{
closed = 1;
nodes = (
(137,-143,l),
(147,0,l),
(539,0,l),
(548,-143,l),
(675,-143,l),
(675,141,l),
(10,141,l),
(10,-143,l)
);
},
{
closed = 1;
nodes = (
(29,40,l),
(220,28,o),
(275,114,o),
(292,424,cs),
(305,658,l),
(397,658,l),
(397,0,l),
(595,0,l),
(595,810,l),
(144,810,l),
(126,468,ls),
(111,177,o),
(91,141,o),
(29,141,c)
);
}
);
width = 704;
},
{
associatedMasterId = "B4C1A060-68FB-4CB1-AF3F-8DCCE37557EC";
layerId = "77D71EE2-38FA-4F11-9040-C7FD38B515B2";
name = "18 Nov 24 at 17:44";
shapes = (
{
closed = 1;
nodes = (
(98,-147,l),
(107,0,l),
(509,0,l),
(518,-147,l),
(605,-147,l),
(605,81,l),
(527,81,l),
(527,810,l),
(188,810,l),
(175,570,ls),
(157,199,o),
(105,129,o),
(48,81,c),
(11,81,l),
(11,-147,l)
);
},
{
closed = 1;
nodes = (
(153,81,l),
(211,136,o),
(262,182,o),
(276,543,cs),
(284,726,l),
(415,726,l),
(415,81,l)
);
}
);
width = 627;
},
{
background = {
shapes = (
{
closed = 1;
nodes = (
(73,-150,l),
(80,0,l),
(506,0,l),
(513,-150,l),
(584,-150,l),
(584,75,l),
(503,75,l),
(503,810,l),
(184,810,l),
(162,527,ls),
(133,156,o),
(96,110,o),
(24,75,c),
(-1,75,l),
(-1,-150,l)
);
},
{
closed = 1;
nodes = (
(127,75,l),
(180,114,o),
(222,139,o),
(250,516,cs),
(266,735,l),
(406,735,l),
(406,75,l)
);
}
);
};
layerId = "B4C1A060-68FB-4CB1-AF3F-8DCCE37557EC";
shapes = (
{
closed = 1;
nodes = (
(97,-147,l),
(106,0,l),
(505,0,l),
(514,-147,l),
(601,-147,l),
(601,81,l),
(10,81,l),
(10,-147,l)
);
},
{
closed = 1;
nodes = (
(56,30,l),
(176,16,o),
(219,119,o),
(233,379,cs),
(252,726,l),
(418,726,l),
(418,0,l),
(531,0,l),
(531,810,l),
(155,810,l),
(128,379,ls),
(110,98,o),
(65,79,o),
(56,81,c)
);
}
);
width = 607;
},
{
background = {
shapes = (
{
closed = 1;
nodes = (
(11,-2,l),
(145,-2,o),
(162,44,o),
(182,508,cs),
(193,768,l),
(414,768,l),
(414,0,l),
(469,0,l),
(469,810,l),
(142,810,l),
(129,508,ls),
(110,70,o),
(94,54,o),
(11,48,c)
);
}
);
};
layerId = "6AC43539-1FDC-4B97-8460-9A098675B85D";
shapes = (
{
closed = 1;
nodes = (
(64,-134,l),
(70,0,l),
(477,0,l),
(483,-134,l),
(527,-134,l),
(527,42,l),
(20,42,l),
(20,-134,l)
);
},
{
closed = 1;
nodes = (
(41,11,l),
(152,11,o),
(163,52,o),
(182,508,cs),
(193,768,l),
(414,768,l),
(414,0,l),
(469,0,l),
(469,810,l),
(142,810,l),
(129,508,ls),
(110,70,o),
(96,48,o),
(41,42,c)
);
}
);
width = 561;
}
);
unicode = 1044;
},
{
color = 8;
glyphname = "Ie-cy";
kernLeft = "Be-cy";
kernRight = "Ie-cy";
lastChange = "2025-05-07 13:09:21 +0000";
layers = (
{
anchors = (
{
name = top;
pos = (248,810);
}
);
layerId = "249F2D81-707B-4084-8FA6-2290A2E02600";
shapes = (
{
closed = 1;
nodes = (
(430,0,l),
(430,132,l),
(257,132,l),
(257,358,l),
(382,358,l),
(382,496,l),
(257,496,l),
(257,677,l),
(428,677,l),
(428,810,l),
(59,810,l),
(59,0,l)
);
}
);
width = 461;
},
{
anchors = (
{
name = top;
pos = (231,810);
}
);
layerId = "B4C1A060-68FB-4CB1-AF3F-8DCCE37557EC";
shapes = (
{
closed = 1;
nodes = (
(379,0,l),
(379,81,l),
(176,81,l),
(176,378,l),
(339,378,l),
(339,458,l),
(176,458,l),
(176,726,l),
(377,726,l),
(377,810,l),
(63,810,l),
(63,0,l)
);
}
);
width = 406;
},
{
anchors = (
{
name = top;
pos = (219,810);
}
);
layerId = "6AC43539-1FDC-4B97-8460-9A098675B85D";
shapes = (
{
closed = 1;
nodes = (
(357,0,l),
(357,43,l),
(129,43,l),
(129,399,l),
(314,399,l),
(314,441,l),
(129,441,l),
(129,766,l),
(354,766,l),
(354,810,l),
(74,810,l),
(74,0,l)
);
}
);
width = 382;
}
);
unicode = 1045;
},
{
color = 8;
glyphname = "E-cy";
kernLeft = "O-cy";
kernRight = "Es-cy";
lastChange = "2025-05-07 13:09:21 +0000";
layers = (
{
background = {
shapes = (
{
closed = 1;
nodes = (
(487,-13,o),
(541,91,o),
(541,226,cs),
(541,298,l),
(346,298,l),
(346,206,ls),
(346,171,o),
(345,125,o),
(299,125,cs),
(254,125,o),
(250,170,o),
(250,206,cs),
(250,604,ls),
(250,639,o),
(253,685,o),
(299,685,cs),
(345,685,o),
(346,639,o),
(346,604,cs),
(346,516,l),
(541,516,l),
(541,588,ls),
(541,723,o),
(487,822,o),
(299,822,cs),
(111,822,o),
(49,720,o),
(49,551,cs),
(49,258,ls),
(49,90,o),
(111,-13,o),
(299,-13,cs)
);
}
);
};
layerId = "249F2D81-707B-4084-8FA6-2290A2E02600";
shapes = (
{
closed = 1;
nodes = (
(461,-13,o),
(541,66,o),
(541,226,cs),
(541,268,l),
(346,268,l),
(346,206,ls),
(346,149,o),
(332,125,o),
(299,125,cs),
(266,125,o),
(250,151,o),
(250,206,cs),
(250,354,l),
(382,354,l),
(382,470,l),
(250,470,l),
(250,604,ls),
(250,660,o),
(265,685,o),
(299,685,cs),
(332,685,o),
(346,661,o),
(346,604,cs),
(346,534,l),
(541,534,l),
(541,588,ls),
(541,746,o),
(463,822,o),
(299,822,cs),
(127,822,o),
(49,737,o),
(49,551,cs),
(49,258,ls),
(49,72,o),
(128,-13,o),
(299,-13,cs)
);
}
);
width = 568;
},
{
background = {
shapes = (
{
closed = 1;
nodes = (
(425,-9,o),
(470,92,o),
(470,241,cs),
(470,301,l),
(363,301,l),
(363,241,ls),
(363,145,o),
(358,80,o),
(267,80,cs),
(189,80,o),
(162,120,o),
(162,242,cs),
(162,563,ls),
(162,663,o),
(171,729,o),
(267,729,cs),
(361,729,o),
(363,667,o),
(363,577,cs),
(363,520,l),
(470,520,l),
(470,584,ls),
(470,730,o),
(417,817,o),
(266,817,cs),
(94,817,o),
(48,710,o),
(48,546,cs),
(48,260,ls),
(48,109,o),
(94,-9,o),
(266,-9,cs)
);
}
);
};
layerId = "B4C1A060-68FB-4CB1-AF3F-8DCCE37557EC";
shapes = (
{
closed = 1;
nodes = (
(406,-9,o),
(470,69,o),
(470,241,cs),
(470,284,l),
(363,284,l),
(363,241,ls),
(363,117,o),
(341,80,o),
(267,80,cs),
(188,80,o),
(162,121,o),
(162,242,cs),
(162,379,l),
(362,379,l),
(362,460,l),
(162,460,l),
(162,563,ls),
(162,689,o),
(187,729,o),
(267,729,cs),
(342,729,o),
(363,696,o),
(363,577,cs),
(363,545,l),
(470,545,l),
(470,584,ls),
(470,743,o),
(405,817,o),
(266,817,cs),
(114,817,o),
(48,735,o),
(48,546,cs),
(48,260,ls),
(48,78,o),
(119,-9,o),
(266,-9,cs)
);
}
);
width = 503;
},
{
background = {
shapes = (
{
closed = 1;
nodes = (
(401,-11,o),
(440,88,o),
(440,227,cs),
(440,267,l),
(388,267,l),
(388,218,ls),
(388,107,o),
(363,34,o),
(255,34,cs),
(143,34,o),
(113,105,o),
(113,225,cs),
(113,583,ls),
(113,697,o),
(138,774,o),
(255,774,cs),
(361,774,o),
(388,706,o),
(388,591,cs),
(388,550,l),
(440,550,l),
(440,591,ls),
(440,729,o),
(396,819,o),
(255,819,cs),
(100,819,o),
(58,716,o),
(58,577,cs),
(58,233,ls),
(58,98,o),
(95,-11,o),
(255,-11,cs)
);
}
);
};
layerId = "6AC43539-1FDC-4B97-8460-9A098675B85D";
shapes = (
{
closed = 1;
nodes = (
(382,-11,o),
(440,64,o),
(440,227,cs),
(440,267,l),
(388,267,l),
(388,218,ls),
(388,88,o),
(349,34,o),
(255,34,cs),
(154,34,o),
(113,90,o),
(113,225,cs),
(113,407,l),
(321,407,l),
(321,448,l),
(113,448,l),
(113,583,ls),
(113,719,o),
(154,774,o),
(255,774,cs),
(350,774,o),
(388,721,o),
(388,591,cs),
(388,550,l),
(440,550,l),
(440,591,ls),
(440,747,o),
(381,819,o),
(255,819,cs),
(121,819,o),
(58,742,o),
(58,577,cs),
(58,233,ls),
(58,67,o),
(121,-11,o),
(255,-11,cs)
);
}
);
width = 482;
}
);
unicode = 1028;
},
{
color = 8;
glyphname = "Zhe-cy";
kernLeft = "Zhe-cy";
kernRight = "Zhe-cy";
lastChange = "2025-05-07 13:09:21 +0000";
layers = (
{
anchors = (
{
name = bottomright;
pos = (760,0);
},
{
name = top;
pos = (390,810);
}
);
guides = (
{
angle = 90;
pos = (-218,0);
},
{
angle = 90;
pos = (-34,0);
},
{
angle = 90;
pos = (-47,0);
}
);
layerId = "249F2D81-707B-4084-8FA6-2290A2E02600";
shapes = (
{
closed = 1;
nodes = (
(190,0,l),
(295,347,l),
(306,347,l),
(306,0,l),
(474,0,l),
(474,347,l),
(485,347,l),
(590,0,l),
(780,0,l),
(635,420,l),
(779,810,l),
(597,810,l),
(486,489,l),
(474,489,l),
(474,810,l),
(306,810,l),
(306,489,l),
(295,489,l),
(193,810,l),
(1,810,l),
(145,420,l),
(0,0,l)
);
}
);
width = 780;
},
{
anchors = (
{
name = bottomright;
pos = (693,0);
},
{
name = top;
pos = (357,810);
}
);
guides = (
{
angle = 90;
pos = (551,0);
},
{
angle = 90;
pos = (735,0);
},
{
angle = 90;
pos = (-461,0);
}
);
layerId = "B4C1A060-68FB-4CB1-AF3F-8DCCE37557EC";
shapes = (
{
closed = 1;
nodes = (
(113,0,l),
(272,379,l),
(300,379,l),
(300,0,l),
(413,0,l),
(413,379,l),
(441,379,l),
(600,0,l),
(713,0,l),
(533,422,l),
(693,810,l),
(580,810,l),
(440,460,l),
(413,460,l),
(413,810,l),
(300,810,l),
(300,460,l),
(273,460,l),
(133,810,l),
(20,810,l),
(180,422,l),
(0,0,l)
);
}
);
width = 713;
},
{
anchors = (
{
name = bottomright;
pos = (595,0);
},
{
name = top;
pos = (308,810);
}
);
background = {
shapes = (
{
closed = 1;
nodes = (
(334,0,l),
(334,403,l),
(432,403,l),
(394,416,l),
(610,0,l),
(665,0,l),
(442,440,l),
(443,413,l),
(667,810,l),
(611,810,l),
(395,421,l),
(432,445,l),
(334,445,l),
(334,810,l),
(279,810,l),
(279,0,l)
);
}
);
};
guides = (
{
angle = 90;
pos = (277,0);
},
{
angle = 90;
pos = (461,0);
},
{
angle = 113.711;
pos = (563,0);
},
{
angle = 114.413;
pos = (617,0);
}
);
layerId = "6AC43539-1FDC-4B97-8460-9A098675B85D";
shapes = (
{
closed = 1;
nodes = (
(56,0,l),
(233,403,l),
(281,403,l),
(281,0,l),
(334,0,l),
(334,403,l),
(384,403,l),
(561,0,l),
(615,0,l),
(424,422,l),
(596,810,l),
(541,810,l),
(383,445,l),
(334,445,l),
(334,810,l),
(281,810,l),
(281,445,l),
(230,445,l),
(72,810,l),
(19,810,l),
(189,421,l),
(0,0,l)
);
}
);
width = 615;
}
);
metricLeft = "=|";
metricRight = "Ka=cy";
unicode = 1046;
},
{
color = 8;
glyphname = "Dzeabkhasian-cy";
lastChange = "2025-05-07 13:09:21 +0000";
layers = (
{
layerId = "6AC43539-1FDC-4B97-8460-9A098675B85D";
shapes = (
{
ref = Ezh;
}
);
width = 477;
},
{
layerId = "B4C1A060-68FB-4CB1-AF3F-8DCCE37557EC";
shapes = (
{
ref = Ezh;
}
);
width = 456;
},
{
associatedMasterId = "6AC43539-1FDC-4B97-8460-9A098675B85D";
layerId = "D6BC69B1-2D00-42CE-AE8B-E04766FEBE34";
name = "Oct 31 17, 11:13";
shapes = (
{
closed = 1;
nodes = (
(372,-11,o),
(418,83,o),
(418,242,cs),
(418,423,o),
(340,496,o),
(197,496,cs),
(126,496,l),
(144,460,l),
(378,776,l),
(378,810,l),
(68,810,l),
(68,767,l),
(359,767,l),
(341,803,l),
(114,497,l),
(114,454,l),
(194,454,ls),
(308,454,o),
(363,387,o),
(363,243,cs),
(363,133,o),
(350,32,o),
(231,32,cs),
(145,32,o),
(110,84,o),
(110,179,cs),
(110,181,o),
(110,192,o),
(110,195,c),
(60,195,l),
(60,180,l),
(60,63,o),
(108,-11,o),
(232,-11,cs)
);
}
);
width = 478;
},
{
layerId = "249F2D81-707B-4084-8FA6-2290A2E02600";
shapes = (
{
ref = Ezh;
}
);
width = 503;
}
);
unicode = 1248;
},
{
color = 8;
glyphname = "Ze-cy";
kernLeft = "Ze-cy";
kernRight = "Ve-cy";
lastChange = "2025-05-07 13:09:21 +0000";
layers = (
{
layerId = "249F2D81-707B-4084-8FA6-2290A2E02600";
shapes = (
{
closed = 1;
nodes = (
(423,-17,o),
(509,76,o),
(509,241,cs),
(509,335,o),
(476,395,o),
(408,423,c),
(457,436,o),
(489,508,o),
(489,601,cs),
(489,743,o),
(404,824,o),
(255,824,cs),
(110,824,o),
(20,736,o),
(20,592,cs),
(20,537,l),
(185,537,l),
(185,558,o),
(185,586,o),
(185,587,cs),
(185,642,o),
(212,677,o),
(254,677,cs),
(297,677,o),
(325,641,o),
(325,587,cs),
(325,499,o),
(310,468,o),
(266,468,cs),
(231,468,o),
(216,468,o),
(211,468,c),
(211,352,l),
(222,352,o),
(249,352,o),
(270,352,cs),
(312,352,o),
(328,319,o),
(328,235,cs),
(328,170,o),
(309,139,o),
(268,139,cs),
(224,139,o),
(202,176,o),
(202,248,cs),
(202,261,o),
(202,279,o),
(202,280,c),
(16,280,l),
(16,251,ls),
(16,77,o),
(105,-17,o),
(270,-17,cs)
);
}
);
width = 539;
},
{
background = {
shapes = (
{
closed = 1;
nodes = (
(393,-9,o),
(451,94,o),
(451,253,cs),
(451,561,ls),
(451,720,o),
(393,817,o),
(230,817,cs),
(66,817,o),
(8,721,o),
(8,561,cs),
(8,254,ls),
(8,93,o),
(65,-9,o),
(230,-9,cs)
);
},
{
closed = 1;
nodes = (
(139,80,o),
(122,139,o),
(122,229,cs),
(122,584,ls),
(122,674,o),
(139,729,o),
(230,729,cs),
(320,729,o),
(337,674,o),
(337,584,cs),
(337,229,ls),
(337,139,o),
(320,80,o),
(230,80,cs)
);
}
);
};
layerId = "B4C1A060-68FB-4CB1-AF3F-8DCCE37557EC";
shapes = (
{
closed = 1;
nodes = (
(367,-9,o),
(445,77,o),
(445,228,cs),
(445,334,o),
(405,403,o),
(329,428,c),
(396,449,o),
(435,515,o),
(435,608,cs),
(435,737,o),
(361,817,o),
(228,817,cs),
(98,817,o),
(15,741,o),
(15,610,cs),
(15,583,l),
(122,583,l),
(122,592,o),
(122,601,o),
(122,609,c),
(128,691,o),
(162,730,o),
(225,730,cs),
(292,730,o),
(328,688,o),
(328,608,cs),
(328,510,o),
(293,467,o),
(214,467,cs),
(207,467,o),
(181,467,o),
(173,467,c),
(173,381,l),
(182,381,o),
(206,381,o),
(214,381,cs),
(295,381,o),
(338,328,o),
(338,228,cs),
(338,131,o),
(301,80,o),
(230,80,cs),
(158,80,o),
(132,111,o),
(129,198,c),
(128,203,o),
(128,208,o),
(128,226,c),
(22,226,l),
(22,199,ls),
(22,62,o),
(93,-9,o),
(230,-9,cs)
);
}
);
width = 480;
},
{
background = {
shapes = (
{
closed = 1;
nodes = (
(82,819,o),
(43,720,o),
(43,581,cs),
(43,541,l),
(95,541,l),
(95,590,ls),
(95,701,o),
(120,774,o),
(228,774,cs),
(340,774,o),
(370,703,o),
(370,583,cs),
(370,225,ls),
(370,111,o),
(345,34,o),
(228,34,cs),
(122,34,o),
(95,102,o),
(95,217,cs),
(95,258,l),
(43,258,l),
(43,217,ls),
(43,79,o),
(87,-11,o),
(228,-11,cs),
(383,-11,o),
(425,92,o),
(425,231,cs),
(425,575,ls),
(425,710,o),
(388,819,o),
(228,819,cs)
);
}
);
};
layerId = "6AC43539-1FDC-4B97-8460-9A098675B85D";
shapes = (
{
closed = 1;
nodes = (
(363,-11,o),
(425,66,o),
(425,216,cs),
(425,325,o),
(380,397,o),
(308,421,c),
(379,442,o),
(414,497,o),
(414,611,cs),
(414,740,o),
(349,819,o),
(238,819,cs),
(124,819,o),
(60,746,o),
(60,630,cs),
(60,617,l),
(110,617,l),
(110,620,o),
(110,629,o),
(110,632,cs),
(110,725,o),
(150,774,o),
(238,774,cs),
(318,774,o),
(360,719,o),
(360,612,cs),
(360,484,o),
(317,444,o),
(229,442,cs),
(228,442,o),
(202,442,o),
(199,442,c),
(199,400,l),
(202,400,o),
(228,400,o),
(230,400,c),
(321,397,o),
(371,335,o),
(371,215,cs),
(371,90,o),
(330,34,o),
(242,34,cs),
(157,34,o),
(109,84,o),
(109,176,cs),
(109,179,o),
(109,192,o),
(109,195,c),
(59,195,l),
(59,180,ls),
(59,58,o),
(125,-11,o),
(242,-11,cs)
);
}
);
width = 460;
}
);
unicode = 1047;
},
{
color = 8;
glyphname = "Zedescender-cy";
kernLeft = "Ze-cy";
kernRight = "Ve-cy";
lastChange = "2025-05-07 13:09:21 +0000";
layers = (
{
background = {
shapes = (
{
closed = 1;
nodes = (
(320,-143,l),
(327,0,l),
(187,0,l),
(193,-143,l)
);
}
);
};
layerId = "249F2D81-707B-4084-8FA6-2290A2E02600";
shapes = (
{
closed = 1;
nodes = (
(322,-143,l),
(329,0,l),
(189,0,l),
(195,-143,l)
);
},
{
alignment = -1;
ref = "Ze-cy";
}
);
width = 500;
},
{
background = {
shapes = (
{
closed = 1;
nodes = (
(293,-147,l),
(300,0,l),
(200,0,l),
(207,-147,l)
);
}
);
};
layerId = "B4C1A060-68FB-4CB1-AF3F-8DCCE37557EC";
shapes = (
{
closed = 1;
nodes = (
(271,-147,l),
(278,0,l),
(178,0,l),
(185,-147,l)
);
},
{
alignment = -1;
ref = "Ze-cy";
}
);
width = 500;
},
{
background = {
shapes = (
{
closed = 1;
nodes = (
(262,-134,l),
(267,0,l),
(214,0,l),
(220,-134,l)
);
},
{
alignment = -1;
ref = "Dzhe-cy";
}
);
};
layerId = "6AC43539-1FDC-4B97-8460-9A098675B85D";
shapes = (
{
closed = 1;
nodes = (
(264,-134,l),
(269,0,l),
(216,0,l),
(222,-134,l)
);
},
{
alignment = -1;
ref = "Ze-cy";
}
);
width = 500;
}
);
unicode = 1176;
},
{
color = 8;
glyphname = "Dze-cy";
kernLeft = "Dze-cy";
kernRight = "Dze-cy";
lastChange = "2025-05-07 13:09:21 +0000";
layers = (
{
layerId = "249F2D81-707B-4084-8FA6-2290A2E02600";
shapes = (
{
closed = 1;
nodes = (
(388,-13,o),
(471,81,o),
(471,194,cs),
(471,309,o),
(414,378,o),
(343,442,cs),
(296,483,ls),
(256,519,o),
(210,554,o),
(210,623,cs),
(210,642,o),
(220,679,o),
(248,679,cs),
(283,679,o),
(283,639,o),
(283,569,c),
(456,586,l),
(455,667,o),
(445,822,o),
(259,822,cs),
(113,822,o),
(17,745,o),
(17,603,cs),
(17,492,o),
(72,437,o),
(135,382,cs),
(186,339,ls),
(242,291,o),
(275,251,o),
(275,185,cs),
(275,167,o),
(273,137,o),
(242,137,cs),
(210,137,o),
(185,162,o),
(185,272,c),
(17,250,l),
(21,58,o),
(97,-13,o),
(254,-13,cs)
);
}
);
width = 482;
},
{
layerId = "B4C1A060-68FB-4CB1-AF3F-8DCCE37557EC";
shapes = (
{
closed = 1;
nodes = (
(367,-9,o),
(448,64,o),
(448,184,cs),
(448,285,o),
(392,356,o),
(332,411,cs),
(195,531,ls),
(158,565,o),
(142,592,o),
(142,641,cs),
(142,700,o),
(175,726,o),
(231,730,cs),
(315,735,o),
(333,662,o),
(339,582,c),
(435,608,l),
(422,750,o),
(362,819,o),
(231,817,cs),
(114,816,o),
(41,749,o),
(41,630,cs),
(41,549,o),
(66,499,o),
(119,451,cs),
(255,331,ls),
(305,285,o),
(343,248,o),
(343,175,cs),
(343,113,o),
(312,80,o),
(254,80,cs),
(167,80,o),
(145,167,o),
(139,254,c),
(39,227,l),
(47,87,o),
(113,-9,o),
(254,-9,cs)
);
}
);
width = 468;
},
{
layerId = "6AC43539-1FDC-4B97-8460-9A098675B85D";
shapes = (
{
closed = 1;
nodes = (
(343,-10,o),
(418,46,o),
(418,168,cs),
(418,254,o),
(363,326,o),
(298,390,cs),
(152,534,ls),
(108,579,o),
(93,616,o),
(93,657,cs),
(93,739,o),
(148,774,o),
(222,775,cs),
(319,777,o),
(354,719,o),
(363,605,c),
(409,616,l),
(399,769,o),
(332,819,o),
(221,819,c),
(115,818,o),
(43,760,o),
(43,653,cs),
(43,600,o),
(64,549,o),
(114,499,cs),
(262,352,ls),
(328,286,o),
(367,236,o),
(367,165,cs),
(367,72,o),
(318,35,o),
(238,35,cs),
(132,35,o),
(103,108,o),
(89,215,c),
(42,200,l),
(52,72,o),
(109,-10,o),
(237,-10,cs)
);
}
);
width = 444;
}
);
unicode = 1029;
},
{
color = 8;
glyphname = "Ii-cy";
kernLeft = "Be-cy";
kernRight = "Ii-cy";
lastChange = "2025-05-07 13:09:21 +0000";
layers = (
{
anchors = (
{
name = top;
pos = (329,810);
}
);
background = {
shapes = (
{
closed = 1;
nodes = (
(239,0,l),
(420,528,l),
(388,401,l),
(388,0,l),
(581,0,l),
(581,810,l),
(405,810,l),
(220,290,l),
(256,425,l),
(256,810,l),
(63,810,l),
(63,0,l)
);
}
);
};
guides = (
{
angle = 90;
pos = (236,0);
},
{
angle = 90;
pos = (-3056,0);
},
{
angle = 90;
pos = (256,0);
},
{
angle = 90;
pos = (388,0);
}
);
layerId = "249F2D81-707B-4084-8FA6-2290A2E02600";
shapes = (
{
closed = 1;
nodes = (
(239,0,l),
(388,435,l),
(388,0,l),
(581,0,l),
(581,810,l),
(405,810,l),
(256,391,l),
(256,810,l),
(63,810,l),
(63,0,l)
);
}
);
width = 644;
},
{
anchors = (
{
name = top;
pos = (282,810);
}
);
guides = (
{
angle = 90;
pos = (-3066,0);
}
);
layerId = "B4C1A060-68FB-4CB1-AF3F-8DCCE37557EC";
shapes = (
{
closed = 1;
nodes = (
(147,0,l),
(382,569,l),
(382,0,l),
(481,0,l),
(481,810,l),
(400,810,l),
(163,249,l),
(163,810,l),
(63,810,l),
(63,0,l)
);
}
);
width = 545;
},
{
anchors = (
{
name = top;
pos = (262,810);
}
);
guides = (
{
angle = 90;
pos = (-3066,0);
}
);
layerId = "6AC43539-1FDC-4B97-8460-9A098675B85D";
shapes = (
{
closed = 1;
nodes = (
(120,0,l),
(396,689,l),
(396,0,l),
(445,0,l),
(445,810,l),
(400,810,l),
(123,121,l),
(123,810,l),
(74,810,l),
(74,0,l)
);
}
);
width = 520;
}
);
metricLeft = H;
unicode = 1048;
},
{
color = 8;
glyphname = "Iishorttail-cy";
lastChange = "2025-05-07 13:09:21 +0000";
layers = (
{
background = {
shapes = (
{
closed = 1;
nodes = (
(107,0,l),
(107,403,l),
(391,403,l),
(391,0,l),
(445,0,l),
(445,810,l),
(391,810,l),
(391,445,l),
(107,445,l),
(107,810,l),
(52,810,l),
(52,0,l)
);
},
{
closed = 1;
nodes = (
(455,-134,l),
(495,42,l),
(445,42,l),
(411,-134,l)
);
}
);
};
layerId = "6AC43539-1FDC-4B97-8460-9A098675B85D";
shapes = (
{
closed = 1;
nodes = (
(455,-134,l),
(495,42,l),
(445,42,l),
(411,-134,l)
);
},
{
ref = "Iishort-cy";
}
);
width = 520;
},
{
layerId = "B4C1A060-68FB-4CB1-AF3F-8DCCE37557EC";
shapes = (
{
closed = 1;
nodes = (
(510,-147,l),
(560,81,l),
(464,81,l),
(423,-147,l)
);
},
{
ref = "Iishort-cy";
}
);
width = 570;
},
{
layerId = "249F2D81-707B-4084-8FA6-2290A2E02600";
shapes = (
{
closed = 1;
nodes = (
(597,-175,l),
(664,121,l),
(524,121,l),
(479,-175,l)
);
},
{
ref = "Iishort-cy";
}
);
width = 673;
}
);
metricRight = "Entail-cy";
unicode = 1162;
},
{
color = 8;
glyphname = "I-cy";
kernLeft = "Be-cy";
kernRight = "Ii-cy";
lastChange = "2025-05-07 13:09:21 +0000";
layers = (
{
anchors = (
{
name = top;
pos = (143,810);
}
);
layerId = "249F2D81-707B-4084-8FA6-2290A2E02600";
shapes = (
{
closed = 1;
nodes = (
(247,0,l),
(247,810,l),
(49,810,l),
(49,0,l)
);
}
);
width = 286;
},
{
anchors = (
{
name = top;
pos = (124,810);
}
);
layerId = "B4C1A060-68FB-4CB1-AF3F-8DCCE37557EC";
shapes = (
{
closed = 1;
nodes = (
(180,0,l),
(180,810,l),
(69,810,l),
(69,0,l)
);
}
);
width = 248;
},
{
anchors = (
{
name = top;
pos = (103,810);
}
);
layerId = "6AC43539-1FDC-4B97-8460-9A098675B85D";
shapes = (
{
closed = 1;
nodes = (
(130,0,l),
(130,810,l),
(76,810,l),
(76,0,l)
);
}
);
width = 206;
}
);
unicode = 1030;
},
{
color = 8;
glyphname = "Je-cy";
kernLeft = "Je-cy";
kernRight = "Je-cy";
lastChange = "2025-05-07 13:09:21 +0000";
layers = (
{
layerId = "249F2D81-707B-4084-8FA6-2290A2E02600";
shapes = (
{
closed = 1;
nodes = (
(100,-21,ls),
(249,-21,o),
(290,47,o),
(292,177,c),
(293,810,l),
(95,810,l),
(95,186,ls),
(95,126,o),
(69,115,o),
(3,116,c),
(3,-21,l)
);
}
);
width = 332;
},
{
layerId = "B4C1A060-68FB-4CB1-AF3F-8DCCE37557EC";
shapes = (
{
closed = 1;
nodes = (
(61,-19,ls),
(201,-19,o),
(237,44,o),
(237,183,c),
(237,810,l),
(125,810,l),
(125,185,ls),
(125,83,o),
(105,62,o),
(7,62,c),
(7,-19,l)
);
}
);
width = 301;
},
{
layerId = "6AC43539-1FDC-4B97-8460-9A098675B85D";
shapes = (
{
closed = 1;
nodes = (
(36,-45,ls),
(172,-45,o),
(190,14,o),
(190,144,c),
(190,810,l),
(136,810,l),
(136,150,ls),
(136,21,o),
(127,-2,o),
(8,-2,c),
(8,-45,l)
);
}
);
width = 265;
}
);
unicode = 1032;
},
{
color = 8;
glyphname = "Ka-cy";
kernLeft = "Be-cy";
kernRight = "Zhe-cy";
lastChange = "2025-05-07 13:09:21 +0000";
layers = (
{
anchors = (
{
name = bottomright;
pos = (571,0);
},
{
name = top;
pos = (296,810);
}
);
guides = (
{
angle = 90;
pos = (110,0);
}
);
layerId = "249F2D81-707B-4084-8FA6-2290A2E02600";
shapes = (
{
closed = 1;
nodes = (
(261,0,l),
(261,347,l),
(294,347,l),
(276,361,l),
(385,0,l),
(585,0,l),
(435,434,l),
(435,406,l),
(584,810,l),
(392,810,l),
(272,464,l),
(300,489,l),
(261,489,l),
(261,810,l),
(63,810,l),
(63,0,l)
);
}
);
width = 591;
},
{
anchors = (
{
name = bottomright;
pos = (488,0);
},
{
name = top;
pos = (254,810);
}
);
background = {
shapes = (
{
closed = 1;
nodes = (
(176,0,l),
(176,379,l),
(384,379,l),
(384,0,l),
(497,0,l),
(497,810,l),
(384,810,l),
(384,460,l),
(176,460,l),
(176,810,l),
(63,810,l),
(63,0,l)
);
}
);
};
guides = (
{
angle = 90;
pos = (110,0);
}
);
layerId = "B4C1A060-68FB-4CB1-AF3F-8DCCE37557EC";
shapes = (
{
closed = 1;
nodes = (
(176,0,l),
(176,379,l),
(234,379,l),
(213,406,l),
(383,0,l),
(496,0,l),
(310,436,l),
(310,408,l),
(476,810,l),
(363,810,l),
(212,433,l),
(233,460,l),
(176,460,l),
(176,810,l),
(63,810,l),
(63,0,l)
);
}
);
width = 508;
},
{
anchors = (
{
name = bottomright;
pos = (449,0);
},
{
name = top;
pos = (252,810);
}
);
background = {
shapes = (
{
closed = 1;
nodes = (
(129,0,l),
(129,403,l),
(413,403,l),
(413,0,l),
(467,0,l),
(467,810,l),
(413,810,l),
(413,445,l),
(129,445,l),
(129,810,l),
(74,810,l),
(74,0,l)
);
}
);
};
guides = (
{
angle = 90;
pos = (110,0);
}
);
layerId = "6AC43539-1FDC-4B97-8460-9A098675B85D";
shapes = (
{
closed = 1;
nodes = (
(129,0,l),
(129,403,l),
(227,403,l),
(189,416,l),
(405,0,l),
(460,0,l),
(237,440,l),
(238,413,l),
(460,810,l),
(404,810,l),
(190,421,l),
(227,445,l),
(129,445,l),
(129,810,l),
(74,810,l),
(74,0,l)
);
}
);
width = 469;
}
);
unicode = 1050;
},
{
color = 8;
glyphname = "Kaverticalstroke-cy";
kernLeft = "Be-cy";
kernRight = "Zhe-cy";
lastChange = "2025-05-07 13:09:21 +0000";
layers = (
{
layerId = "249F2D81-707B-4084-8FA6-2290A2E02600";
shapes = (
{
closed = 1;
nodes = (
(191,0,l),
(191,347,l),
(300,347,l),
(282,361,l),
(391,0,l),
(577,0,l),
(427,434,l),
(427,406,l),
(576,810,l),
(398,810,l),
(278,464,l),
(306,489,l),
(191,489,l),
(191,810,l),
(23,810,l),
(23,0,l)
);
},
{
closed = 1;
nodes = (
(219,244,l),
(269,244,l),
(269,599,l),
(219,599,l)
);
}
);
width = 500;
},
{
layerId = "B4C1A060-68FB-4CB1-AF3F-8DCCE37557EC";
shapes = (
{
closed = 1;
nodes = (
(156,0,l),
(156,379,l),
(248,379,l),
(227,406,l),
(397,0,l),
(510,0,l),
(324,436,l),
(324,408,l),
(490,810,l),
(377,810,l),
(226,433,l),
(247,460,l),
(156,460,l),
(156,810,l),
(43,810,l),
(43,0,l)
);
},
{
closed = 1;
nodes = (
(179,242,l),
(219,242,l),
(219,597,l),
(179,597,l)
);
}
);
width = 500;
},
{
layerId = "6AC43539-1FDC-4B97-8460-9A098675B85D";
shapes = (
{
closed = 1;
nodes = (
(121,0,l),
(121,403,l),
(227,403,l),
(189,416,l),
(405,0,l),
(460,0,l),
(237,440,l),
(238,413,l),
(462,810,l),
(406,810,l),
(190,421,l),
(227,445,l),
(121,445,l),
(121,810,l),
(66,810,l),
(66,0,l)
);
},
{
closed = 1;
nodes = (
(151,250,l),
(199,250,l),
(199,605,l),
(151,605,l)
);
}
);
width = 500;
}
);
unicode = 1180;
},
{
color = 8;
glyphname = "Kastroke-cy";
kernLeft = "Be-cy";
kernRight = "Zhe-cy";
lastChange = "2025-05-07 13:09:21 +0000";
layers = (
{
anchors = (
{
name = bottomright;
pos = (449,0);
},
{
name = top;
pos = (235,810);
}
);
layerId = "6AC43539-1FDC-4B97-8460-9A098675B85D";
shapes = (
{
closed = 1;
nodes = (
(216,670,l),
(216,714,l),
(7,714,l),
(7,670,l)
);
},
{
closed = 1;
nodes = (
(129,0,l),
(129,398,l),
(196,398,l),
(405,0,l),
(460,0,l),
(244,417,l),
(430,810,l),
(374,810,l),
(196,430,l),
(129,430,l),
(129,810,l),
(74,810,l),
(74,0,l)
);
}
);
width = 469;
},
{
anchors = (
{
name = bottomright;
pos = (488,0);
},
{
name = top;
pos = (254,810);
}
);
layerId = "B4C1A060-68FB-4CB1-AF3F-8DCCE37557EC";
shapes = (
{
closed = 1;
nodes = (
(262,646,l),
(262,726,l),
(-16,726,l),
(-16,646,l)
);
},
{
closed = 1;
nodes = (
(176,0,l),
(176,395,l),
(219,395,l),
(383,0,l),
(496,0,l),
(316,425,l),
(476,810,l),
(363,810,l),
(218,450,l),
(176,450,l),
(176,810,l),
(63,810,l),
(63,0,l)
);
}
);
width = 508;
},
{
anchors = (
{
name = bottomright;
pos = (552,0);
},
{
name = top;
pos = (287,810);
}
);
layerId = "249F2D81-707B-4084-8FA6-2290A2E02600";
shapes = (
{
closed = 1;
nodes = (
(304,646,l),
(304,746,l),
(0,746,l),
(0,646,l)
);
},
{
closed = 1;
nodes = (
(242,0,l),
(242,353,l),
(268,353,l),
(386,0,l),
(570,0,l),
(417,430,l),
(564,810,l),
(387,810,l),
(268,489,l),
(242,489,l),
(242,810,l),
(63,810,l),
(63,0,l)
);
}
);
width = 580;
}
);
unicode = 1182;
},
{
color = 8;
glyphname = "Kabashkir-cy";
kernLeft = "Te-cy";
kernRight = "Zhe-cy";
lastChange = "2025-05-07 13:09:21 +0000";
layers = (
{
layerId = "249F2D81-707B-4084-8FA6-2290A2E02600";
shapes = (
{
closed = 1;
nodes = (
(13,810,l),
(13,663,l),
(131,663,l),
(131,810,l)
);
},
{
alignment = -1;
pos = (68,0);
ref = "Ka-cy";
}
);
width = 659;
},
{
layerId = "B4C1A060-68FB-4CB1-AF3F-8DCCE37557EC";
shapes = (
{
closed = 1;
nodes = (
(-1,810,l),
(-1,726,l),
(146,726,l),
(146,810,l)
);
},
{
alignment = -1;
pos = (83,0);
ref = "Ka-cy";
}
);
width = 591;
},
{
layerId = "6AC43539-1FDC-4B97-8460-9A098675B85D";
shapes = (
{
closed = 1;
nodes = (
(-7,810,l),
(-7,766,l),
(165,766,l),
(165,810,l)
);
},
{
alignment = -1;
pos = (91,0);
ref = "Ka-cy";
}
);
width = 560;
}
);
metricLeft = T;
metricRight = "=Ka-cy";
unicode = 1184;
},
{
color = 8;
glyphname = "Kahook-cy";
kernLeft = "Be-cy";
lastChange = "2025-05-07 13:09:21 +0000";
layers = (
{
anchors = (
{
name = bottomright;
pos = (438,0);
},
{
name = top;
pos = (235,810);
}
);
layerId = "6AC43539-1FDC-4B97-8460-9A098675B85D";
shapes = (
{
closed = 1;
nodes = (
(353,-134,o),
(413,-78,o),
(413,57,cs),
(413,179,ls),
(413,326,o),
(347,408,o),
(247,426,c),
(430,810,l),
(374,810,l),
(196,430,l),
(129,430,l),
(129,810,l),
(74,810,l),
(74,0,l),
(129,0,l),
(129,393,l),
(166,393,ls),
(263,393,o),
(357,345,o),
(357,179,cs),
(357,51,ls),
(357,-36,o),
(330,-91,o),
(226,-91,cs),
(218,-91,o),
(209,-90,o),
(201,-89,c),
(201,-131,l),
(211,-133,o),
(222,-134,o),
(232,-134,cs)
);
}
);
width = 480;
},
{
anchors = (
{
name = bottomright;
pos = (488,0);
},
{
name = top;
pos = (254,810);
}
);
layerId = "B4C1A060-68FB-4CB1-AF3F-8DCCE37557EC";
shapes = (
{
closed = 1;
nodes = (
(412,-147,o),
(466,-98,o),
(466,8,cs),
(466,237,ls),
(466,346,o),
(402,404,o),
(316,425,c),
(476,810,l),
(363,810,l),
(218,450,l),
(176,450,l),
(176,810,l),
(63,810,l),
(63,0,l),
(176,0,l),
(176,395,l),
(204,395,ls),
(286,395,o),
(353,326,o),
(353,237,cs),
(353,15,ls),
(353,-45,o),
(334,-65,o),
(293,-67,cs),
(285,-68,o),
(277,-68,o),
(267,-67,c),
(267,-140,l),
(281,-146,o),
(304,-147,o),
(322,-147,cs)
);
}
);
width = 525;
},
{
anchors = (
{
name = bottomright;
pos = (488,0);
},
{
name = top;
pos = (254,810);
}
);
associatedMasterId = "B4C1A060-68FB-4CB1-AF3F-8DCCE37557EC";
layerId = "03E622F4-A9FB-460B-AC3F-DC48B3C8557A";
name = "Nov 2 17, 12:55";
shapes = (
{
closed = 1;
nodes = (
(247,-190,o),
(261,-190,o),
(274,-190,cs),
(400,-190,o),
(464,-127,o),
(466,33,cs),
(468,166,ls),
(471,346,o),
(386,412,o),
(316,425,c),
(476,810,l),
(363,810,l),
(218,450,l),
(176,450,l),
(176,810,l),
(63,810,l),
(63,0,l),
(176,0,l),
(176,395,l),
(204,395,ls),
(286,395,o),
(353,326,o),
(353,165,cs),
(353,33,ls),
(353,-58,o),
(327,-109,o),
(234,-109,c),
(234,-190,l)
);
}
);
width = 525;
},
{
anchors = (
{
name = bottomright;
pos = (552,0);
},
{
name = top;
pos = (287,810);
}
);
layerId = "249F2D81-707B-4084-8FA6-2290A2E02600";
shapes = (
{
closed = 1;
nodes = (
(481,-166,o),
(537,-92,o),
(537,-2,cs),
(537,215,ls),
(537,359,o),
(471,406,o),
(409,430,c),
(557,810,l),
(379,810,l),
(260,489,l),
(242,489,l),
(242,810,l),
(63,810,l),
(63,0,l),
(242,0,l),
(242,356,l),
(257,356,ls),
(309,356,o),
(360,329,o),
(360,244,cs),
(360,4,ls),
(360,-29,o),
(349,-51,o),
(320,-58,cs),
(312,-61,o),
(303,-62,o),
(293,-62,c),
(293,-162,l),
(305,-165,o),
(312,-166,o),
(352,-166,cs)
);
}
);
width = 600;
}
);
unicode = 1219;
},
{
color = 8;
glyphname = "El-cy";
kernLeft = "El-cy";
kernRight = "Ii-cy";
lastChange = "2025-05-07 13:09:21 +0000";
layers = (
{
guides = (
{
angle = 267.321;
pos = (135,810);
}
);
layerId = "249F2D81-707B-4084-8FA6-2290A2E02600";
shapes = (
{
closed = 1;
nodes = (
(20,0,l),
(226,-13,o),
(269,90,o),
(288,424,cs),
(301,658,l),
(378,658,l),
(378,0,l),
(576,0,l),
(576,810,l),
(135,810,l),
(117,468,ls),
(102,177,o),
(82,150,o),
(20,150,c)
);
}
);
width = 639;
},
{
background = {
shapes = (
{
closed = 1;
nodes = (
(164,0,l),
(164,379,l),
(372,379,l),
(372,0,l),
(485,0,l),
(485,810,l),
(372,810,l),
(372,460,l),
(164,460,l),
(164,810,l),
(51,810,l),
(51,0,l)
);
}
);
};
guides = (
{
angle = 266.415;
pos = (129,810);
}
);
layerId = "B4C1A060-68FB-4CB1-AF3F-8DCCE37557EC";
shapes = (
{
closed = 1;
nodes = (
(10,0,l),
(178,-14,o),
(186,119,o),
(199,379,cs),
(216,726,l),
(372,726,l),
(372,0,l),
(485,0,l),
(485,810,l),
(116,810,l),
(94,379,ls),
(80,98,o),
(71,82,o),
(10,84,c)
);
}
);
width = 549;
},
{
background = {
shapes = (
{
closed = 1;
nodes = (
(144,0,l),
(144,403,l),
(428,403,l),
(428,0,l),
(482,0,l),
(482,810,l),
(428,810,l),
(428,445,l),
(144,445,l),
(144,810,l),
(89,810,l),
(89,0,l)
);
}
);
};
guides = (
{
angle = 265.833;
pos = (193,810);
}
);
layerId = "6AC43539-1FDC-4B97-8460-9A098675B85D";
shapes = (
{
closed = 1;
nodes = (
(25,-2,l),
(159,-2,o),
(176,44,o),
(196,508,cs),
(207,768,l),
(428,768,l),
(428,0,l),
(483,0,l),
(483,810,l),
(156,810,l),
(143,508,ls),
(124,70,o),
(108,54,o),
(25,48,c)
);
}
);
width = 558;
}
);
metricRight = H;
unicode = 1051;
},
{
color = 8;
glyphname = "Lje-cy";
kernLeft = "El-cy";
kernRight = "Softsign-cy";
lastChange = "2025-05-07 13:09:21 +0000";
layers = (
{
guides = (
{
angle = 267.321;
pos = (135,810);
}
);
layerId = "249F2D81-707B-4084-8FA6-2290A2E02600";
shapes = (
{
closed = 1;
nodes = (
(20,0,l),
(226,-13,o),
(269,90,o),
(288,424,cs),
(301,658,l),
(378,658,l),
(378,0,l),
(594,0,ls),
(727,0,o),
(850,38,o),
(850,243,cs),
(850,398,o),
(763,486,o),
(617,486,cs),
(566,486,l),
(566,810,l),
(135,810,l),
(117,468,ls),
(102,177,o),
(82,150,o),
(20,150,c)
);
},
{
closed = 1;
nodes = (
(566,350,l),
(593,350,ls),
(640,350,o),
(667,314,o),
(667,246,cs),
(667,168,o),
(645,128,o),
(595,128,cs),
(566,128,l)
);
}
);
width = 903;
},
{
background = {
shapes = (
{
closed = 1;
nodes = (
(527,0,ls),
(696,0,o),
(768,73,o),
(768,245,cs),
(768,411,o),
(703,473,o),
(527,473,cs),
(497,473,l),
(497,810,l),
(384,810,l),
(384,0,l)
);
},
{
closed = 1;
nodes = (
(497,391,l),
(528,391,ls),
(628,391,o),
(662,351,o),
(662,235,cs),
(662,118,o),
(631,81,o),
(530,81,cs),
(497,81,l)
);
}
);
};
guides = (
{
angle = 266.415;
pos = (161,810);
}
);
layerId = "B4C1A060-68FB-4CB1-AF3F-8DCCE37557EC";
shapes = (
{
closed = 1;
nodes = (
(2,0,l),
(188,-14,o),
(198,119,o),
(211,379,cs),
(228,726,l),
(384,726,l),
(384,0,l),
(527,0,ls),
(696,0,o),
(768,73,o),
(768,245,cs),
(768,411,o),
(703,473,o),
(527,473,cs),
(497,473,l),
(497,810,l),
(128,810,l),
(106,379,ls),
(92,98,o),
(77,82,o),
(2,84,c)
);
},
{
closed = 1;
nodes = (
(497,391,l),
(528,391,ls),
(628,391,o),
(662,351,o),
(662,235,cs),
(662,118,o),
(631,81,o),
(530,81,cs),
(497,81,l)
);
}
);
width = 836;
},
{
background = {
shapes = (
{
alignment = -1;
ref = "Softsign-cy";
},
{
alignment = -1;
ref = "Softsign-cy";
},
{
alignment = -1;
ref = "Yeru-cy";
},
{
alignment = -1;
ref = "Yeru-cy";
}
);
};
layerId = "6AC43539-1FDC-4B97-8460-9A098675B85D";
shapes = (
{
closed = 1;
nodes = (
(25,-2,l),
(161,-2,o),
(176,44,o),
(196,508,cs),
(207,768,l),
(408,768,l),
(408,0,l),
(536,0,ls),
(693,0,o),
(751,95,o),
(751,229,cs),
(751,388,o),
(683,468,o),
(534,468,cs),
(463,468,l),
(463,810,l),
(156,810,l),
(143,508,ls),
(124,70,o),
(110,54,o),
(25,48,c)
);
},
{
closed = 1;
nodes = (
(463,424,l),
(537,424,ls),
(655,424,o),
(695,351,o),
(695,230,cs),
(695,110,o),
(655,44,o),
(537,44,cs),
(463,44,l)
);
}
);
width = 810;
}
);
unicode = 1033;
},
{
color = 8;
glyphname = "Eldescender-cy";
lastChange = "2025-05-07 13:09:21 +0000";
layers = (
{
background = {
shapes = (
{
closed = 1;
nodes = (
(186,1,o),
(186,52,o),
(224,508,cs),
(244,768,l),
(428,768,l),
(428,0,l),
(483,0,l),
(483,810,l),
(193,810,l),
(171,508,ls),
(134,52,o),
(132,47,o),
(25,41,c),
(25,-2,l)
);
},
{
closed = 1;
nodes = (
(540,-134,l),
(540,42,l),
(486,42,l),
(496,-134,l)
);
},
{
closed = 1;
nodes = (
(428,0,l),
(512,0,l),
(512,42,l),
(428,42,l)
);
}
);
};
layerId = "6AC43539-1FDC-4B97-8460-9A098675B85D";
shapes = (
{
closed = 1;
nodes = (
(540,-134,l),
(540,42,l),
(486,42,l),
(496,-134,l)
);
},
{
closed = 1;
nodes = (
(428,0,l),
(512,0,l),
(512,42,l),
(428,42,l)
);
},
{
ref = "El-cy";
}
);
width = 570;
},
{
background = {
shapes = (
{
closed = 1;
nodes = (
(156,-14,o),
(191,119,o),
(207,379,cs),
(226,726,l),
(372,726,l),
(372,0,l),
(485,0,l),
(485,810,l),
(129,810,l),
(102,379,ls),
(83,98,o),
(45,82,o),
(-30,84,c),
(-30,0,l)
);
},
{
closed = 1;
nodes = (
(562,-147,l),
(562,81,l),
(460,81,l),
(474,-147,l)
);
},
{
closed = 1;
nodes = (
(413,0,l),
(474,0,l),
(474,81,l),
(413,81,l)
);
}
);
};
layerId = "B4C1A060-68FB-4CB1-AF3F-8DCCE37557EC";
shapes = (
{
closed = 1;
nodes = (
(562,-147,l),
(562,81,l),
(460,81,l),
(474,-147,l)
);
},
{
closed = 1;
nodes = (
(413,0,l),
(474,0,l),
(474,81,l),
(413,81,l)
);
},
{
ref = "El-cy";
}
);
width = 572;
},
{
associatedMasterId = "B4C1A060-68FB-4CB1-AF3F-8DCCE37557EC";
layerId = "F83A10E5-34E2-44D8-82C4-1C81DEDFCE4B";
name = "Oct 30 17, 17:02";
shapes = (
{
closed = 1;
nodes = (
(188,-14,o),
(223,119,o),
(239,379,cs),
(258,726,l),
(404,726,l),
(404,0,l),
(517,0,l),
(517,810,l),
(161,810,l),
(134,379,ls),
(115,98,o),
(77,82,o),
(2,84,c),
(2,0,l)
);
},
{
closed = 1;
nodes = (
(579,-147,l),
(579,81,l),
(483,81,l),
(492,-147,l)
);
}
);
width = 589;
},
{
background = {
shapes = (
{
ref = "El-cy";
}
);
};
layerId = "249F2D81-707B-4084-8FA6-2290A2E02600";
shapes = (
{
closed = 1;
nodes = (
(636,-160,l),
(636,121,l),
(497,121,l),
(522,-160,l)
);
},
{
closed = 1;
nodes = (
(423,0,l),
(571,0,l),
(571,121,l),
(423,121,l)
);
},
{
ref = "El-cy";
}
);
width = 653;
}
);
metricLeft = "El-cy";
unicode = 1326;
},
{
color = 8;
glyphname = "Eltail-cy";
kernLeft = "El-cy";
kernRight = "Ii-cy";
lastChange = "2025-05-07 13:09:21 +0000";
layers = (
{
background = {
shapes = (
{
ref = "El-cy";
}
);
};
layerId = "6AC43539-1FDC-4B97-8460-9A098675B85D";
shapes = (
{
closed = 1;
nodes = (
(493,-134,l),
(533,42,l),
(483,42,l),
(449,-134,l)
);
},
{
closed = 1;
nodes = (
(25,-2,l),
(159,-2,o),
(176,44,o),
(196,508,cs),
(207,768,l),
(428,768,l),
(428,0,l),
(483,0,l),
(483,810,l),
(156,810,l),
(143,508,ls),
(124,70,o),
(108,54,o),
(25,48,c)
);
}
);
width = 557;
},
{
background = {
shapes = (
{
closed = 1;
nodes = (
(156,-14,o),
(191,119,o),
(207,379,cs),
(226,726,l),
(372,726,l),
(372,0,l),
(485,0,l),
(485,810,l),
(129,810,l),
(102,379,ls),
(83,98,o),
(45,82,o),
(-30,84,c),
(-30,0,l)
);
},
{
closed = 1;
nodes = (
(513,-147,l),
(563,81,l),
(467,81,l),
(426,-147,l)
);
}
);
};
layerId = "B4C1A060-68FB-4CB1-AF3F-8DCCE37557EC";
shapes = (
{
closed = 1;
nodes = (
(513,-147,l),
(563,81,l),
(467,81,l),
(426,-147,l)
);
},
{
closed = 1;
nodes = (
(10,0,l),
(178,-14,o),
(186,119,o),
(199,379,cs),
(216,726,l),
(372,726,l),
(372,0,l),
(485,0,l),
(485,810,l),
(116,810,l),
(94,379,ls),
(80,98,o),
(71,82,o),
(10,84,c)
);
}
);
width = 573;
},
{
background = {
shapes = (
{
closed = 1;
nodes = (
(267,-15,o),
(271,81,o),
(293,414,cs),
(309,673,l),
(398,673,l),
(398,0,l),
(576,0,l),
(576,810,l),
(147,810,l),
(121,448,ls),
(99,146,o),
(103,125,o),
(-9,126,c),
(-9,0,l)
);
},
{
closed = 1;
nodes = (
(592,-160,l),
(659,121,l),
(519,121,l),
(474,-160,l)
);
}
);
};
layerId = "249F2D81-707B-4084-8FA6-2290A2E02600";
shapes = (
{
closed = 1;
nodes = (
(592,-160,l),
(659,121,l),
(519,121,l),
(474,-160,l)
);
},
{
closed = 1;
nodes = (
(20,0,l),
(226,-13,o),
(269,90,o),
(288,424,cs),
(301,658,l),
(378,658,l),
(378,0,l),
(576,0,l),
(576,810,l),
(135,810,l),
(117,468,ls),
(102,177,o),
(82,150,o),
(20,150,c)
);
}
);
width = 668;
}
);
metricLeft = "El-cy";
unicode = 1221;
},
